<svg xmlns="http://www.w3.org/2000/svg" viewBox="0 0 500 500" width="500" height="500" preserveAspectRatio="xMidYMid meet" style="width: 100%; height: 100%; transform: translate3d(0px, 0px, 0px); content-visibility: visible;"><defs><clipPath id="__lottie_element_3049"><rect width="500" height="500" x="0" y="0"></rect></clipPath><mask id="__lottie_element_3055" mask-type="alpha"><g clip-path="url(#__lottie_element_3056)" transform="matrix(1,0,0,1,0,0)" opacity="1" style="display: block;"><g transform="matrix(1,0,0,1,0,0)" opacity="1" style="display: block;"><path fill="rgb(255,0,0)" fill-opacity="1" d=" M237.94,262.8 C237.94,262.8 262.06,262.8 262.06,262.8 C275.38,262.8 286.17,273.59 286.17,286.91 C286.17,286.91 286.17,294.98 286.17,294.98 C286.17,297.19 284.51,299.06 282.32,299.31 C282.32,299.31 273.88,300.29 273.88,300.29 C271.57,300.55 269.32,301.14 267.17,302.04 C267.17,302.04 267.17,302.04 267.17,302.04 C256.16,306.64 243.76,306.65 232.74,302.07 C232.74,302.07 232.68,302.05 232.68,302.05 C230.44,301.12 228.09,300.51 225.68,300.23 C225.68,300.23 217.69,299.31 217.69,299.31 C215.49,299.05 213.83,297.19 213.83,294.98 C213.83,294.98 213.83,286.91 213.83,286.91 C213.83,273.59 224.62,262.8 237.94,262.8z M249.44,194.5 C249.44,194.5 250.56,194.5 250.56,194.5 C260.36,194.5 268.21,202.63 267.87,212.42 C267.87,212.42 267.31,228.63 267.31,228.63 C266.99,237.95 259.33,245.35 250,245.35 C250,245.35 250,245.35 250,245.35 C240.67,245.35 233.01,237.95 232.69,228.63 C232.69,228.63 232.13,212.42 232.13,212.42 C231.79,202.63 239.64,194.5 249.44,194.5z"></path><g opacity="1" transform="matrix(1,0,0,1,250,284.14801025390625)"><path stroke-linecap="round" stroke-linejoin="round" fill-opacity="0" stroke="rgb(8,167,137)" stroke-opacity="1" stroke-width="6" d=" M-12.057999610900879,-21.351999282836914 C-12.057999610900879,-21.351999282836914 12.057999610900879,-21.351999282836914 12.057999610900879,-21.351999282836914 C25.37700080871582,-21.351999282836914 36.17399978637695,-10.555000305175781 36.17399978637695,2.7639999389648438 C36.17399978637695,2.7639999389648438 36.17399978637695,10.831999778747559 36.17399978637695,10.831999778747559 C36.17399978637695,13.045000076293945 34.51499938964844,14.906999588012695 32.316001892089844,15.16100025177002 C32.316001892089844,15.16100025177002 23.878000259399414,16.136999130249023 23.878000259399414,16.136999130249023 C21.57200050354004,16.40399932861328 19.315000534057617,16.993999481201172 17.173999786376953,17.888999938964844 C17.173999786376953,17.888999938964844 17.173999786376953,17.888999938964844 17.173999786376953,17.888999938964844 C6.158999919891357,22.493999481201172 -6.239999771118164,22.506000518798828 -17.264999389648438,17.923999786376953 C-17.264999389648438,17.923999786376953 -17.322999954223633,17.899999618530273 -17.322999954223633,17.899999618530273 C-19.558000564575195,16.97100067138672 -21.91200065612793,16.358999252319336 -24.31599998474121,16.082000732421875 C-24.31599998474121,16.082000732421875 -32.314998626708984,15.15999984741211 -32.314998626708984,15.15999984741211 C-34.513999938964844,14.906000137329102 -36.17399978637695,13.043999671936035 -36.17399978637695,10.829999923706055 C-36.17399978637695,10.829999923706055 -36.17399978637695,2.7639999389648438 -36.17399978637695,2.7639999389648438 C-36.17399978637695,-10.555000305175781 -25.37700080871582,-21.351999282836914 -12.057999610900879,-21.351999282836914z"></path></g><g opacity="1" transform="matrix(1,0,0,1,250,219.92300415039062)"><path stroke-linecap="round" stroke-linejoin="round" fill-opacity="0" stroke="rgb(8,167,137)" stroke-opacity="1" stroke-width="6" d=" M-0.5640000104904175,-25.42300033569336 C-0.5640000104904175,-25.42300033569336 0.5640000104904175,-25.42300033569336 0.5640000104904175,-25.42300033569336 C10.364999771118164,-25.42300033569336 18.214000701904297,-17.29800033569336 17.87299919128418,-7.501999855041504 C17.87299919128418,-7.501999855041504 17.30900001525879,8.706000328063965 17.30900001525879,8.706000328063965 C16.985000610351562,18.0310001373291 9.331000328063965,25.42300033569336 0,25.42300033569336 C0,25.42300033569336 0,25.42300033569336 0,25.42300033569336 C-9.331000328063965,25.42300033569336 -16.985000610351562,18.0310001373291 -17.30900001525879,8.706000328063965 C-17.30900001525879,8.706000328063965 -17.87299919128418,-7.501999855041504 -17.87299919128418,-7.501999855041504 C-18.214000701904297,-17.29800033569336 -10.364999771118164,-25.42300033569336 -0.5640000104904175,-25.42300033569336z"></path></g></g><g transform="matrix(1,0,0,1,250,250)" opacity="1" style="display: block;"><g opacity="1" transform="matrix(1,0,0,1,0,0)"><path stroke-linecap="round" stroke-linejoin="round" fill-opacity="0" stroke="rgb(18,19,49)" stroke-opacity="1" stroke-width="12" d=" M86.9990005493164,0 C86.9990005493164,48.04800033569336 48.04800033569336,86.9990005493164 0,86.9990005493164 C-48.04800033569336,86.9990005493164 -86.9990005493164,48.04800033569336 -86.9990005493164,0 C-86.9990005493164,-48.04800033569336 -48.04800033569336,-86.9990005493164 0,-86.9990005493164 C48.04800033569336,-86.9990005493164 86.9990005493164,-48.04800033569336 86.9990005493164,0z"></path></g></g><g transform="matrix(1,0,0,1,0,0)" opacity="1" style="display: block;"><g opacity="0" transform="matrix(1,0,0,1,250,139.78399658203125)"><path stroke-linecap="round" stroke-linejoin="round" fill-opacity="0" stroke="rgb(18,19,49)" stroke-opacity="1" stroke-width="12" d=" M0,23.187999725341797 C0,23.187999725341797 0,23.187999725341797 0,23.187999725341797 M0,23.187999725341797 C0,23.187999725341797 0,23.187999725341797 0,23.187999725341797 C0,23.187999725341797 0,23.187999725341797 0,23.187999725341797 C0,23.187999725341797 0,23.187999725341797 0,23.187999725341797 C0,23.187999725341797 0,23.187999725341797 0,23.187999725341797z"></path></g><g opacity="1" transform="matrix(1,0,0,1,250,139.78399658203125)"><path stroke-linecap="round" stroke-linejoin="round" fill-opacity="0" stroke="rgb(18,19,49)" stroke-opacity="1" stroke-width="12" d=" M0,-23.216999053955078 C0,-23.216999053955078 0,23.216999053955078 0,23.216999053955078 M26.687000274658203,-49.90299987792969 C26.687000274658203,-35.16400146484375 14.73900032043457,-23.216999053955078 0,-23.216999053955078 C-14.73900032043457,-23.216999053955078 -26.687000274658203,-35.16400146484375 -26.687000274658203,-49.90299987792969 C-26.687000274658203,-64.64199829101562 -14.73900032043457,-76.58999633789062 0,-76.58999633789062 C14.73900032043457,-76.58999633789062 26.687000274658203,-64.64199829101562 26.687000274658203,-49.90299987792969z"></path></g></g><g transform="matrix(0.5,0.8660253882408142,-0.8660253882408142,0.5,342.16302490234375,-92.005859375)" opacity="1" style="display: block;"><g opacity="0" transform="matrix(1,0,0,1,250,139.78399658203125)"><path stroke-linecap="round" stroke-linejoin="round" fill-opacity="0" stroke="rgb(18,19,49)" stroke-opacity="1" stroke-width="12" d=" M0,23.187999725341797 C0,23.187999725341797 0,23.187999725341797 0,23.187999725341797 M0,23.187999725341797 C0,23.187999725341797 0,23.187999725341797 0,23.187999725341797 C0,23.187999725341797 0,23.187999725341797 0,23.187999725341797 C0,23.187999725341797 0,23.187999725341797 0,23.187999725341797 C0,23.187999725341797 0,23.187999725341797 0,23.187999725341797z"></path></g><g opacity="1" transform="matrix(1,0,0,1,250,139.78399658203125)"><path stroke-linecap="round" stroke-linejoin="round" fill-opacity="0" stroke="rgb(18,19,49)" stroke-opacity="1" stroke-width="12" d=" M0,-23.216999053955078 C0,-23.216999053955078 0,23.216999053955078 0,23.216999053955078 M26.687000274658203,-49.90299987792969 C26.687000274658203,-35.16400146484375 14.73900032043457,-23.216999053955078 0,-23.216999053955078 C-14.73900032043457,-23.216999053955078 -26.687000274658203,-35.16400146484375 -26.687000274658203,-49.90299987792969 C-26.687000274658203,-64.64199829101562 -14.73900032043457,-76.58999633789062 0,-76.58999633789062 C14.73900032043457,-76.58999633789062 26.687000274658203,-64.64199829101562 26.687000274658203,-49.90299987792969z"></path></g></g><g transform="matrix(-0.5,0.8660253882408142,-0.8660253882408142,-0.5,592.1630249023438,158.99514770507812)" opacity="1" style="display: block;"><g opacity="0" transform="matrix(1,0,0,1,250,139.78399658203125)"><path stroke-linecap="round" stroke-linejoin="round" fill-opacity="0" stroke="rgb(18,19,49)" stroke-opacity="1" stroke-width="12" d=" M0,23.187999725341797 C0,23.187999725341797 0,23.187999725341797 0,23.187999725341797 M0,23.187999725341797 C0,23.187999725341797 0,23.187999725341797 0,23.187999725341797 C0,23.187999725341797 0,23.187999725341797 0,23.187999725341797 C0,23.187999725341797 0,23.187999725341797 0,23.187999725341797 C0,23.187999725341797 0,23.187999725341797 0,23.187999725341797z"></path></g><g opacity="1" transform="matrix(1,0,0,1,250,139.78399658203125)"><path stroke-linecap="round" stroke-linejoin="round" fill-opacity="0" stroke="rgb(18,19,49)" stroke-opacity="1" stroke-width="12" d=" M0,-23.216999053955078 C0,-23.216999053955078 0,23.216999053955078 0,23.216999053955078 M26.687000274658203,-49.90299987792969 C26.687000274658203,-35.16400146484375 14.73900032043457,-23.216999053955078 0,-23.216999053955078 C-14.73900032043457,-23.216999053955078 -26.687000274658203,-35.16400146484375 -26.687000274658203,-49.90299987792969 C-26.687000274658203,-64.64199829101562 -14.73900032043457,-76.58999633789062 0,-76.58999633789062 C14.73900032043457,-76.58999633789062 26.687000274658203,-64.64199829101562 26.687000274658203,-49.90299987792969z"></path></g></g><g transform="matrix(-1,0,0,-1,500,500.00201416015625)" opacity="1" style="display: block;"><g opacity="0" transform="matrix(1,0,0,1,250,139.78399658203125)"><path stroke-linecap="round" stroke-linejoin="round" fill-opacity="0" stroke="rgb(18,19,49)" stroke-opacity="1" stroke-width="12" d=" M0,23.187999725341797 C0,23.187999725341797 0,23.187999725341797 0,23.187999725341797 M0,23.187999725341797 C0,23.187999725341797 0,23.187999725341797 0,23.187999725341797 C0,23.187999725341797 0,23.187999725341797 0,23.187999725341797 C0,23.187999725341797 0,23.187999725341797 0,23.187999725341797 C0,23.187999725341797 0,23.187999725341797 0,23.187999725341797z"></path></g><g opacity="1" transform="matrix(1,0,0,1,250,139.78399658203125)"><path stroke-linecap="round" stroke-linejoin="round" fill-opacity="0" stroke="rgb(18,19,49)" stroke-opacity="1" stroke-width="12" d=" M0,-23.216999053955078 C0,-23.216999053955078 0,23.216999053955078 0,23.216999053955078 M26.687000274658203,-49.90299987792969 C26.687000274658203,-35.16400146484375 14.73900032043457,-23.216999053955078 0,-23.216999053955078 C-14.73900032043457,-23.216999053955078 -26.687000274658203,-35.16400146484375 -26.687000274658203,-49.90299987792969 C-26.687000274658203,-64.64199829101562 -14.73900032043457,-76.58999633789062 0,-76.58999633789062 C14.73900032043457,-76.58999633789062 26.687000274658203,-64.64199829101562 26.687000274658203,-49.90299987792969z"></path></g></g><g transform="matrix(-0.5,-0.8660253882408142,0.8660253882408142,-0.5,158.3369903564453,591.5078735351562)" opacity="1" style="display: block;"><g opacity="0" transform="matrix(1,0,0,1,250,139.78399658203125)"><path stroke-linecap="round" stroke-linejoin="round" fill-opacity="0" stroke="rgb(18,19,49)" stroke-opacity="1" stroke-width="12" d=" M0,23.187999725341797 C0,23.187999725341797 0,23.187999725341797 0,23.187999725341797 M0,23.187999725341797 C0,23.187999725341797 0,23.187999725341797 0,23.187999725341797 C0,23.187999725341797 0,23.187999725341797 0,23.187999725341797 C0,23.187999725341797 0,23.187999725341797 0,23.187999725341797 C0,23.187999725341797 0,23.187999725341797 0,23.187999725341797z"></path></g><g opacity="1" transform="matrix(1,0,0,1,250,139.78399658203125)"><path stroke-linecap="round" stroke-linejoin="round" fill-opacity="0" stroke="rgb(18,19,49)" stroke-opacity="1" stroke-width="12" d=" M0,-23.216999053955078 C0,-23.216999053955078 0,23.216999053955078 0,23.216999053955078 M26.687000274658203,-49.90299987792969 C26.687000274658203,-35.16400146484375 14.73900032043457,-23.216999053955078 0,-23.216999053955078 C-14.73900032043457,-23.216999053955078 -26.687000274658203,-35.16400146484375 -26.687000274658203,-49.90299987792969 C-26.687000274658203,-64.64199829101562 -14.73900032043457,-76.58999633789062 0,-76.58999633789062 C14.73900032043457,-76.58999633789062 26.687000274658203,-64.64199829101562 26.687000274658203,-49.90299987792969z"></path></g></g><g transform="matrix(0.5,-0.8660253882408142,0.8660253882408142,0.5,-91.66302490234375,341.5068359375)" opacity="1" style="display: block;"><g opacity="0" transform="matrix(1,0,0,1,250,139.78399658203125)"><path stroke-linecap="round" stroke-linejoin="round" fill-opacity="0" stroke="rgb(18,19,49)" stroke-opacity="1" stroke-width="12" d=" M0,23.187999725341797 C0,23.187999725341797 0,23.187999725341797 0,23.187999725341797 M0,23.187999725341797 C0,23.187999725341797 0,23.187999725341797 0,23.187999725341797 C0,23.187999725341797 0,23.187999725341797 0,23.187999725341797 C0,23.187999725341797 0,23.187999725341797 0,23.187999725341797 C0,23.187999725341797 0,23.187999725341797 0,23.187999725341797z"></path></g><g opacity="1" transform="matrix(1,0,0,1,250,139.78399658203125)"><path stroke-linecap="round" stroke-linejoin="round" fill-opacity="0" stroke="rgb(18,19,49)" stroke-opacity="1" stroke-width="12" d=" M0,-23.216999053955078 C0,-23.216999053955078 0,23.216999053955078 0,23.216999053955078 M26.687000274658203,-49.90299987792969 C26.687000274658203,-35.16400146484375 14.73900032043457,-23.216999053955078 0,-23.216999053955078 C-14.73900032043457,-23.216999053955078 -26.687000274658203,-35.16400146484375 -26.687000274658203,-49.90299987792969 C-26.687000274658203,-64.64199829101562 -14.73900032043457,-76.58999633789062 0,-76.58999633789062 C14.73900032043457,-76.58999633789062 26.687000274658203,-64.64199829101562 26.687000274658203,-49.90299987792969z"></path></g></g></g></mask><clipPath id="__lottie_element_3056"><path d="M0,0 L500,0 L500,500 L0,500z"></path></clipPath><filter id="__lottie_element_3085" x="-100%" y="-100%" width="300%" height="300%"><feGaussianBlur result="filter_result_0" stdDeviation="52.5 52.5" edgeMode="wrap"></feGaussianBlur></filter></defs><g clip-path="url(#__lottie_element_3049)"><g mask="url(#__lottie_element_3055)" style="display: block;"><g filter="url(#__lottie_element_3085)" transform="matrix(-0.1674155443906784,-2.3941538333892822,2.3941538333892822,-0.1674155443906784,271.9410095214844,270.4599914550781)" opacity="1"><g class="design" opacity="1" transform="matrix(1,0,0,1,0,0)"><path fill="rgb(225,169,58)" fill-opacity="1" d=" M0,-250 C137.97500610351562,-250 250,-137.97500610351562 250,0 C250,137.97500610351562 137.97500610351562,250 0,250 C-137.97500610351562,250 -250,137.97500610351562 -250,0 C-250,-137.97500610351562 -137.97500610351562,-250 0,-250z"></path></g><g class="design" opacity="1" transform="matrix(1,0,0,1,113.24199676513672,-118.88400268554688)"><path fill="rgb(225,169,58)" fill-opacity="1" d=" M0,-176.5 C97.47799682617188,-176.5 176.5,-97.47799682617188 176.5,0 C176.5,97.47799682617188 97.47799682617188,176.5 0,176.5 C-43.948001861572266,176.5 -74.39600372314453,142.4429931640625 -105.29000091552734,115.86900329589844 C-142.92100524902344,83.5 -176.5,53.53099822998047 -176.5,0 C-176.5,-97.47799682617188 -97.47799682617188,-176.5 0,-176.5z"></path></g></g></g><g style="display: none;"><path></path></g></g></svg>