<svg width="16" height="16" viewBox="0 0 16 16" fill="none" xmlns="http://www.w3.org/2000/svg">
<rect x="0.5" y="0.5" width="15" height="15" rx="1.5" fill="#212121" stroke="#E2A93B"/>
<path d="M3 3L7 3V3.44027L3.97714 5.12617V4.88993L7 6.55436V6.99463L3 7V6.48456L6.13714 6.47919V6.60268L3.48571 5.12081V4.87383L6.13714 3.38121V3.51544H3V3Z" fill="white"/>
<path d="M3 9L7 10.7275V11.267L3 13V12.4278L6.68 10.8856V11.1035L3 9.56131V9ZM4 9.73569L4.45714 9.88283V12.03L4 12.188V9.73569Z" fill="white"/>
<path d="M13 5.44197H13.1V5.34197V4.65803V4.55803H13H9.59714V3V2.9H9.49714H9H8.9V3V7V7.1H9H9.49714H9.59714V7V5.44197H13Z" fill="#E2A93B" stroke="white" stroke-width="0.2"/>
<path d="M9 11.6H8.9V11.5V10.5V10.4H9H13H13.1V10.5V11.5V11.6H13H9Z" fill="#E2A93B" stroke="white" stroke-width="0.2"/>
</svg>
