<svg width="18" height="18" viewBox="0 0 18 18" fill="none" xmlns="http://www.w3.org/2000/svg">
<rect x="0.5" y="0.5" width="17" height="17" rx="2.5" fill="#0F0F0F" stroke="#E2A93B"/>
<path d="M3 3L8 3V4.25L5.5 6.125V4.875L8 6.75V7.99329L3 8V6.75H6.75V7.375L4.25 5.5L6.75 3.625V4.25H3V3Z" fill="white"/>
<path d="M3 10L8 12.1594V12.8338L3 15V13.75L7 12V13L3 11.25V10ZM3.99609 11.25H4.82143V13.7875H3.99609V11.25Z" fill="white"/>
<path d="M11.5 4.70156H14.9V6.29844H11.5H11.4V6.39844V7.9H10.1V3.1H11.4V4.60156V4.70156H11.5Z" fill="#E2A93B" stroke="white" stroke-width="0.2"/>
<path d="M10.1 13.4H14.9V11.6H10.1V13.4Z" fill="#E2A93B" stroke="white" stroke-width="0.2"/>
</svg>
