<svg xmlns="http://www.w3.org/2000/svg" viewBox="0 0 500 500" width="500" height="500" preserveAspectRatio="xMidYMid meet" style="width: 100%; height: 100%; transform: translate3d(0px, 0px, 0px); content-visibility: visible;"><defs><clipPath id="__lottie_element_2050"><rect width="500" height="500" x="0" y="0"></rect></clipPath><mask id="__lottie_element_2056" mask-type="alpha"><g clip-path="url(#__lottie_element_2057)" transform="matrix(1,0,0,1,0,0)" opacity="1" style="display: block;"><g transform="matrix(1,0,0,1,186.5290069580078,117.73899841308594)" opacity="1" style="display: block;"><g opacity="1" transform="matrix(1,0,0,1,0,0)"><path stroke-linecap="round" stroke-linejoin="round" fill-opacity="0" stroke="rgb(18,19,49)" stroke-opacity="1" stroke-width="12" d=" M-9.52299976348877,23.082000732421875 C-9.52299976348877,23.082000732421875 8.111000061035156,27.80699920654297 8.111000061035156,27.80699920654297 C10.95300006866455,28.569000244140625 13.902000427246094,26.865999221801758 14.663999557495117,24.02400016784668 C14.663999557495117,24.02400016784668 22.17099952697754,-3.993000030517578 22.17099952697754,-3.993000030517578 C24.716999053955078,-13.496000289916992 19.025999069213867,-23.354999542236328 9.52299976348877,-25.900999069213867 C9.52299976348877,-25.900999069213867 3.999000072479248,-27.381000518798828 3.999000072479248,-27.381000518798828 C-5.504000186920166,-29.927000045776367 -15.36299991607666,-24.235000610351562 -17.909000396728516,-14.732000350952148 C-17.909000396728516,-14.732000350952148 -22.17099952697754,1.1740000247955322 -22.17099952697754,1.1740000247955322 C-24.716999053955078,10.677000045776367 -19.025999069213867,20.535999298095703 -9.52299976348877,23.082000732421875z"></path></g></g><g transform="matrix(1,0,0,1,0,0)" opacity="1" style="display: block;"><g opacity="1" transform="matrix(1,0,0,1,129.9459991455078,270.0150146484375)"><path stroke-linecap="round" stroke-linejoin="round" fill-opacity="0" stroke="rgb(18,19,49)" stroke-opacity="1" stroke-width="12" d=" M47.45800018310547,-9.770999908447266 C47.45800018310547,-9.770999908447266 93.7770004272461,-9.562000274658203 93.7770004272461,-9.562000274658203 C104.24299621582031,-9.506999969482422 112.86499786376953,-1.3289999961853027 113.47200012207031,9.119000434875488 C113.47200012207031,9.119000434875488 120.78299713134766,91.36599731445312 120.78299713134766,91.36599731445312 C120.78299713134766,91.36599731445312 141.42599487304688,100.31099700927734 136.49400329589844,113.41799926757812 C136.49400329589844,113.41799926757812 90.29900360107422,113.41799926757812 90.29900360107422,113.41799926757812 C90.29900360107422,113.41799926757812 80.30699920654297,25.916000366210938 80.30699920654297,25.916000366210938 C80.30699920654297,25.916000366210938 15.800999641418457,25.916000366210938 15.800999641418457,25.916000366210938 C1.965999960899353,25.916000366210938 -9.23799991607666,14.680999755859375 -9.199000358581543,0.8460000157356262 C-9.199000358581543,0.8460000157356262 -9.168999671936035,-9.772000312805176 -9.168999671936035,-9.772000312805176 M-53.409000396728516,-113.41799926757812 C-53.409000396728516,-113.41799926757812 -43.94900131225586,-66.12100219726562 -43.94900131225586,-66.12100219726562 C-41.36600112915039,-53.20600128173828 -40.064998626708984,-40.06800079345703 -40.064998626708984,-26.898000717163086 C-40.064998626708984,-26.898000717163086 -40.064998626708984,0.9160000085830688 -40.064998626708984,0.9160000085830688 C-40.064998626708984,14.722999572753906 -28.871999740600586,25.916000366210938 -15.0649995803833,25.916000366210938 C-15.0649995803833,25.916000366210938 53.409000396728516,25.916000366210938 53.409000396728516,25.916000366210938 C53.409000396728516,25.916000366210938 53.409000396728516,88.41799926757812 53.409000396728516,88.41799926757812 C53.409000396728516,102.2249984741211 42.215999603271484,113.41799926757812 28.409000396728516,113.41799926757812 C28.409000396728516,113.41799926757812 -40.064998626708984,113.41799926757812 -40.064998626708984,113.41799926757812"></path></g></g><g transform="matrix(1,0,0,1,0,0)" opacity="1" style="display: block;"><g opacity="1" transform="matrix(1,0,0,1,336.7309875488281,189.9550018310547)"><path stroke-linecap="round" stroke-linejoin="round" fill-opacity="0" stroke="rgb(18,19,49)" stroke-opacity="1" stroke-width="12" d=" M-18.697999954223633,194.01100158691406 C-18.697999954223633,194.01100158691406 53.236000061035156,194.01100158691406 53.236000061035156,194.01100158691406 C64.28199768066406,194.01100158691406 73.23600006103516,185.0570068359375 73.23600006103516,174.01100158691406 C73.23600006103516,174.01100158691406 73.23600006103516,60.577999114990234 73.23600006103516,60.577999114990234 M-33.108001708984375,32.858001708984375 C-33.108001708984375,32.858001708984375 -10.550000190734863,-33.358001708984375 -10.550000190734863,-33.358001708984375 C-10.550000190734863,-33.358001708984375 33.358001708984375,-33.358001708984375 33.358001708984375,-33.358001708984375 C33.358001708984375,-33.358001708984375 10.800000190734863,32.858001708984375 10.800000190734863,32.858001708984375 M-71.56500244140625,33.358001708984375 C-31.628999710083008,33.358001708984375 73.38800048828125,33.358001708984375 73.38800048828125,33.358001708984375 C73.38800048828125,33.358001708984375 73.38800048828125,60.04499816894531 73.38800048828125,60.04499816894531 C73.38800048828125,60.04499816894531 73.38800048828125,60.04499816894531 73.38800048828125,60.04499816894531 C73.38800048828125,60.04499816894531 -86.73100280761719,60.04499816894531 -86.73100280761719,60.04499816894531 C-86.73100280761719,60.04499816894531 -86.73100280761719,48.50899887084961 -86.73100280761719,40.60599899291992"></path></g></g><g transform="matrix(1,0,0,1,0,0)" opacity="1" style="display: block;"><g opacity="1" transform="matrix(1,0,0,1,216.572998046875,195.1269989013672)"><path stroke-linecap="round" stroke-linejoin="round" fill-opacity="0" stroke="rgb(8,168,138)" stroke-opacity="1" stroke-width="12" d=" M-27.683000564575195,8.265000343322754 C-27.683000564575195,8.265000343322754 -39.18299865722656,65.11499786376953 -39.18299865722656,65.11499786376953 C-39.18299865722656,65.11499786376953 -95.79299926757812,65.11499786376953 -95.79299926757812,65.11499786376953 C-95.79299926757812,65.11499786376953 -79.44300079345703,-15.78499984741211 -79.44300079345703,-15.78499984741211 C-76.822998046875,-28.725000381469727 -65.44300079345703,-38.025001525878906 -52.24300003051758,-38.025001525878906 C-45.35300064086914,-38.025001525878906 -39.143001556396484,-35.54499816894531 -34.35300064086914,-31.485000610351562 M-35.236000061035156,-32.150001525878906 C-35.236000061035156,-32.150001525878906 1.725000023841858,-4.567999839782715 1.725000023841858,-4.567999839782715 C1.725000023841858,-4.567999839782715 24.388999938964844,0.6949999928474426 24.388999938964844,0.6949999928474426 C24.388999938964844,0.6949999928474426 55.266998291015625,7.86299991607666 55.266998291015625,7.86299991607666 C55.266998291015625,7.86299991607666 58.0260009765625,29.632999420166016 37.04499816894531,32.150001525878906 C37.04499816894531,32.150001525878906 -10.454000473022461,21.077999114990234 -10.454000473022461,21.077999114990234 C-10.454000473022461,21.077999114990234 -50.6150016784668,-8.781000137329102 -50.6150016784668,-8.781000137329102 C-50.6150016784668,-8.781000137329102 -50.638999938964844,-8.795999526977539 -50.638999938964844,-8.795999526977539 C-50.638999938964844,-8.795999526977539 -55.387001037597656,-12.331000328063965 -55.387001037597656,-12.331000328063965"></path></g></g></g></mask><clipPath id="__lottie_element_2057"><path d="M0,0 L500,0 L500,500 L0,500z"></path></clipPath><filter id="__lottie_element_2074" x="-100%" y="-100%" width="300%" height="300%"><feGaussianBlur result="filter_result_0" stdDeviation="52.5 52.5" edgeMode="wrap"></feGaussianBlur></filter></defs><g clip-path="url(#__lottie_element_2050)"><g mask="url(#__lottie_element_2056)" style="display: block;"><g filter="url(#__lottie_element_2074)" transform="matrix(-0.1674155443906784,-2.3941538333892822,2.3941538333892822,-0.1674155443906784,271.9410095214844,270.4599914550781)" opacity="1"><g class="design" opacity="1" transform="matrix(1,0,0,1,0,0)"><path fill="rgb(227,227,227)" fill-opacity="1" d=" M0,-250 C137.97500610351562,-250 250,-137.97500610351562 250,0 C250,137.97500610351562 137.97500610351562,250 0,250 C-137.97500610351562,250 -250,137.97500610351562 -250,0 C-250,-137.97500610351562 -137.97500610351562,-250 0,-250z"></path></g><g class="design" opacity="1" transform="matrix(1,0,0,1,113.24199676513672,-118.88400268554688)"><path fill="rgb(225,169,58)" fill-opacity="1" d=" M0,-176.5 C97.47799682617188,-176.5 176.5,-97.47799682617188 176.5,0 C176.5,97.47799682617188 97.47799682617188,176.5 0,176.5 C-43.948001861572266,176.5 -74.39600372314453,142.4429931640625 -105.29000091552734,115.86900329589844 C-142.92100524902344,83.5 -176.5,53.53099822998047 -176.5,0 C-176.5,-97.47799682617188 -97.47799682617188,-176.5 0,-176.5z"></path></g></g></g><g style="display: none;"><path></path></g></g></svg>