<svg xmlns="http://www.w3.org/2000/svg" viewBox="0 0 500 500" width="500" height="500" preserveAspectRatio="xMidYMid meet" style="width: 100%; height: 100%; transform: translate3d(0px, 0px, 0px); content-visibility: visible;"><defs><clipPath id="__lottie_element_2186"><rect width="500" height="500" x="0" y="0"></rect></clipPath><mask id="__lottie_element_2192" mask-type="alpha"><g clip-path="url(#__lottie_element_2193)" transform="matrix(1,0,0,1,0,0)" opacity="1" style="display: block;"><g mask="url(#__lottie_element_2199)" style="display: block;"><g transform="matrix(1,0,0,1,197,282)" opacity="1"><g opacity="1" transform="matrix(1,0,0,1,0,0)"><path fill="rgb(18,19,49)" fill-opacity="1" d=" M-325.5,-176.5 C-325.5,-176.5 -70,91 -70,91 M-325.5,-176.5 C-325.5,-176.5 -70,91 -70,91"></path><path stroke-linecap="butt" stroke-linejoin="miter" fill-opacity="0" stroke-miterlimit="4" stroke="rgb(18,19,49)" stroke-opacity="1" stroke-width="12" d=" M-325.5,-176.5 C-325.5,-176.5 -70,91 -70,91 M-325.5,-176.5 C-325.5,-176.5 -70,91 -70,91" style="mix-blend-mode: soft-light;"></path></g></g></g><g transform="matrix(1,0,0,1,250,250)" opacity="1" style="display: block;"><g opacity="1" transform="matrix(1,0,0,1,0,0)"><path stroke-linecap="round" stroke-linejoin="round" fill-opacity="0" stroke="rgb(18,19,49)" stroke-opacity="1" stroke-width="12" d=" M134,51 C134,51 -134,51 -134,51 C-134,51 -134,-84.49299621582031 -134,-84.49299621582031 C-134,-84.49299621582031 134,-84.49299621582031 134,-84.49299621582031 C134,-84.49299621582031 134,51 134,51z"></path></g><g opacity="1" transform="matrix(1,0,0,1,0,0)"><path stroke-linecap="round" stroke-linejoin="round" fill-opacity="0" stroke="rgb(18,19,49)" stroke-opacity="1" stroke-width="12" d=" M158.96400451660156,75.96800231933594 C158.96400451660156,75.96800231933594 -158.96400451660156,75.96800231933594 -158.96400451660156,75.96800231933594 C-158.96400451660156,75.96800231933594 -158.96400451660156,-109.46099853515625 -158.96400451660156,-109.46099853515625 C-158.96400451660156,-109.46099853515625 158.96400451660156,-109.46099853515625 158.96400451660156,-109.46099853515625 C158.96400451660156,-109.46099853515625 158.96400451660156,75.96800231933594 158.96400451660156,75.96800231933594z M158.96400451660156,75.96800231933594 C158.96400451660156,75.96800231933594 201,116.99400329589844 201,116.99400329589844 C201,116.99400329589844 -201,116.99400329589844 -201,116.99400329589844 C-201,116.99400329589844 -158.96400451660156,75.96800231933594 -158.96400451660156,75.96800231933594 M201,116.99400329589844 C201,116.99400329589844 186.98800659179688,140.39300537109375 186.98800659179688,140.39300537109375 C186.98800659179688,140.39300537109375 -187,140.39300537109375 -187,140.39300537109375 C-187,140.39300537109375 -201,116.99400329589844 -201,116.99400329589844 M158.46400451660156,75.96800231933594 C158.46400451660156,75.96800231933594 -158.46400451660156,76.46800231933594 -158.46400451660156,76.46800231933594"></path></g></g></g></mask><clipPath id="__lottie_element_2193"><path d="M0,0 L500,0 L500,500 L0,500z"></path></clipPath><mask id="__lottie_element_2199" mask-type="alpha"><g transform="matrix(1,0,0,1,250,250)" opacity="1" style="display: block;"><path fill="rgb(18,19,49)" fill-opacity="1" d=" M138,55 C138,55 -138,55 -138,55 C-138,55 -138,-88.49299621582031 -138,-88.49299621582031 C-138,-88.49299621582031 138,-88.49299621582031 138,-88.49299621582031 C138,-88.49299621582031 138,55 138,55z"></path><g opacity="1" transform="matrix(1,0,0,1,0,0)"><path stroke-linecap="round" stroke-linejoin="round" fill-opacity="0" stroke="rgb(8,168,138)" stroke-opacity="1" stroke-width="12" d=" M138,55 C138,55 -138,55 -138,55 C-138,55 -138,-88.49299621582031 -138,-88.49299621582031 C-138,-88.49299621582031 138,-88.49299621582031 138,-88.49299621582031 C138,-88.49299621582031 138,55 138,55z"></path></g></g></mask><filter id="__lottie_element_2207" x="-100%" y="-100%" width="300%" height="300%"><feGaussianBlur result="filter_result_0" stdDeviation="52.5 52.5" edgeMode="wrap"></feGaussianBlur></filter></defs><g clip-path="url(#__lottie_element_2186)"><g mask="url(#__lottie_element_2192)" style="display: block;"><g filter="url(#__lottie_element_2207)" transform="matrix(-0.1674155443906784,-2.3941538333892822,2.3941538333892822,-0.1674155443906784,271.9410095214844,270.4599914550781)" opacity="1"><g class="design" opacity="1" transform="matrix(1,0,0,1,0,0)"><path fill="rgb(227,227,227)" fill-opacity="1" d=" M0,-250 C137.97500610351562,-250 250,-137.97500610351562 250,0 C250,137.97500610351562 137.97500610351562,250 0,250 C-137.97500610351562,250 -250,137.97500610351562 -250,0 C-250,-137.97500610351562 -137.97500610351562,-250 0,-250z"></path></g><g class="design" opacity="1" transform="matrix(1,0,0,1,113.24199676513672,-118.88400268554688)"><path fill="rgb(225,169,58)" fill-opacity="1" d=" M0,-176.5 C97.47799682617188,-176.5 176.5,-97.47799682617188 176.5,0 C176.5,97.47799682617188 97.47799682617188,176.5 0,176.5 C-43.948001861572266,176.5 -74.39600372314453,142.4429931640625 -105.29000091552734,115.86900329589844 C-142.92100524902344,83.5 -176.5,53.53099822998047 -176.5,0 C-176.5,-97.47799682617188 -97.47799682617188,-176.5 0,-176.5z"></path></g></g></g><g style="display: none;"><path></path></g></g></svg>