<svg xmlns="http://www.w3.org/2000/svg" viewBox="0 0 500 500" width="500" height="500" preserveAspectRatio="xMidYMid meet" style="width: 100%; height: 100%; transform: translate3d(0px, 0px, 0px); content-visibility: visible;"><defs><clipPath id="__lottie_element_2495"><rect width="500" height="500" x="0" y="0"></rect></clipPath><mask id="__lottie_element_2501" mask-type="alpha"><g clip-path="url(#__lottie_element_2502)" transform="matrix(1,0,0,1,0,0)" opacity="1" style="display: block;"><g transform="matrix(3.5,0,0,3.5,250,229.875)" opacity="1" style="display: block;"><g opacity="1" transform="matrix(1,0,0,1,0,0)"><path stroke-linecap="round" stroke-linejoin="round" fill-opacity="0" stroke="rgb(18,19,49)" stroke-opacity="1" stroke-width="3.5" d=" M32.8120002746582,32.59700012207031 C42.784000396728516,29.590999603271484 50.047000885009766,20.336000442504883 50.047000885009766,9.383999824523926 C50.047000885009766,-0.8769999742507935 43.667999267578125,-9.642000198364258 34.66299819946289,-13.180000305175781 C34.66299819946289,-13.180000305175781 34.66299819946289,-13.180000305175781 34.66299819946289,-13.180000305175781 C29.535999298095703,-25.198999404907227 17.61400032043457,-33.625 3.7219998836517334,-33.625 C-9.26200008392334,-33.625 -20.518999099731445,-26.26099967956543 -26.121999740600586,-15.486000061035156 C-27.139999389648438,-15.817000389099121 -28.225000381469727,-16 -29.354000091552734,-16 C-35.132999420166016,-16 -39.81700134277344,-11.3149995803833 -39.81700134277344,-5.535999774932861 C-39.81700134277344,-4.76200008392334 -39.72700119018555,-4.010000228881836 -39.56800079345703,-3.2839999198913574 C-45.79499816894531,-0.006000000052154064 -50.047000885009766,6.51800012588501 -50.047000885009766,14.043999671936035 C-50.047000885009766,24.857999801635742 -41.279998779296875,33.625 -30.465999603271484,33.625 C-29.503999710083008,33.625 -27.384000778198242,33.625 -24.503000259399414,33.625"></path></g></g><g transform="matrix(3.5,0,0,3.5,250,229.875)" opacity="1" style="display: block;"><g opacity="1" transform="matrix(1,0,0,1,0,0)"><path stroke-linecap="round" stroke-linejoin="round" fill-opacity="0" stroke="rgb(18,19,49)" stroke-opacity="1" stroke-width="3.5" d=" M-19.496000289916992,-9.069999694824219 C-20.952999114990234,-13.107000350952148 -24.808000564575195,-16 -29.347000122070312,-16 M34.58599853515625,-13.411999702453613 C36.375,-9.303000450134277 37.367000579833984,-4.76800012588501 37.367000579833984,0 C37.367000579833984,0 37.37799835205078,3.5510001182556152 36.145999908447266,7.908999919891357"></path></g></g><g transform="matrix(1.2127500772476196,0,0,1.2127500772476196,265.94732666015625,229.42803955078125)" opacity="1" style="display: block;"><g opacity="1" transform="matrix(1,0,0,1,0,0)"><path stroke-linecap="round" stroke-linejoin="round" fill-opacity="0" stroke="rgb(18,19,49)" stroke-opacity="1" stroke-width="4" d=" M57.5,81.9000015258789 C57,80 55.70000076293945,78.30000305175781 54,77.30000305175781 C54,77.30000305175781 48.599998474121094,74.19999694824219 48.599998474121094,74.19999694824219 C47.20000076293945,73.4000015258789 46.400001525878906,71.80000305175781 46.599998474121094,70.19999694824219 C46.900001525878906,68.0999984741211 47,66 47,63.79999923706055 C47,61.599998474121094 46.79999923706055,59.5 46.599998474121094,57.400001525878906 C46.400001525878906,55.79999923706055 47.20000076293945,54.20000076293945 48.599998474121094,53.400001525878906 C48.599998474121094,53.400001525878906 54,50.29999923706055 54,50.29999923706055 C55.79999923706055,49.29999923706055 57,47.599998474121094 57.5,45.70000076293945 C58,43.70000076293945 57.70000076293945,41.70000076293945 56.79999923706055,39.900001525878906 C56.79999923706055,39.900001525878906 49.20000076293945,26.700000762939453 49.20000076293945,26.700000762939453 C48.20000076293945,24.899999618530273 46.5,23.600000381469727 44.599998474121094,23.100000381469727 C42.599998474121094,22.600000381469727 40.599998474121094,22.899999618530273 38.79999923706055,23.899999618530273 C38.79999923706055,23.899999618530273 33.400001525878906,27 33.400001525878906,27 C32,27.799999237060547 30.200000762939453,27.700000762939453 29,26.700000762939453 C25.700000762939453,24.100000381469727 21.899999618530273,21.899999618530273 18,20.299999237060547 C16.5,19.700000762939453 15.5,18.200000762939453 15.5,16.600000381469727 C15.5,16.600000381469727 15.5,10.300000190734863 15.5,10.300000190734863 C15.5,6.099999904632568 12.100000381469727,2.700000047683716 7.900000095367432,2.700000047683716 C7.900000095367432,2.700000047683716 -7.400000095367432,2.700000047683716 -7.400000095367432,2.700000047683716 C-11.600000381469727,2.700000047683716 -15,6.099999904632568 -15,10.300000190734863 C-15,10.300000190734863 -15,16.600000381469727 -15,16.600000381469727 C-15,18.200000762939453 -16,19.700000762939453 -17.5,20.299999237060547 C-21.5,21.899999618530273 -25.200000762939453,24.100000381469727 -28.5,26.700000762939453 C-29.799999237060547,27.700000762939453 -31.5,27.799999237060547 -32.900001525878906,27 C-32.900001525878906,27 -38.29999923706055,23.899999618530273 -38.29999923706055,23.899999618530273 C-40.099998474121094,22.899999618530273 -42.099998474121094,22.600000381469727 -44.099998474121094,23.100000381469727 C-46.099998474121094,23.600000381469727 -47.70000076293945,24.899999618530273 -48.70000076293945,26.700000762939453 C-48.70000076293945,26.700000762939453 -56.29999923706055,39.900001525878906 -56.29999923706055,39.900001525878906 C-57.29999923706055,41.70000076293945 -57.599998474121094,43.70000076293945 -57,45.70000076293945 C-56.5,47.70000076293945 -55.20000076293945,49.29999923706055 -53.5,50.29999923706055 C-53.5,50.29999923706055 -48.099998474121094,53.400001525878906 -48.099998474121094,53.400001525878906 C-46.70000076293945,54.20000076293945 -45.900001525878906,55.79999923706055 -46.099998474121094,57.400001525878906 C-46.400001525878906,59.5 -46.5,61.599998474121094 -46.5,63.79999923706055 C-46.5,66 -46.29999923706055,68.0999984741211 -46.099998474121094,70.19999694824219 C-45.900001525878906,71.80000305175781 -46.70000076293945,73.4000015258789 -48.099998474121094,74.19999694824219 C-48.099998474121094,74.19999694824219 -53.5,77.30000305175781 -53.5,77.30000305175781 C-55.29999923706055,78.30000305175781 -56.5,80 -57,81.9000015258789 C-57.599998474121094,83.9000015258789 -57.20000076293945,85.9000015258789 -56.29999923706055,87.69999694824219 C-56.29999923706055,87.69999694824219 -48.70000076293945,100.9000015258789 -48.70000076293945,100.9000015258789 C-47.70000076293945,102.69999694824219 -46,104 -44.099998474121094,104.5 C-43.400001525878906,104.5999984741211 -42.79999923706055,104.69999694824219 -42.099998474121094,104.69999694824219 C-40.79999923706055,104.69999694824219 -39.5,104.30000305175781 -38.29999923706055,103.69999694824219 C-38.29999923706055,103.69999694824219 -32.900001525878906,100.5999984741211 -32.900001525878906,100.5999984741211 C-31.5,99.80000305175781 -29.700000762939453,99.9000015258789 -28.5,100.9000015258789 C-25.200000762939453,103.5 -21.399999618530273,105.69999694824219 -17.5,107.30000305175781 C-16,107.9000015258789 -15,109.4000015258789 -15,111 C-15,111 -15,117.30000305175781 -15,117.30000305175781 C-15,121.5 -11.600000381469727,124.9000015258789 -7.400000095367432,124.9000015258789 C-7.400000095367432,124.9000015258789 7.900000095367432,124.9000015258789 7.900000095367432,124.9000015258789 C12.100000381469727,124.9000015258789 15.5,121.5 15.5,117.30000305175781 C15.5,117.30000305175781 15.5,111 15.5,111 C15.5,109.4000015258789 16.5,107.9000015258789 18,107.30000305175781 C22,105.69999694824219 25.700000762939453,103.5 29,100.9000015258789 C30.299999237060547,99.9000015258789 32,99.80000305175781 33.400001525878906,100.5999984741211 C33.400001525878906,100.5999984741211 38.79999923706055,103.69999694824219 38.79999923706055,103.69999694824219 C40,104.4000015258789 41.20000076293945,104.69999694824219 42.599998474121094,104.69999694824219 C43.29999923706055,104.69999694824219 43.900001525878906,104.5999984741211 44.599998474121094,104.5 C46.599998474121094,104 48.20000076293945,102.69999694824219 49.20000076293945,100.9000015258789 C49.20000076293945,100.9000015258789 56.79999923706055,87.69999694824219 56.79999923706055,87.69999694824219 C57.79999923706055,85.9000015258789 58.099998474121094,83.9000015258789 57.5,81.9000015258789z M0,87.80000305175781 C-13.300000190734863,87.80000305175781 -24,77.0999984741211 -24,63.79999923706055 C-24,50.5 -13.300000190734863,39.79999923706055 0,39.79999923706055 C13.300000190734863,39.79999923706055 24,50.5 24,63.79999923706055 C24,77.0999984741211 13.300000190734863,87.80000305175781 0,87.80000305175781z"></path><path fill="rgb(96,96,96)" fill-opacity="1" d=" M57.5,81.9000015258789 C57,80 55.70000076293945,78.30000305175781 54,77.30000305175781 C54,77.30000305175781 48.599998474121094,74.19999694824219 48.599998474121094,74.19999694824219 C47.20000076293945,73.4000015258789 46.400001525878906,71.80000305175781 46.599998474121094,70.19999694824219 C46.900001525878906,68.0999984741211 47,66 47,63.79999923706055 C47,61.599998474121094 46.79999923706055,59.5 46.599998474121094,57.400001525878906 C46.400001525878906,55.79999923706055 47.20000076293945,54.20000076293945 48.599998474121094,53.400001525878906 C48.599998474121094,53.400001525878906 54,50.29999923706055 54,50.29999923706055 C55.79999923706055,49.29999923706055 57,47.599998474121094 57.5,45.70000076293945 C58,43.70000076293945 57.70000076293945,41.70000076293945 56.79999923706055,39.900001525878906 C56.79999923706055,39.900001525878906 49.20000076293945,26.700000762939453 49.20000076293945,26.700000762939453 C48.20000076293945,24.899999618530273 46.5,23.600000381469727 44.599998474121094,23.100000381469727 C42.599998474121094,22.600000381469727 40.599998474121094,22.899999618530273 38.79999923706055,23.899999618530273 C38.79999923706055,23.899999618530273 33.400001525878906,27 33.400001525878906,27 C32,27.799999237060547 30.200000762939453,27.700000762939453 29,26.700000762939453 C25.700000762939453,24.100000381469727 21.899999618530273,21.899999618530273 18,20.299999237060547 C16.5,19.700000762939453 15.5,18.200000762939453 15.5,16.600000381469727 C15.5,16.600000381469727 15.5,10.300000190734863 15.5,10.300000190734863 C15.5,6.099999904632568 12.100000381469727,2.700000047683716 7.900000095367432,2.700000047683716 C7.900000095367432,2.700000047683716 -7.400000095367432,2.700000047683716 -7.400000095367432,2.700000047683716 C-11.600000381469727,2.700000047683716 -15,6.099999904632568 -15,10.300000190734863 C-15,10.300000190734863 -15,16.600000381469727 -15,16.600000381469727 C-15,18.200000762939453 -16,19.700000762939453 -17.5,20.299999237060547 C-21.5,21.899999618530273 -25.200000762939453,24.100000381469727 -28.5,26.700000762939453 C-29.799999237060547,27.700000762939453 -31.5,27.799999237060547 -32.900001525878906,27 C-32.900001525878906,27 -38.29999923706055,23.899999618530273 -38.29999923706055,23.899999618530273 C-40.099998474121094,22.899999618530273 -42.099998474121094,22.600000381469727 -44.099998474121094,23.100000381469727 C-46.099998474121094,23.600000381469727 -47.70000076293945,24.899999618530273 -48.70000076293945,26.700000762939453 C-48.70000076293945,26.700000762939453 -56.29999923706055,39.900001525878906 -56.29999923706055,39.900001525878906 C-57.29999923706055,41.70000076293945 -57.599998474121094,43.70000076293945 -57,45.70000076293945 C-56.5,47.70000076293945 -55.20000076293945,49.29999923706055 -53.5,50.29999923706055 C-53.5,50.29999923706055 -48.099998474121094,53.400001525878906 -48.099998474121094,53.400001525878906 C-46.70000076293945,54.20000076293945 -45.900001525878906,55.79999923706055 -46.099998474121094,57.400001525878906 C-46.400001525878906,59.5 -46.5,61.599998474121094 -46.5,63.79999923706055 C-46.5,66 -46.29999923706055,68.0999984741211 -46.099998474121094,70.19999694824219 C-45.900001525878906,71.80000305175781 -46.70000076293945,73.4000015258789 -48.099998474121094,74.19999694824219 C-48.099998474121094,74.19999694824219 -53.5,77.30000305175781 -53.5,77.30000305175781 C-55.29999923706055,78.30000305175781 -56.5,80 -57,81.9000015258789 C-57.599998474121094,83.9000015258789 -57.20000076293945,85.9000015258789 -56.29999923706055,87.69999694824219 C-56.29999923706055,87.69999694824219 -48.70000076293945,100.9000015258789 -48.70000076293945,100.9000015258789 C-47.70000076293945,102.69999694824219 -46,104 -44.099998474121094,104.5 C-43.400001525878906,104.5999984741211 -42.79999923706055,104.69999694824219 -42.099998474121094,104.69999694824219 C-40.79999923706055,104.69999694824219 -39.5,104.30000305175781 -38.29999923706055,103.69999694824219 C-38.29999923706055,103.69999694824219 -32.900001525878906,100.5999984741211 -32.900001525878906,100.5999984741211 C-31.5,99.80000305175781 -29.700000762939453,99.9000015258789 -28.5,100.9000015258789 C-25.200000762939453,103.5 -21.399999618530273,105.69999694824219 -17.5,107.30000305175781 C-16,107.9000015258789 -15,109.4000015258789 -15,111 C-15,111 -15,117.30000305175781 -15,117.30000305175781 C-15,121.5 -11.600000381469727,124.9000015258789 -7.400000095367432,124.9000015258789 C-7.400000095367432,124.9000015258789 7.900000095367432,124.9000015258789 7.900000095367432,124.9000015258789 C12.100000381469727,124.9000015258789 15.5,121.5 15.5,117.30000305175781 C15.5,117.30000305175781 15.5,111 15.5,111 C15.5,109.4000015258789 16.5,107.9000015258789 18,107.30000305175781 C22,105.69999694824219 25.700000762939453,103.5 29,100.9000015258789 C30.299999237060547,99.9000015258789 32,99.80000305175781 33.400001525878906,100.5999984741211 C33.400001525878906,100.5999984741211 38.79999923706055,103.69999694824219 38.79999923706055,103.69999694824219 C40,104.4000015258789 41.20000076293945,104.69999694824219 42.599998474121094,104.69999694824219 C43.29999923706055,104.69999694824219 43.900001525878906,104.5999984741211 44.599998474121094,104.5 C46.599998474121094,104 48.20000076293945,102.69999694824219 49.20000076293945,100.9000015258789 C49.20000076293945,100.9000015258789 56.79999923706055,87.69999694824219 56.79999923706055,87.69999694824219 C57.79999923706055,85.9000015258789 58.099998474121094,83.9000015258789 57.5,81.9000015258789z M0,87.80000305175781 C-13.300000190734863,87.80000305175781 -24,77.0999984741211 -24,63.79999923706055 C-24,50.5 -13.300000190734863,39.79999923706055 0,39.79999923706055 C13.300000190734863,39.79999923706055 24,50.5 24,63.79999923706055 C24,77.0999984741211 13.300000190734863,87.80000305175781 0,87.80000305175781z"></path></g></g></g></mask><clipPath id="__lottie_element_2502"><path d="M0,0 L500,0 L500,500 L0,500z"></path></clipPath><filter id="__lottie_element_2516" x="-100%" y="-100%" width="300%" height="300%"><feGaussianBlur result="filter_result_0" stdDeviation="52.5 52.5" edgeMode="wrap"></feGaussianBlur></filter></defs><g clip-path="url(#__lottie_element_2495)"><g mask="url(#__lottie_element_2501)" style="display: block;"><g filter="url(#__lottie_element_2516)" transform="matrix(-0.1674155443906784,-2.3941538333892822,2.3941538333892822,-0.1674155443906784,271.9410095214844,270.4599914550781)" opacity="1"><g class="design" opacity="1" transform="matrix(1,0,0,1,0,0)"><path fill="rgb(227,227,227)" fill-opacity="1" d=" M0,-250 C137.97500610351562,-250 250,-137.97500610351562 250,0 C250,137.97500610351562 137.97500610351562,250 0,250 C-137.97500610351562,250 -250,137.97500610351562 -250,0 C-250,-137.97500610351562 -137.97500610351562,-250 0,-250z"></path></g><g class="design" opacity="1" transform="matrix(1,0,0,1,113.24199676513672,-118.88400268554688)"><path fill="rgb(225,169,58)" fill-opacity="1" d=" M0,-176.5 C97.47799682617188,-176.5 176.5,-97.47799682617188 176.5,0 C176.5,97.47799682617188 97.47799682617188,176.5 0,176.5 C-43.948001861572266,176.5 -74.39600372314453,142.4429931640625 -105.29000091552734,115.86900329589844 C-142.92100524902344,83.5 -176.5,53.53099822998047 -176.5,0 C-176.5,-97.47799682617188 -97.47799682617188,-176.5 0,-176.5z"></path></g></g></g><g style="display: none;"><path></path></g></g></svg>