<svg xmlns="http://www.w3.org/2000/svg" viewBox="0 0 500 500" width="500" height="500" preserveAspectRatio="xMidYMid meet" style="width: 100%; height: 100%; transform: translate3d(0px, 0px, 0px); content-visibility: visible;"><defs><clipPath id="__lottie_element_2441"><rect width="500" height="500" x="0" y="0"></rect></clipPath><mask id="__lottie_element_2447" mask-type="alpha"><g clip-path="url(#__lottie_element_2448)" transform="matrix(1,0,0,1,0,0)" opacity="1" style="display: block;"><g transform="matrix(3.5999999046325684,0,0,3.5999999046325684,311.1999816894531,268)" opacity="1" style="display: block;"><g opacity="1" transform="matrix(1,0,0,1,0,0)"><path stroke-linecap="round" stroke-linejoin="round" fill-opacity="0" stroke="rgb(8,168,138)" stroke-opacity="1" stroke-width="3.5" d=" M-21.485000610351562,-8.104999542236328 C-21.485000610351562,-8.104999542236328 -21.477699279785156,-27.726003646850586 -21.477699279785156,-27.726003646850586 C-21.474002838134766,-37.66020202636719 -29.53679847717285,-45.72104263305664 -39.47099685668945,-45.71493148803711 C-39.47099685668945,-45.71493148803711 -42.500003814697266,-45.713069915771484 -42.500003814697266,-45.713069915771484 C-52.434200286865234,-45.70695877075195 -60.51299285888672,-38.561302185058594 -60.52899932861328,-29.76650047302246 C-60.52899932861328,-29.76650047302246 -60.55799865722656,-13.831000328063965 -60.55799865722656,-13.831000328063965"></path></g></g><g transform="matrix(3.5999999046325684,0,0,3.5999999046325684,311.1999816894531,268)" opacity="1" style="display: block;"><g opacity="1" transform="matrix(1,0,0,1,0,0)"><path stroke-linecap="round" stroke-linejoin="round" fill-opacity="0" stroke="rgb(8,168,138)" stroke-opacity="1" stroke-width="3.5" d=" M28.455873489379883,23.86600112915039 C28.4537353515625,29.936901092529297 23.522899627685547,34.86600112915039 17.45199966430664,34.86600112915039 C17.45199966430664,34.86600112915039 -17.45199966430664,34.86600112915039 -17.45199966430664,34.86600112915039 C-23.522899627685547,34.86600112915039 -28.4537353515625,29.936901092529297 -28.45587158203125,23.86600112915039 C-28.45587158203125,23.86600112915039 -28.46312713623047,3.2499992847442627 -28.46312713623047,3.2499992847442627 C-28.46526336669922,-2.8209002017974854 -28.463638305664062,-7.829537868499756 -28.45949935913086,-7.927499771118164 C-28.45949935913086,-7.927499771118164 -28.45949935913086,-7.927499771118164 -28.45949935913086,-7.927499771118164 C-28.455360412597656,-8.02546215057373 -28.371789932250977,-8.107687950134277 -28.272998809814453,-8.111000061035156 C-28.272998809814453,-8.111000061035156 -28.272998809814453,-8.111000061035156 -28.272998809814453,-8.111000061035156 C-28.174209594726562,-8.114311218261719 -23.164899826049805,-8.116999626159668 -17.0939998626709,-8.116999626159668 C-17.0939998626709,-8.116999626159668 17.0310001373291,-8.116999626159668 17.0310001373291,-8.116999626159668 C23.101900100708008,-8.116999626159668 28.125324249267578,-8.114311218261719 28.241500854492188,-8.111000061035156 C28.241500854492188,-8.111000061035156 28.241500854492188,-8.111000061035156 28.241500854492188,-8.111000061035156 C28.357675552368164,-8.107687950134277 28.455360412597656,-8.018516540527344 28.45949935913086,-7.911999702453613 C28.45949935913086,-7.911999702453613 28.45949935913086,-7.911999702453613 28.45949935913086,-7.911999702453613 C28.463638305664062,-7.805482864379883 28.46526336669922,-2.789900064468384 28.463125228881836,3.2809994220733643 C28.463125228881836,3.2809994220733643 28.455873489379883,23.86600112915039 28.455873489379883,23.86600112915039z"></path></g></g><g transform="matrix(-3.5999999046325684,0,0,-3.5999999046325684,310.73199462890625,364.0227966308594)" opacity="1" style="display: block;"><path fill="rgb(255,0,0)" fill-opacity="1" d=" M8.435999870300293,13.380499839782715 C8.435999870300293,18.036603927612305 4.655828475952148,21.816999435424805 0,21.816999435424805 C0,21.816999435424805 0,21.816999435424805 0,21.816999435424805 C-4.655828475952148,21.816999435424805 -8.435999870300293,18.036603927612305 -8.435999870300293,13.380499839782715 C-8.435999870300293,13.380499839782715 -8.435999870300293,13.380499839782715 -8.435999870300293,13.380499839782715 C-8.435999870300293,8.724395751953125 -4.655828475952148,4.943999767303467 0,4.943999767303467 C0,4.943999767303467 0,4.943999767303467 0,4.943999767303467 C4.655828475952148,4.943999767303467 8.435999870300293,8.724395751953125 8.435999870300293,13.380499839782715 C8.435999870300293,13.380499839782715 8.435999870300293,13.380499839782715 8.435999870300293,13.380499839782715z"></path><g opacity="1" transform="matrix(1,0,0,1,0,0)"><path stroke-linecap="round" stroke-linejoin="round" fill-opacity="0" stroke="rgb(8,168,138)" stroke-opacity="1" stroke-width="3.5" d=" M8.435999870300293,13.380499839782715 C8.435999870300293,18.036603927612305 4.655828475952148,21.816999435424805 0,21.816999435424805 C0,21.816999435424805 0,21.816999435424805 0,21.816999435424805 C-4.655828475952148,21.816999435424805 -8.435999870300293,18.036603927612305 -8.435999870300293,13.380499839782715 C-8.435999870300293,13.380499839782715 -8.435999870300293,13.380499839782715 -8.435999870300293,13.380499839782715 C-8.435999870300293,8.724395751953125 -4.655828475952148,4.943999767303467 0,4.943999767303467 C0,4.943999767303467 0,4.943999767303467 0,4.943999767303467 C4.655828475952148,4.943999767303467 8.435999870300293,8.724395751953125 8.435999870300293,13.380499839782715 C8.435999870300293,13.380499839782715 8.435999870300293,13.380499839782715 8.435999870300293,13.380499839782715z"></path></g></g></g></mask><clipPath id="__lottie_element_2448"><path d="M0,0 L500,0 L500,500 L0,500z"></path></clipPath><filter id="__lottie_element_2463" x="-100%" y="-100%" width="300%" height="300%"><feGaussianBlur result="filter_result_0" stdDeviation="52.5 52.5" edgeMode="wrap"></feGaussianBlur></filter></defs><g clip-path="url(#__lottie_element_2441)"><g mask="url(#__lottie_element_2447)" style="display: block;"><g filter="url(#__lottie_element_2463)" transform="matrix(-0.1674155443906784,-2.3941538333892822,2.3941538333892822,-0.1674155443906784,271.9410095214844,270.4599914550781)" opacity="1"><g class="design" opacity="1" transform="matrix(1,0,0,1,0,0)"><path fill="rgb(227,227,227)" fill-opacity="1" d=" M0,-250 C137.97500610351562,-250 250,-137.97500610351562 250,0 C250,137.97500610351562 137.97500610351562,250 0,250 C-137.97500610351562,250 -250,137.97500610351562 -250,0 C-250,-137.97500610351562 -137.97500610351562,-250 0,-250z"></path></g><g class="design" opacity="1" transform="matrix(1,0,0,1,113.24199676513672,-118.88400268554688)"><path fill="rgb(225,169,58)" fill-opacity="1" d=" M0,-176.5 C97.47799682617188,-176.5 176.5,-97.47799682617188 176.5,0 C176.5,97.47799682617188 97.47799682617188,176.5 0,176.5 C-43.948001861572266,176.5 -74.39600372314453,142.4429931640625 -105.29000091552734,115.86900329589844 C-142.92100524902344,83.5 -176.5,53.53099822998047 -176.5,0 C-176.5,-97.47799682617188 -97.47799682617188,-176.5 0,-176.5z"></path></g></g></g><g style="display: none;"><path></path></g></g></svg>