<svg xmlns="http://www.w3.org/2000/svg" viewBox="0 0 500 500" width="500" height="500" preserveAspectRatio="xMidYMid meet" style="width: 100%; height: 100%; transform: translate3d(0px, 0px, 0px); content-visibility: visible;"><defs><clipPath id="__lottie_element_1444"><rect width="500" height="500" x="0" y="0"></rect></clipPath><mask id="__lottie_element_1450" mask-type="alpha"><g clip-path="url(#__lottie_element_1451)" transform="matrix(1,0,0,1,0,0)" opacity="1" style="display: block;"><g mask="url(#__lottie_element_1457)" style="display: none;"><g><g><path></path><path stroke-linecap="butt" stroke-linejoin="miter" fill-opacity="0" stroke-miterlimit="4" style="mix-blend-mode: soft-light;"></path></g></g></g><g transform="matrix(1,0,0,1,250,250)" opacity="1" style="display: block;"><g opacity="1" transform="matrix(1,0,0,1,0,0)"><path stroke-linecap="round" stroke-linejoin="round" fill-opacity="0" stroke="rgb(18,19,49)" stroke-opacity="1" stroke-width="12" d=" M52.16999816894531,160.28900146484375 C52.16999816894531,160.28900146484375 32.231998443603516,143.125 32.231998443603516,143.125 C32.231998443603516,143.125 24.63800048828125,114.07499694824219 24.63800048828125,114.07499694824219 C24.63800048828125,114.07499694824219 -24.63800048828125,114.07499694824219 -24.63800048828125,114.07499694824219 C-24.63800048828125,114.07499694824219 -32.233001708984375,143.125 -32.233001708984375,143.125 C-32.233001708984375,143.125 -52.16999816894531,160.28900146484375 -52.16999816894531,160.28900146484375 C-52.16999816894531,160.28900146484375 52.16999816894531,160.28900146484375 52.16999816894531,160.28900146484375z"></path></g><g opacity="1" transform="matrix(1,0,0,1,0,0)"><path stroke-linecap="round" stroke-linejoin="round" fill-opacity="0" stroke="rgb(18,19,49)" stroke-opacity="1" stroke-width="12" d=" M162.0970001220703,55.1619987487793 C162.0970001220703,55.1619987487793 -162.0970001220703,55.1619987487793 -162.0970001220703,55.1619987487793 C-162.0970001220703,55.1619987487793 -162.0970001220703,-133.9219970703125 -162.0970001220703,-133.9219970703125 C-162.0970001220703,-133.9219970703125 162.0970001220703,-133.9219970703125 162.0970001220703,-133.9219970703125 C162.0970001220703,-133.9219970703125 162.0970001220703,55.1619987487793 162.0970001220703,55.1619987487793z M168.572998046875,114.1719970703125 C168.572998046875,114.1719970703125 -168.572998046875,114.1719970703125 -168.572998046875,114.1719970703125 C-179.302001953125,114.1719970703125 -188,105.4739990234375 -188,94.74500274658203 C-188,94.74500274658203 -188,-140.3990020751953 -188,-140.3990020751953 C-188,-151.1280059814453 -179.302001953125,-159.8260040283203 -168.572998046875,-159.8260040283203 C-168.572998046875,-159.8260040283203 168.572998046875,-159.8260040283203 168.572998046875,-159.8260040283203 C179.302001953125,-159.8260040283203 188,-151.1280059814453 188,-140.3990020751953 C188,-140.3990020751953 188,94.74500274658203 188,94.74500274658203 C188,105.4739990234375 179.302001953125,114.1719970703125 168.572998046875,114.1719970703125z"></path></g><g opacity="1" transform="matrix(1,0,0,1,0,0)"><path fill="rgb(18,19,49)" fill-opacity="1" d=" M11.548999786376953,84.76399993896484 C11.548999786376953,91.14199829101562 6.377999782562256,96.31300354003906 0,96.31300354003906 C-6.377999782562256,96.31300354003906 -11.548999786376953,91.14199829101562 -11.548999786376953,84.76399993896484 C-11.548999786376953,78.38600158691406 -6.377999782562256,73.21499633789062 0,73.21499633789062 C6.377999782562256,73.21499633789062 11.548999786376953,78.38600158691406 11.548999786376953,84.76399993896484z"></path></g></g></g></mask><clipPath id="__lottie_element_1451"><path d="M0,0 L500,0 L500,500 L0,500z"></path></clipPath><mask id="__lottie_element_1457" mask-type="alpha"><g transform="matrix(1,0,0,1,250,250)" opacity="1" style="display: block;"><path fill="rgb(255,0,0)" fill-opacity="1" d=" M162.0970001220703,55.1619987487793 C162.0970001220703,55.1619987487793 -162.0970001220703,55.1619987487793 -162.0970001220703,55.1619987487793 C-162.0970001220703,55.1619987487793 -162.0970001220703,-133.9219970703125 -162.0970001220703,-133.9219970703125 C-162.0970001220703,-133.9219970703125 162.0970001220703,-133.9219970703125 162.0970001220703,-133.9219970703125 C162.0970001220703,-133.9219970703125 162.0970001220703,55.1619987487793 162.0970001220703,55.1619987487793z"></path><g opacity="1" transform="matrix(1,0,0,1,0,0)"><path stroke-linecap="round" stroke-linejoin="round" fill-opacity="0" stroke="rgb(18,19,49)" stroke-opacity="1" stroke-width="12" d=" M162.0970001220703,55.1619987487793 C162.0970001220703,55.1619987487793 -162.0970001220703,55.1619987487793 -162.0970001220703,55.1619987487793 C-162.0970001220703,55.1619987487793 -162.0970001220703,-133.9219970703125 -162.0970001220703,-133.9219970703125 C-162.0970001220703,-133.9219970703125 162.0970001220703,-133.9219970703125 162.0970001220703,-133.9219970703125 C162.0970001220703,-133.9219970703125 162.0970001220703,55.1619987487793 162.0970001220703,55.1619987487793z"></path></g></g></mask><filter id="__lottie_element_1465" x="-100%" y="-100%" width="300%" height="300%"><feGaussianBlur result="filter_result_0" stdDeviation="52.5 52.5" edgeMode="wrap"></feGaussianBlur></filter></defs><g clip-path="url(#__lottie_element_1444)"><g mask="url(#__lottie_element_1450)" style="display: block;"><g filter="url(#__lottie_element_1465)" transform="matrix(-0.1674155443906784,-2.3941538333892822,2.3941538333892822,-0.1674155443906784,271.9410095214844,270.4599914550781)" opacity="1"><g class="design" opacity="1" transform="matrix(1,0,0,1,0,0)"><path fill="rgb(225,169,58)" fill-opacity="1" d=" M0,-250 C137.97500610351562,-250 250,-137.97500610351562 250,0 C250,137.97500610351562 137.97500610351562,250 0,250 C-137.97500610351562,250 -250,137.97500610351562 -250,0 C-250,-137.97500610351562 -137.97500610351562,-250 0,-250z"></path></g><g class="design" opacity="1" transform="matrix(1,0,0,1,113.24199676513672,-118.88400268554688)"><path fill="rgb(206,211,230)" fill-opacity="1" d=" M0,-176.5 C97.47799682617188,-176.5 176.5,-97.47799682617188 176.5,0 C176.5,97.47799682617188 97.47799682617188,176.5 0,176.5 C-43.948001861572266,176.5 -74.39600372314453,142.4429931640625 -105.29000091552734,115.86900329589844 C-142.92100524902344,83.5 -176.5,53.53099822998047 -176.5,0 C-176.5,-97.47799682617188 -97.47799682617188,-176.5 0,-176.5z"></path></g></g></g><g style="display: none;"><path></path></g></g></svg>