<svg xmlns="http://www.w3.org/2000/svg" viewBox="0 0 500 500" width="500" height="500" preserveAspectRatio="xMidYMid meet" style="width: 100%; height: 100%; transform: translate3d(0px, 0px, 0px); content-visibility: visible;"><defs><clipPath id="__lottie_element_1609"><rect width="500" height="500" x="0" y="0"></rect></clipPath><mask id="__lottie_element_1615" mask-type="alpha"><g clip-path="url(#__lottie_element_1616)" transform="matrix(1,0,0,1,0,0)" opacity="1" style="display: block;"><g transform="matrix(3.5999999046325684,0,0,3.5999999046325684,250,268)" opacity="1" style="display: block;"><g opacity="1" transform="matrix(1,0,0,1,0,0)"><path stroke-linecap="round" stroke-linejoin="round" fill-opacity="0" stroke="rgb(8,168,138)" stroke-opacity="1" stroke-width="3.5" d=" M-21.4060001373291,-8.472000122070312 C-21.4060001373291,-8.472000122070312 -21.398000717163086,-25.766000747680664 -21.398000717163086,-25.766000747680664 C-21.398000717163086,-34.722999572753906 -14.13700008392334,-41.98400115966797 -5.179999828338623,-41.98400115966797 C-5.179999828338623,-41.98400115966797 5.10099983215332,-41.98400115966797 5.10099983215332,-41.98400115966797 C14.057999610900879,-41.98400115966797 21.319000244140625,-34.722999572753906 21.319000244140625,-25.766000747680664 C21.319000244140625,-25.766000747680664 21.31100082397461,-8.472000122070312 21.31100082397461,-8.472000122070312"></path></g></g><g transform="matrix(3.5999999046325684,0,0,3.5999999046325684,250,268)" opacity="1" style="display: block;"><g opacity="1" transform="matrix(1,0,0,1,0,0)"><path stroke-linecap="round" stroke-linejoin="round" fill-opacity="0" stroke="rgb(8,168,138)" stroke-opacity="1" stroke-width="3.5" d=" M16.111000061035156,35.013999938964844 C16.111000061035156,35.013999938964844 -16.183000564575195,34.95399856567383 -16.183000564575195,34.95399856567383 C-22.923999786376953,34.95399856567383 -28.43899917602539,29.440000534057617 -28.43899917602539,22.698999404907227 C-28.43899917602539,22.698999404907227 -28.472000122070312,-8.157999992370605 -28.472000122070312,-8.157999992370605 C-28.472000122070312,-8.157999992370605 28.33300018310547,-8.098999977111816 28.33300018310547,-8.098999977111816 C28.33300018310547,-8.098999977111816 28.367000579833984,22.757999420166016 28.367000579833984,22.757999420166016 C28.367000579833984,29.499000549316406 22.851999282836914,35.013999938964844 16.111000061035156,35.013999938964844z"></path></g></g><g transform="matrix(0,3.239999771118164,-3.239999771118164,0,293.3511962890625,316.16796875)" opacity="1" style="display: block;"><path fill="rgb(255,0,0)" fill-opacity="1" d=" M8.435999870300293,21.816999435424805 C8.435999870300293,21.816999435424805 -8.435999870300293,21.816999435424805 -8.435999870300293,21.816999435424805 C-8.435999870300293,21.816999435424805 -8.435999870300293,4.943999767303467 -8.435999870300293,4.943999767303467 C-8.435999870300293,4.943999767303467 8.435999870300293,4.943999767303467 8.435999870300293,4.943999767303467 C8.435999870300293,4.943999767303467 8.435999870300293,21.816999435424805 8.435999870300293,21.816999435424805z"></path><g opacity="1" transform="matrix(1,0,0,1,0,0)"><path stroke-linecap="round" stroke-linejoin="round" fill-opacity="0" stroke="rgb(8,168,138)" stroke-opacity="1" stroke-width="3.5" d=" M8.435999870300293,21.816999435424805 C8.435999870300293,21.816999435424805 -8.435999870300293,21.816999435424805 -8.435999870300293,21.816999435424805 C-8.435999870300293,21.816999435424805 -8.435999870300293,4.943999767303467 -8.435999870300293,4.943999767303467 C-8.435999870300293,4.943999767303467 8.435999870300293,4.943999767303467 8.435999870300293,4.943999767303467 C8.435999870300293,4.943999767303467 8.435999870300293,21.816999435424805 8.435999870300293,21.816999435424805z"></path></g></g></g></mask><clipPath id="__lottie_element_1616"><path d="M0,0 L500,0 L500,500 L0,500z"></path></clipPath><filter id="__lottie_element_1631" x="-100%" y="-100%" width="300%" height="300%"><feGaussianBlur result="filter_result_0" stdDeviation="52.5 52.5" edgeMode="wrap"></feGaussianBlur></filter></defs><g clip-path="url(#__lottie_element_1609)"><g mask="url(#__lottie_element_1615)" style="display: block;"><g filter="url(#__lottie_element_1631)" transform="matrix(-0.1674155443906784,-2.3941538333892822,2.3941538333892822,-0.1674155443906784,271.9410095214844,270.4599914550781)" opacity="1"><g class="design" opacity="1" transform="matrix(1,0,0,1,0,0)"><path fill="rgb(225,169,58)" fill-opacity="1" d=" M0,-250 C137.97500610351562,-250 250,-137.97500610351562 250,0 C250,137.97500610351562 137.97500610351562,250 0,250 C-137.97500610351562,250 -250,137.97500610351562 -250,0 C-250,-137.97500610351562 -137.97500610351562,-250 0,-250z"></path></g><g class="design" opacity="1" transform="matrix(1,0,0,1,113.24199676513672,-118.88400268554688)"><path fill="rgb(206,211,230)" fill-opacity="1" d=" M0,-176.5 C97.47799682617188,-176.5 176.5,-97.47799682617188 176.5,0 C176.5,97.47799682617188 97.47799682617188,176.5 0,176.5 C-43.948001861572266,176.5 -74.39600372314453,142.4429931640625 -105.29000091552734,115.86900329589844 C-142.92100524902344,83.5 -176.5,53.53099822998047 -176.5,0 C-176.5,-97.47799682617188 -97.47799682617188,-176.5 0,-176.5z"></path></g></g></g><g style="display: none;"><path></path></g></g></svg>