<svg xmlns="http://www.w3.org/2000/svg" viewBox="0 0 500 500" width="500" height="500" preserveAspectRatio="xMidYMid meet" style="width: 100%; height: 100%; transform: translate3d(0px, 0px, 0px); content-visibility: visible;"><defs><clipPath id="__lottie_element_1671"><rect width="500" height="500" x="0" y="0"></rect></clipPath><mask id="__lottie_element_1677" mask-type="alpha"><g clip-path="url(#__lottie_element_1678)" transform="matrix(1,0,0,1,0,0)" opacity="1" style="display: block;"><g transform="matrix(1,0,0,1,0,0.0000152587890625)" opacity="1" style="display: block;"><g opacity="1" transform="matrix(1,0,0,1,250,417.7550048828125)"><path stroke-linecap="round" stroke-linejoin="round" fill-opacity="0" stroke="rgb(18,19,49)" stroke-opacity="1" stroke-width="6" d=" M-10.972000122070312,-19.42799949645996 C-10.972000122070312,-19.42799949645996 10.972000122070312,-19.42799949645996 10.972000122070312,-19.42799949645996 C23.090999603271484,-19.42799949645996 32.915000915527344,-9.604000091552734 32.915000915527344,2.515000104904175 C32.915000915527344,2.515000104904175 32.915000915527344,9.855999946594238 32.915000915527344,9.855999946594238 C32.915000915527344,11.869999885559082 31.4060001373291,13.564000129699707 29.405000686645508,13.795000076293945 C29.405000686645508,13.795000076293945 21.72599983215332,14.682999610900879 21.72599983215332,14.682999610900879 C19.628000259399414,14.925999641418457 17.576000213623047,15.461999893188477 15.626999855041504,16.277000427246094 C15.626999855041504,16.277000427246094 15.626999855041504,16.277000427246094 15.626999855041504,16.277000427246094 C5.604000091552734,20.466999053955078 -5.677999973297119,20.479000091552734 -15.710000038146973,16.30900001525879 C-15.710000038146973,16.30900001525879 -15.762999534606934,16.288000106811523 -15.762999534606934,16.288000106811523 C-17.797000885009766,15.442999839782715 -19.937999725341797,14.885000228881836 -22.125999450683594,14.633000373840332 C-22.125999450683594,14.633000373840332 -29.40399932861328,13.793999671936035 -29.40399932861328,13.793999671936035 C-31.405000686645508,13.562999725341797 -32.915000915527344,11.869000434875488 -32.915000915527344,9.854999542236328 C-32.915000915527344,9.854999542236328 -32.915000915527344,2.515000104904175 -32.915000915527344,2.515000104904175 C-32.915000915527344,-9.604000091552734 -23.090999603271484,-19.42799949645996 -10.972000122070312,-19.42799949645996z"></path><path fill="rgb(255,0,0)" fill-opacity="1" d=" M-10.972000122070312,-19.42799949645996 C-10.972000122070312,-19.42799949645996 10.972000122070312,-19.42799949645996 10.972000122070312,-19.42799949645996 C23.090999603271484,-19.42799949645996 32.915000915527344,-9.604000091552734 32.915000915527344,2.515000104904175 C32.915000915527344,2.515000104904175 32.915000915527344,9.855999946594238 32.915000915527344,9.855999946594238 C32.915000915527344,11.869999885559082 31.4060001373291,13.564000129699707 29.405000686645508,13.795000076293945 C29.405000686645508,13.795000076293945 21.72599983215332,14.682999610900879 21.72599983215332,14.682999610900879 C19.628000259399414,14.925999641418457 17.576000213623047,15.461999893188477 15.626999855041504,16.277000427246094 C15.626999855041504,16.277000427246094 15.626999855041504,16.277000427246094 15.626999855041504,16.277000427246094 C5.604000091552734,20.466999053955078 -5.677999973297119,20.479000091552734 -15.710000038146973,16.30900001525879 C-15.710000038146973,16.30900001525879 -15.762999534606934,16.288000106811523 -15.762999534606934,16.288000106811523 C-17.797000885009766,15.442999839782715 -19.937999725341797,14.885000228881836 -22.125999450683594,14.633000373840332 C-22.125999450683594,14.633000373840332 -29.40399932861328,13.793999671936035 -29.40399932861328,13.793999671936035 C-31.405000686645508,13.562999725341797 -32.915000915527344,11.869000434875488 -32.915000915527344,9.854999542236328 C-32.915000915527344,9.854999542236328 -32.915000915527344,2.515000104904175 -32.915000915527344,2.515000104904175 C-32.915000915527344,-9.604000091552734 -23.090999603271484,-19.42799949645996 -10.972000122070312,-19.42799949645996z"></path></g><g opacity="1" transform="matrix(1,0,0,1,250,358.3169860839844)"><path stroke-linecap="round" stroke-linejoin="round" fill-opacity="0" stroke="rgb(18,19,49)" stroke-opacity="1" stroke-width="6" d=" M-0.5130000114440918,-23.132999420166016 C-0.5130000114440918,-23.132999420166016 0.5130000114440918,-23.132999420166016 0.5130000114440918,-23.132999420166016 C9.430999755859375,-23.132999420166016 16.572999954223633,-15.73900032043457 16.26300048828125,-6.826000213623047 C16.26300048828125,-6.826000213623047 15.75,7.921000003814697 15.75,7.921000003814697 C15.454999923706055,16.4060001373291 8.489999771118164,23.132999420166016 0,23.132999420166016 C0,23.132999420166016 0,23.132999420166016 0,23.132999420166016 C-8.489999771118164,23.132999420166016 -15.454999923706055,16.4060001373291 -15.75,7.921000003814697 C-15.75,7.921000003814697 -16.26300048828125,-6.826000213623047 -16.26300048828125,-6.826000213623047 C-16.572999954223633,-15.73900032043457 -9.430999755859375,-23.132999420166016 -0.5130000114440918,-23.132999420166016z"></path><path fill="rgb(255,0,0)" fill-opacity="1" d=" M-0.5130000114440918,-23.132999420166016 C-0.5130000114440918,-23.132999420166016 0.5130000114440918,-23.132999420166016 0.5130000114440918,-23.132999420166016 C9.430999755859375,-23.132999420166016 16.572999954223633,-15.73900032043457 16.26300048828125,-6.826000213623047 C16.26300048828125,-6.826000213623047 15.75,7.921000003814697 15.75,7.921000003814697 C15.454999923706055,16.4060001373291 8.489999771118164,23.132999420166016 0,23.132999420166016 C0,23.132999420166016 0,23.132999420166016 0,23.132999420166016 C-8.489999771118164,23.132999420166016 -15.454999923706055,16.4060001373291 -15.75,7.921000003814697 C-15.75,7.921000003814697 -16.26300048828125,-6.826000213623047 -16.26300048828125,-6.826000213623047 C-16.572999954223633,-15.73900032043457 -9.430999755859375,-23.132999420166016 -0.5130000114440918,-23.132999420166016z"></path></g></g><g transform="matrix(1,0,0,1,0,0)" opacity="1" style="display: block;"><g opacity="1" transform="matrix(1,0,0,1,405.1990051269531,280.5719909667969)"><path stroke-linecap="round" stroke-linejoin="round" fill-opacity="0" stroke="rgb(18,19,49)" stroke-opacity="1" stroke-width="6" d=" M-10.972000122070312,-19.42799949645996 C-10.972000122070312,-19.42799949645996 10.972000122070312,-19.42799949645996 10.972000122070312,-19.42799949645996 C23.090999603271484,-19.42799949645996 32.915000915527344,-9.604000091552734 32.915000915527344,2.515000104904175 C32.915000915527344,2.515000104904175 32.915000915527344,9.855999946594238 32.915000915527344,9.855999946594238 C32.915000915527344,11.869999885559082 31.4060001373291,13.564000129699707 29.405000686645508,13.795000076293945 C29.405000686645508,13.795000076293945 21.72599983215332,14.682999610900879 21.72599983215332,14.682999610900879 C19.628000259399414,14.925999641418457 17.576000213623047,15.461999893188477 15.626999855041504,16.277000427246094 C15.626999855041504,16.277000427246094 15.626999855041504,16.277000427246094 15.626999855041504,16.277000427246094 C5.604000091552734,20.466999053955078 -5.677999973297119,20.479000091552734 -15.710000038146973,16.30900001525879 C-15.710000038146973,16.30900001525879 -15.762999534606934,16.288000106811523 -15.762999534606934,16.288000106811523 C-17.797000885009766,15.442999839782715 -19.937999725341797,14.885000228881836 -22.125999450683594,14.633000373840332 C-22.125999450683594,14.633000373840332 -29.40399932861328,13.793999671936035 -29.40399932861328,13.793999671936035 C-31.405000686645508,13.562999725341797 -32.915000915527344,11.869000434875488 -32.915000915527344,9.854999542236328 C-32.915000915527344,9.854999542236328 -32.915000915527344,2.515000104904175 -32.915000915527344,2.515000104904175 C-32.915000915527344,-9.604000091552734 -23.090999603271484,-19.42799949645996 -10.972000122070312,-19.42799949645996z"></path><path fill="rgb(255,0,0)" fill-opacity="1" d=" M-10.972000122070312,-19.42799949645996 C-10.972000122070312,-19.42799949645996 10.972000122070312,-19.42799949645996 10.972000122070312,-19.42799949645996 C23.090999603271484,-19.42799949645996 32.915000915527344,-9.604000091552734 32.915000915527344,2.515000104904175 C32.915000915527344,2.515000104904175 32.915000915527344,9.855999946594238 32.915000915527344,9.855999946594238 C32.915000915527344,11.869999885559082 31.4060001373291,13.564000129699707 29.405000686645508,13.795000076293945 C29.405000686645508,13.795000076293945 21.72599983215332,14.682999610900879 21.72599983215332,14.682999610900879 C19.628000259399414,14.925999641418457 17.576000213623047,15.461999893188477 15.626999855041504,16.277000427246094 C15.626999855041504,16.277000427246094 15.626999855041504,16.277000427246094 15.626999855041504,16.277000427246094 C5.604000091552734,20.466999053955078 -5.677999973297119,20.479000091552734 -15.710000038146973,16.30900001525879 C-15.710000038146973,16.30900001525879 -15.762999534606934,16.288000106811523 -15.762999534606934,16.288000106811523 C-17.797000885009766,15.442999839782715 -19.937999725341797,14.885000228881836 -22.125999450683594,14.633000373840332 C-22.125999450683594,14.633000373840332 -29.40399932861328,13.793999671936035 -29.40399932861328,13.793999671936035 C-31.405000686645508,13.562999725341797 -32.915000915527344,11.869000434875488 -32.915000915527344,9.854999542236328 C-32.915000915527344,9.854999542236328 -32.915000915527344,2.515000104904175 -32.915000915527344,2.515000104904175 C-32.915000915527344,-9.604000091552734 -23.090999603271484,-19.42799949645996 -10.972000122070312,-19.42799949645996z"></path></g><g opacity="1" transform="matrix(1,0,0,1,405.1990051269531,221.13299560546875)"><path stroke-linecap="round" stroke-linejoin="round" fill-opacity="0" stroke="rgb(18,19,49)" stroke-opacity="1" stroke-width="6" d=" M-0.5130000114440918,-23.132999420166016 C-0.5130000114440918,-23.132999420166016 0.5130000114440918,-23.132999420166016 0.5130000114440918,-23.132999420166016 C9.430999755859375,-23.132999420166016 16.572999954223633,-15.73900032043457 16.26300048828125,-6.826000213623047 C16.26300048828125,-6.826000213623047 15.75,7.921000003814697 15.75,7.921000003814697 C15.454999923706055,16.4060001373291 8.489999771118164,23.132999420166016 0,23.132999420166016 C0,23.132999420166016 0,23.132999420166016 0,23.132999420166016 C-8.489999771118164,23.132999420166016 -15.454999923706055,16.4060001373291 -15.75,7.921000003814697 C-15.75,7.921000003814697 -16.26300048828125,-6.826000213623047 -16.26300048828125,-6.826000213623047 C-16.572999954223633,-15.73900032043457 -9.430999755859375,-23.132999420166016 -0.5130000114440918,-23.132999420166016z"></path><path fill="rgb(255,0,0)" fill-opacity="1" d=" M-0.5130000114440918,-23.132999420166016 C-0.5130000114440918,-23.132999420166016 0.5130000114440918,-23.132999420166016 0.5130000114440918,-23.132999420166016 C9.430999755859375,-23.132999420166016 16.572999954223633,-15.73900032043457 16.26300048828125,-6.826000213623047 C16.26300048828125,-6.826000213623047 15.75,7.921000003814697 15.75,7.921000003814697 C15.454999923706055,16.4060001373291 8.489999771118164,23.132999420166016 0,23.132999420166016 C0,23.132999420166016 0,23.132999420166016 0,23.132999420166016 C-8.489999771118164,23.132999420166016 -15.454999923706055,16.4060001373291 -15.75,7.921000003814697 C-15.75,7.921000003814697 -16.26300048828125,-6.826000213623047 -16.26300048828125,-6.826000213623047 C-16.572999954223633,-15.73900032043457 -9.430999755859375,-23.132999420166016 -0.5130000114440918,-23.132999420166016z"></path></g></g><g transform="matrix(1,0,0,1,0.5,0)" opacity="1" style="display: block;"><g opacity="1" transform="matrix(1,0,0,1,250,143.4290008544922)"><path stroke-linecap="round" stroke-linejoin="round" fill-opacity="0" stroke="rgb(18,19,49)" stroke-opacity="1" stroke-width="6" d=" M-10.972000122070312,-19.42799949645996 C-10.972000122070312,-19.42799949645996 10.972000122070312,-19.42799949645996 10.972000122070312,-19.42799949645996 C23.090999603271484,-19.42799949645996 32.915000915527344,-9.604000091552734 32.915000915527344,2.515000104904175 C32.915000915527344,2.515000104904175 32.915000915527344,9.855999946594238 32.915000915527344,9.855999946594238 C32.915000915527344,11.869999885559082 31.4060001373291,13.564000129699707 29.405000686645508,13.795000076293945 C29.405000686645508,13.795000076293945 21.72599983215332,14.682999610900879 21.72599983215332,14.682999610900879 C19.628000259399414,14.925999641418457 17.576000213623047,15.461999893188477 15.626999855041504,16.277000427246094 C15.626999855041504,16.277000427246094 15.626999855041504,16.277000427246094 15.626999855041504,16.277000427246094 C5.604000091552734,20.466999053955078 -5.677999973297119,20.479000091552734 -15.710000038146973,16.30900001525879 C-15.710000038146973,16.30900001525879 -15.762999534606934,16.288000106811523 -15.762999534606934,16.288000106811523 C-17.797000885009766,15.442999839782715 -19.937999725341797,14.885000228881836 -22.125999450683594,14.633000373840332 C-22.125999450683594,14.633000373840332 -29.40399932861328,13.793999671936035 -29.40399932861328,13.793999671936035 C-31.405000686645508,13.562999725341797 -32.915000915527344,11.869000434875488 -32.915000915527344,9.854999542236328 C-32.915000915527344,9.854999542236328 -32.915000915527344,2.515000104904175 -32.915000915527344,2.515000104904175 C-32.915000915527344,-9.604000091552734 -23.090999603271484,-19.42799949645996 -10.972000122070312,-19.42799949645996z"></path><path fill="rgb(255,0,0)" fill-opacity="1" d=" M-10.972000122070312,-19.42799949645996 C-10.972000122070312,-19.42799949645996 10.972000122070312,-19.42799949645996 10.972000122070312,-19.42799949645996 C23.090999603271484,-19.42799949645996 32.915000915527344,-9.604000091552734 32.915000915527344,2.515000104904175 C32.915000915527344,2.515000104904175 32.915000915527344,9.855999946594238 32.915000915527344,9.855999946594238 C32.915000915527344,11.869999885559082 31.4060001373291,13.564000129699707 29.405000686645508,13.795000076293945 C29.405000686645508,13.795000076293945 21.72599983215332,14.682999610900879 21.72599983215332,14.682999610900879 C19.628000259399414,14.925999641418457 17.576000213623047,15.461999893188477 15.626999855041504,16.277000427246094 C15.626999855041504,16.277000427246094 15.626999855041504,16.277000427246094 15.626999855041504,16.277000427246094 C5.604000091552734,20.466999053955078 -5.677999973297119,20.479000091552734 -15.710000038146973,16.30900001525879 C-15.710000038146973,16.30900001525879 -15.762999534606934,16.288000106811523 -15.762999534606934,16.288000106811523 C-17.797000885009766,15.442999839782715 -19.937999725341797,14.885000228881836 -22.125999450683594,14.633000373840332 C-22.125999450683594,14.633000373840332 -29.40399932861328,13.793999671936035 -29.40399932861328,13.793999671936035 C-31.405000686645508,13.562999725341797 -32.915000915527344,11.869000434875488 -32.915000915527344,9.854999542236328 C-32.915000915527344,9.854999542236328 -32.915000915527344,2.515000104904175 -32.915000915527344,2.515000104904175 C-32.915000915527344,-9.604000091552734 -23.090999603271484,-19.42799949645996 -10.972000122070312,-19.42799949645996z"></path></g><g opacity="1" transform="matrix(1,0,0,1,250,83.98999786376953)"><path stroke-linecap="round" stroke-linejoin="round" fill-opacity="0" stroke="rgb(18,19,49)" stroke-opacity="1" stroke-width="6" d=" M-0.5130000114440918,-23.132999420166016 C-0.5130000114440918,-23.132999420166016 0.5130000114440918,-23.132999420166016 0.5130000114440918,-23.132999420166016 C9.430999755859375,-23.132999420166016 16.572999954223633,-15.73900032043457 16.26300048828125,-6.826000213623047 C16.26300048828125,-6.826000213623047 15.75,7.921000003814697 15.75,7.921000003814697 C15.454999923706055,16.4060001373291 8.489999771118164,23.132999420166016 0,23.132999420166016 C0,23.132999420166016 0,23.132999420166016 0,23.132999420166016 C-8.489999771118164,23.132999420166016 -15.454999923706055,16.4060001373291 -15.75,7.921000003814697 C-15.75,7.921000003814697 -16.26300048828125,-6.826000213623047 -16.26300048828125,-6.826000213623047 C-16.572999954223633,-15.73900032043457 -9.430999755859375,-23.132999420166016 -0.5130000114440918,-23.132999420166016z"></path><path fill="rgb(255,0,0)" fill-opacity="1" d=" M-0.5130000114440918,-23.132999420166016 C-0.5130000114440918,-23.132999420166016 0.5130000114440918,-23.132999420166016 0.5130000114440918,-23.132999420166016 C9.430999755859375,-23.132999420166016 16.572999954223633,-15.73900032043457 16.26300048828125,-6.826000213623047 C16.26300048828125,-6.826000213623047 15.75,7.921000003814697 15.75,7.921000003814697 C15.454999923706055,16.4060001373291 8.489999771118164,23.132999420166016 0,23.132999420166016 C0,23.132999420166016 0,23.132999420166016 0,23.132999420166016 C-8.489999771118164,23.132999420166016 -15.454999923706055,16.4060001373291 -15.75,7.921000003814697 C-15.75,7.921000003814697 -16.26300048828125,-6.826000213623047 -16.26300048828125,-6.826000213623047 C-16.572999954223633,-15.73900032043457 -9.430999755859375,-23.132999420166016 -0.5130000114440918,-23.132999420166016z"></path></g></g><g transform="matrix(1,0,0,1,0,0)" opacity="1" style="display: block;"><g opacity="1" transform="matrix(1,0,0,1,96.2229995727539,280.5719909667969)"><path stroke-linecap="round" stroke-linejoin="round" fill-opacity="0" stroke="rgb(18,19,49)" stroke-opacity="1" stroke-width="6" d=" M-10.972000122070312,-19.42799949645996 C-10.972000122070312,-19.42799949645996 10.972000122070312,-19.42799949645996 10.972000122070312,-19.42799949645996 C23.090999603271484,-19.42799949645996 32.915000915527344,-9.604000091552734 32.915000915527344,2.515000104904175 C32.915000915527344,2.515000104904175 32.915000915527344,9.855999946594238 32.915000915527344,9.855999946594238 C32.915000915527344,11.869999885559082 31.4060001373291,13.564000129699707 29.405000686645508,13.795000076293945 C29.405000686645508,13.795000076293945 21.72599983215332,14.682999610900879 21.72599983215332,14.682999610900879 C19.628000259399414,14.925999641418457 17.576000213623047,15.461999893188477 15.626999855041504,16.277000427246094 C15.626999855041504,16.277000427246094 15.626999855041504,16.277000427246094 15.626999855041504,16.277000427246094 C5.604000091552734,20.466999053955078 -5.677999973297119,20.479000091552734 -15.710000038146973,16.30900001525879 C-15.710000038146973,16.30900001525879 -15.762999534606934,16.288000106811523 -15.762999534606934,16.288000106811523 C-17.797000885009766,15.442999839782715 -19.937999725341797,14.885000228881836 -22.125999450683594,14.633000373840332 C-22.125999450683594,14.633000373840332 -29.40399932861328,13.793999671936035 -29.40399932861328,13.793999671936035 C-31.405000686645508,13.562999725341797 -32.915000915527344,11.869000434875488 -32.915000915527344,9.854999542236328 C-32.915000915527344,9.854999542236328 -32.915000915527344,2.515000104904175 -32.915000915527344,2.515000104904175 C-32.915000915527344,-9.604000091552734 -23.090999603271484,-19.42799949645996 -10.972000122070312,-19.42799949645996z"></path><path fill="rgb(255,0,0)" fill-opacity="1" d=" M-10.972000122070312,-19.42799949645996 C-10.972000122070312,-19.42799949645996 10.972000122070312,-19.42799949645996 10.972000122070312,-19.42799949645996 C23.090999603271484,-19.42799949645996 32.915000915527344,-9.604000091552734 32.915000915527344,2.515000104904175 C32.915000915527344,2.515000104904175 32.915000915527344,9.855999946594238 32.915000915527344,9.855999946594238 C32.915000915527344,11.869999885559082 31.4060001373291,13.564000129699707 29.405000686645508,13.795000076293945 C29.405000686645508,13.795000076293945 21.72599983215332,14.682999610900879 21.72599983215332,14.682999610900879 C19.628000259399414,14.925999641418457 17.576000213623047,15.461999893188477 15.626999855041504,16.277000427246094 C15.626999855041504,16.277000427246094 15.626999855041504,16.277000427246094 15.626999855041504,16.277000427246094 C5.604000091552734,20.466999053955078 -5.677999973297119,20.479000091552734 -15.710000038146973,16.30900001525879 C-15.710000038146973,16.30900001525879 -15.762999534606934,16.288000106811523 -15.762999534606934,16.288000106811523 C-17.797000885009766,15.442999839782715 -19.937999725341797,14.885000228881836 -22.125999450683594,14.633000373840332 C-22.125999450683594,14.633000373840332 -29.40399932861328,13.793999671936035 -29.40399932861328,13.793999671936035 C-31.405000686645508,13.562999725341797 -32.915000915527344,11.869000434875488 -32.915000915527344,9.854999542236328 C-32.915000915527344,9.854999542236328 -32.915000915527344,2.515000104904175 -32.915000915527344,2.515000104904175 C-32.915000915527344,-9.604000091552734 -23.090999603271484,-19.42799949645996 -10.972000122070312,-19.42799949645996z"></path></g><g opacity="1" transform="matrix(1,0,0,1,96.2229995727539,221.13299560546875)"><path stroke-linecap="round" stroke-linejoin="round" fill-opacity="0" stroke="rgb(18,19,49)" stroke-opacity="1" stroke-width="6" d=" M-0.5130000114440918,-23.132999420166016 C-0.5130000114440918,-23.132999420166016 0.5130000114440918,-23.132999420166016 0.5130000114440918,-23.132999420166016 C9.430999755859375,-23.132999420166016 16.572999954223633,-15.73900032043457 16.26300048828125,-6.826000213623047 C16.26300048828125,-6.826000213623047 15.75,7.921000003814697 15.75,7.921000003814697 C15.454999923706055,16.4060001373291 8.489999771118164,23.132999420166016 0,23.132999420166016 C0,23.132999420166016 0,23.132999420166016 0,23.132999420166016 C-8.489999771118164,23.132999420166016 -15.454999923706055,16.4060001373291 -15.75,7.921000003814697 C-15.75,7.921000003814697 -16.26300048828125,-6.826000213623047 -16.26300048828125,-6.826000213623047 C-16.572999954223633,-15.73900032043457 -9.430999755859375,-23.132999420166016 -0.5130000114440918,-23.132999420166016z"></path><path fill="rgb(255,0,0)" fill-opacity="1" d=" M-0.5130000114440918,-23.132999420166016 C-0.5130000114440918,-23.132999420166016 0.5130000114440918,-23.132999420166016 0.5130000114440918,-23.132999420166016 C9.430999755859375,-23.132999420166016 16.572999954223633,-15.73900032043457 16.26300048828125,-6.826000213623047 C16.26300048828125,-6.826000213623047 15.75,7.921000003814697 15.75,7.921000003814697 C15.454999923706055,16.4060001373291 8.489999771118164,23.132999420166016 0,23.132999420166016 C0,23.132999420166016 0,23.132999420166016 0,23.132999420166016 C-8.489999771118164,23.132999420166016 -15.454999923706055,16.4060001373291 -15.75,7.921000003814697 C-15.75,7.921000003814697 -16.26300048828125,-6.826000213623047 -16.26300048828125,-6.826000213623047 C-16.572999954223633,-15.73900032043457 -9.430999755859375,-23.132999420166016 -0.5130000114440918,-23.132999420166016z"></path></g></g><g transform="matrix(1,0,0,1,0,0)" opacity="1" style="display: block;"><g opacity="1" transform="matrix(1,0,0,1,250,239.62600708007812)"><path stroke-linecap="round" stroke-linejoin="round" fill-opacity="0" stroke="rgb(8,167,137)" stroke-opacity="1" stroke-width="12" d=" M-17.628000259399414,26.983999252319336 C-17.628000259399414,26.983999252319336 -17.628000259399414,42.95899963378906 -17.628000259399414,42.95899963378906 C-17.628000259399414,42.95899963378906 17.628000259399414,42.95899963378906 17.628000259399414,42.95899963378906 C17.628000259399414,42.95899963378906 17.628000259399414,26.983999252319336 17.628000259399414,26.983999252319336 C24.916000366210938,20.249000549316406 35.6870002746582,6.311999797821045 36.05400085449219,-9.967000007629395 C36.51300048828125,-30.322999954223633 19.125,-46.56399917602539 -0.21899999678134918,-46.30699920654297 C-19.570999145507812,-46.04999923706055 -36.459999084472656,-30.391000747680664 -36.55400085449219,-10.029999732971191 C-36.625,5.249000072479248 -24.916000366210938,20.249000549316406 -17.628000259399414,26.983999252319336z"></path></g><g opacity="1" transform="matrix(1,0,0,1,250,292.9590148925781)"><path stroke-linecap="round" stroke-linejoin="round" fill-opacity="0" stroke="rgb(8,167,137)" stroke-opacity="1" stroke-width="12" d=" M-17.639999389648438,-10.37399959564209 C-17.639999389648438,-10.37399959564209 17.639999389648438,-10.37399959564209 17.639999389648438,-10.37399959564209 C17.639999389648438,-10.37399959564209 17.639999389648438,-1.7079999446868896 17.639999389648438,-1.7079999446868896 C17.639999389648438,4.965000152587891 12.230999946594238,10.37399959564209 5.558000087738037,10.37399959564209 C5.558000087738037,10.37399959564209 -5.558000087738037,10.37399959564209 -5.558000087738037,10.37399959564209 C-12.230999946594238,10.37399959564209 -17.639999389648438,4.965000152587891 -17.639999389648438,-1.7079999446868896 C-17.639999389648438,-1.7079999446868896 -17.639999389648438,-10.37399959564209 -17.639999389648438,-10.37399959564209z"></path></g><g opacity="1" transform="matrix(1,0,0,1,250.11500549316406,292.7969970703125)"><path fill="rgb(0,0,0)" fill-opacity="1" d=" M17.614999771118164,-10.29699993133545 C17.614999771118164,-10.29699993133545 17.604000091552734,-1.2970000505447388 17.604000091552734,-1.2970000505447388 C17.604000091552734,-1.2970000505447388 16.121000289916992,9.95300006866455 5.739999771118164,10.54699993133545 C3.010999917984009,10.70300006866455 -1.7400000095367432,10.45300006866455 -5.739999771118164,10.42199993133545 C-17.788999557495117,10.32800006866455 -17.604000091552734,-1.7970000505447388 -17.604000091552734,-1.7970000505447388 C-17.604000091552734,-1.7970000505447388 -17.614999771118164,-10.29699993133545 -17.614999771118164,-10.29699993133545 C-17.614999771118164,-10.29699993133545 17.614999771118164,-10.29699993133545 17.614999771118164,-10.29699993133545z"></path></g></g><g transform="matrix(1,0,0,1,0,0)" opacity="1" style="display: block;"><g opacity="1" transform="matrix(1,0,0,1,349.72900390625,133.65699768066406)"><path stroke-linecap="round" stroke-linejoin="round" fill-opacity="0" stroke="rgb(8,167,137)" stroke-opacity="1" stroke-width="12" d=" M41.77199935913086,33.5989990234375 C22.566999435424805,2.634999990463257 -6.848999977111816,-21.332000732421875 -41.77199935913086,-33.5989990234375"></path></g><g opacity="1" transform="matrix(1,0,0,1,150.27099609375,133.65699768066406)"><path stroke-linecap="round" stroke-linejoin="round" fill-opacity="0" stroke="rgb(8,167,137)" stroke-opacity="1" stroke-width="12" d=" M-41.77199935913086,33.5989990234375 C-22.566999435424805,2.634999990463257 6.848999977111816,-21.332000732421875 41.77199935913086,-33.5989990234375"></path></g></g><g transform="matrix(1,0,0,1,0,0.0000152587890625)" opacity="1" style="display: block;"><g opacity="1" transform="matrix(1,0,0,1,349.72900390625,366.3169860839844)"><path stroke-linecap="round" stroke-linejoin="round" fill-opacity="0" stroke="rgb(8,167,137)" stroke-opacity="1" stroke-width="12" d=" M41.77199935913086,-33.5989990234375 C22.566999435424805,-2.634999990463257 -6.848999977111816,21.332000732421875 -41.77199935913086,33.5989990234375"></path></g><g opacity="1" transform="matrix(1,0,0,1,150.27099609375,366.3169860839844)"><path stroke-linecap="round" stroke-linejoin="round" fill-opacity="0" stroke="rgb(8,167,137)" stroke-opacity="1" stroke-width="12" d=" M-41.77199935913086,-33.5989990234375 C-22.566999435424805,-2.634999990463257 6.848999977111816,21.332000732421875 41.77199935913086,33.5989990234375"></path></g></g><g style="display: none;"><g><path stroke-linecap="round" stroke-linejoin="round" fill-opacity="0"></path></g></g><g style="display: none;"><g><path stroke-linecap="round" stroke-linejoin="round" fill-opacity="0"></path></g></g><g style="display: none;"><g><path stroke-linecap="round" stroke-linejoin="round" fill-opacity="0"></path></g></g><g style="display: none;"><g><path stroke-linecap="round" stroke-linejoin="round" fill-opacity="0"></path></g></g><g style="display: none;"><g><path stroke-linecap="round" stroke-linejoin="round" fill-opacity="0"></path></g></g></g></mask><clipPath id="__lottie_element_1678"><path d="M0,0 L500,0 L500,500 L0,500z"></path></clipPath><filter id="__lottie_element_1720" x="-100%" y="-100%" width="300%" height="300%"><feGaussianBlur result="filter_result_0" stdDeviation="52.5 52.5" edgeMode="wrap"></feGaussianBlur></filter></defs><g clip-path="url(#__lottie_element_1671)"><g mask="url(#__lottie_element_1677)" style="display: block;"><g filter="url(#__lottie_element_1720)" transform="matrix(-0.1674155443906784,-2.3941538333892822,2.3941538333892822,-0.1674155443906784,271.9410095214844,270.4599914550781)" opacity="1"><g class="design" opacity="1" transform="matrix(1,0,0,1,0,0)"><path fill="rgb(225,169,58)" fill-opacity="1" d=" M0,-250 C137.97500610351562,-250 250,-137.97500610351562 250,0 C250,137.97500610351562 137.97500610351562,250 0,250 C-137.97500610351562,250 -250,137.97500610351562 -250,0 C-250,-137.97500610351562 -137.97500610351562,-250 0,-250z"></path></g><g class="design" opacity="1" transform="matrix(1,0,0,1,113.24199676513672,-118.88400268554688)"><path fill="rgb(206,211,230)" fill-opacity="1" d=" M0,-176.5 C97.47799682617188,-176.5 176.5,-97.47799682617188 176.5,0 C176.5,97.47799682617188 97.47799682617188,176.5 0,176.5 C-43.948001861572266,176.5 -74.39600372314453,142.4429931640625 -105.29000091552734,115.86900329589844 C-142.92100524902344,83.5 -176.5,53.53099822998047 -176.5,0 C-176.5,-97.47799682617188 -97.47799682617188,-176.5 0,-176.5z"></path></g></g></g><g style="display: none;"><path></path></g></g></svg>