<svg xmlns="http://www.w3.org/2000/svg" viewBox="0 0 500 500" width="500" height="500" preserveAspectRatio="xMidYMid meet" style="width: 100%; height: 100%; transform: translate3d(0px, 0px, 0px); content-visibility: visible;"><defs><clipPath id="__lottie_element_2653"><rect width="500" height="500" x="0" y="0"></rect></clipPath><mask id="__lottie_element_2659" mask-type="alpha"><g clip-path="url(#__lottie_element_2660)" transform="matrix(1,0,0,1,0,0)" opacity="1" style="display: block;"><g transform="matrix(1,0,0,1,0,0)" opacity="1" style="display: block;"><g opacity="1" transform="matrix(1,0,0,1,0,0)"><g opacity="1" transform="matrix(1,0,0,1,155.4080047607422,396.864013671875)"><path stroke-linecap="round" stroke-linejoin="round" fill-opacity="0" stroke="rgb(18,19,49)" stroke-opacity="1" stroke-width="12" d=" M228.02499389648438,-101.64800262451172 C228.02499389648438,-101.64800262451172 212.01300048828125,-39.94200134277344 212.01300048828125,-39.94200134277344 C212.01300048828125,-39.94200134277344 -22.82900047302246,-39.94200134277344 -22.82900047302246,-39.94200134277344 C-22.82900047302246,-39.94200134277344 -38.840999603271484,-101.64800262451172 -38.840999603271484,-101.64800262451172 M254.71099853515625,-101.64800262451172 C254.71099853515625,-101.64800262451172 -65.5270004272461,-101.64800262451172 -65.5270004272461,-101.64800262451172 C-65.5270004272461,-101.64800262451172 -65.5270004272461,-149.82699584960938 -65.5270004272461,-149.82699584960938 C-65.5270004272461,-149.82699584960938 254.71099853515625,-149.82699584960938 254.71099853515625,-149.82699584960938 C254.71099853515625,-149.82699584960938 254.71099853515625,-101.64800262451172 254.71099853515625,-101.64800262451172z M212.9320068359375,-251.27499389648438 C212.9320068359375,-251.27499389648438 254.71200561523438,-235.14500427246094 254.71200561523438,-235.14500427246094 C254.71200561523438,-235.14500427246094 254.71200561523438,-150.02499389648438 254.71200561523438,-150.02499389648438 M0,-39.94200134277344 C0,-39.94200134277344 0,39.94200134277344 0,39.94200134277344 M-65.52799987792969,-150.02499389648438 C-65.52799987792969,-150.02499389648438 -65.52799987792969,-235.14500427246094 -65.52799987792969,-235.14500427246094 C-65.52799987792969,-235.14500427246094 -25.87299919128418,-250.27499389648438 -25.87299919128418,-250.27499389648438 M189.1840057373047,-39.94200134277344 C189.1840057373047,-39.94200134277344 189.1840057373047,39.94200134277344 189.1840057373047,39.94200134277344"></path></g></g><g opacity="1" transform="matrix(1,0,0,1,250,424.8059997558594)"><path stroke-linecap="round" stroke-linejoin="round" fill-opacity="0" stroke="rgb(8,167,137)" stroke-opacity="1" stroke-width="12" d=" M-42.029998779296875,14.687000274658203 C-42.029998779296875,14.687000274658203 -42.029998779296875,-14.687000274658203 -42.029998779296875,-14.687000274658203 C-42.029998779296875,-14.687000274658203 42.029998779296875,-14.687000274658203 42.029998779296875,-14.687000274658203 C42.029998779296875,-14.687000274658203 42.029998779296875,14.687000274658203 42.029998779296875,14.687000274658203 M80.83300018310547,-279.85198974609375 C80.83300018310547,-279.85198974609375 99.90899658203125,-272.6839904785156 99.90899658203125,-272.6839904785156 C106.95800018310547,-270.0350036621094 114.89299774169922,-273.635986328125 117.54199981689453,-280.68499755859375 C117.54199981689453,-280.68499755859375 117.54199981689453,-280.68499755859375 117.54199981689453,-280.68499755859375 C120.19100189208984,-287.7340087890625 116.58999633789062,-295.66900634765625 109.54100036621094,-298.3179931640625 C109.54100036621094,-298.3179931640625 90.46499633789062,-305.4859924316406 90.46499633789062,-305.4859924316406 C83.41600036621094,-308.135009765625 75.48100280761719,-304.53399658203125 72.83200073242188,-297.4849853515625 C72.83200073242188,-297.4849853515625 72.83200073242188,-297.4849853515625 72.83200073242188,-297.4849853515625 C70.18299865722656,-290.4360046386719 73.78399658203125,-282.5010070800781 80.83300018310547,-279.85198974609375z M-81.08300018310547,-279.2959899902344 C-81.08300018310547,-279.2959899902344 -100.15899658203125,-272.12799072265625 -100.15899658203125,-272.12799072265625 C-107.20800018310547,-269.47900390625 -115.14299774169922,-273.0799865722656 -117.79199981689453,-280.1289978027344 C-117.79199981689453,-280.1289978027344 -117.79199981689453,-280.1289978027344 -117.79199981689453,-280.1289978027344 C-120.44100189208984,-287.1780090332031 -116.83999633789062,-295.1130065917969 -109.79100036621094,-297.7619934082031 C-109.79100036621094,-297.7619934082031 -90.71499633789062,-304.9309997558594 -90.71499633789062,-304.9309997558594 C-83.66600036621094,-307.5799865722656 -75.73100280761719,-303.97900390625 -73.08200073242188,-296.92999267578125 C-73.08200073242188,-296.92999267578125 -73.08200073242188,-296.92999267578125 -73.08200073242188,-296.92999267578125 C-70.43299865722656,-289.8810119628906 -74.03399658203125,-281.94500732421875 -81.08300018310547,-279.2959899902344z"></path><path fill="rgb(255,0,0)" fill-opacity="1" d=" M80.83300018310547,-279.85198974609375 C80.83300018310547,-279.85198974609375 99.90899658203125,-272.6839904785156 99.90899658203125,-272.6839904785156 C106.95800018310547,-270.0350036621094 114.89299774169922,-273.635986328125 117.54199981689453,-280.68499755859375 C117.54199981689453,-280.68499755859375 117.54199981689453,-280.68499755859375 117.54199981689453,-280.68499755859375 C120.19100189208984,-287.7340087890625 116.58999633789062,-295.66900634765625 109.54100036621094,-298.3179931640625 C109.54100036621094,-298.3179931640625 90.46499633789062,-305.4859924316406 90.46499633789062,-305.4859924316406 C83.41600036621094,-308.135009765625 75.48100280761719,-304.53399658203125 72.83200073242188,-297.4849853515625 C72.83200073242188,-297.4849853515625 72.83200073242188,-297.4849853515625 72.83200073242188,-297.4849853515625 C70.18299865722656,-290.4360046386719 73.78399658203125,-282.5010070800781 80.83300018310547,-279.85198974609375z M-81.08300018310547,-279.2959899902344 C-81.08300018310547,-279.2959899902344 -100.15899658203125,-272.12799072265625 -100.15899658203125,-272.12799072265625 C-107.20800018310547,-269.47900390625 -115.14299774169922,-273.0799865722656 -117.79199981689453,-280.1289978027344 C-117.79199981689453,-280.1289978027344 -117.79199981689453,-280.1289978027344 -117.79199981689453,-280.1289978027344 C-120.44100189208984,-287.1780090332031 -116.83999633789062,-295.1130065917969 -109.79100036621094,-297.7619934082031 C-109.79100036621094,-297.7619934082031 -90.71499633789062,-304.9309997558594 -90.71499633789062,-304.9309997558594 C-83.66600036621094,-307.5799865722656 -75.73100280761719,-303.97900390625 -73.08200073242188,-296.92999267578125 C-73.08200073242188,-296.92999267578125 -73.08200073242188,-296.92999267578125 -73.08200073242188,-296.92999267578125 C-70.43299865722656,-289.8810119628906 -74.03399658203125,-281.94500732421875 -81.08300018310547,-279.2959899902344z"></path><g opacity="1" transform="matrix(1,0,0,1,0,0)"></g></g></g><g transform="matrix(1,0,0,1,0,0)" opacity="1" style="display: block;"><g opacity="1" transform="matrix(1,0,0,1,0,0)"><g opacity="1" transform="matrix(1,0,0,1,189.3489990234375,412.7590026855469)"><path stroke-linecap="round" stroke-linejoin="round" fill-opacity="0" stroke="rgb(18,19,49)" stroke-opacity="1" stroke-width="12" d=" M-99.18499755859375,-164.4720001220703 C-99.18499755859375,-164.4720001220703 -99.63800048828125,-132.88900756835938 -99.63800048828125,-132.88900756835938 C-99.63800048828125,-132.88900756835938 -99.53399658203125,-117.52300262451172 -99.53399658203125,-117.52300262451172 C-99.53399658203125,-117.52300262451172 -73.6449966430664,-117.69999694824219 -73.6449966430664,-117.69999694824219 M-73.07099914550781,-117.27300262451172 C-73.07099914550781,-117.27300262451172 -57.32099914550781,-55.854000091552734 -57.32099914550781,-55.854000091552734 C-57.32099914550781,-55.854000091552734 -33.4900016784668,-55.91299819946289 -33.4900016784668,-55.91299819946289 M-33.25,24.361000061035156 C-33.25,24.361000061035156 -33.5,-55.854000091552734 -33.5,-55.854000091552734"></path></g></g></g></g></mask><clipPath id="__lottie_element_2660"><path d="M0,0 L500,0 L500,500 L0,500z"></path></clipPath><filter id="__lottie_element_2671" x="-100%" y="-100%" width="300%" height="300%"><feGaussianBlur result="filter_result_0" stdDeviation="52.5 52.5" edgeMode="wrap"></feGaussianBlur></filter></defs><g clip-path="url(#__lottie_element_2653)"><g mask="url(#__lottie_element_2659)" style="display: block;"><g filter="url(#__lottie_element_2671)" transform="matrix(-0.1674155443906784,-2.3941538333892822,2.3941538333892822,-0.1674155443906784,271.9410095214844,270.4599914550781)" opacity="1"><g class="design" opacity="1" transform="matrix(1,0,0,1,0,0)"><path fill="rgb(225,169,58)" fill-opacity="1" d=" M0,-250 C137.97500610351562,-250 250,-137.97500610351562 250,0 C250,137.97500610351562 137.97500610351562,250 0,250 C-137.97500610351562,250 -250,137.97500610351562 -250,0 C-250,-137.97500610351562 -137.97500610351562,-250 0,-250z"></path></g><g class="design" opacity="1" transform="matrix(1,0,0,1,113.24199676513672,-118.88400268554688)"><path fill="rgb(225,169,58)" fill-opacity="1" d=" M0,-176.5 C97.47799682617188,-176.5 176.5,-97.47799682617188 176.5,0 C176.5,97.47799682617188 97.47799682617188,176.5 0,176.5 C-43.948001861572266,176.5 -74.39600372314453,142.4429931640625 -105.29000091552734,115.86900329589844 C-142.92100524902344,83.5 -176.5,53.53099822998047 -176.5,0 C-176.5,-97.47799682617188 -97.47799682617188,-176.5 0,-176.5z"></path></g></g></g><g style="display: none;"><path></path></g></g></svg>