<svg xmlns="http://www.w3.org/2000/svg" viewBox="0 0 500 500" width="500" height="500" preserveAspectRatio="xMidYMid meet" style="width: 100%; height: 100%; transform: translate3d(0px, 0px, 0px); content-visibility: visible;"><defs><clipPath id="__lottie_element_2673"><rect width="500" height="500" x="0" y="0"></rect></clipPath><mask id="__lottie_element_2679" mask-type="alpha"><g clip-path="url(#__lottie_element_2680)" transform="matrix(1,0,0,1,0,0)" opacity="1" style="display: block;"><g mask="url(#__lottie_element_2689)" style="display: block;"><g transform="matrix(1,0,0,1,0,0)" opacity="1"><g opacity="1" transform="matrix(1,0,0,1,250,123.23899841308594)"><path stroke-linecap="round" stroke-linejoin="round" fill-opacity="0" stroke="rgb(18,19,49)" stroke-opacity="1" stroke-width="12" d=" M56,33.358001708984375 C56,33.358001708984375 56,-33.358001708984375 56,-33.358001708984375 C56,-33.358001708984375 -56,-33.358001708984375 -56,-33.358001708984375 C-56,-33.358001708984375 -56,33.358001708984375 -56,33.358001708984375"></path></g><g opacity="1" transform="matrix(1,0,0,1,0,0)"><g opacity="1" transform="matrix(1,0,0,1,228.00900268554688,123.23899841308594)"><path stroke-linecap="round" stroke-linejoin="round" fill-opacity="0" stroke="rgb(18,19,49)" stroke-opacity="1" stroke-width="12" d=" M6.515999794006348,0 C6.515999794006348,0 -6.515999794006348,0 -6.515999794006348,0"></path></g><g opacity="1" transform="matrix(1,0,0,1,271.9909973144531,123.23899841308594)"><path stroke-linecap="round" stroke-linejoin="round" fill-opacity="0" stroke="rgb(18,19,49)" stroke-opacity="1" stroke-width="12" d=" M6.515999794006348,0 C6.515999794006348,0 -6.515999794006348,0 -6.515999794006348,0"></path></g></g></g></g><g transform="matrix(1,0,0,1,0,0)" opacity="1" style="display: block;"><g opacity="1" transform="matrix(1,0,0,1,270.0150146484375,375.41900634765625)"><path stroke-linecap="round" stroke-linejoin="round" fill-opacity="0" stroke="rgb(18,19,49)" stroke-opacity="1" stroke-width="12" d=" M19.12299919128418,-72.0459976196289 C19.12299919128418,-72.0459976196289 -59.15299987792969,-72.0459976196289 -59.15299987792969,-72.0459976196289 C-72.83200073242188,-72.0459976196289 -84.5199966430664,-81.90299987792969 -86.8280029296875,-95.38600158691406 C-86.8280029296875,-95.38600158691406 -105.3030014038086,-203.30499267578125 -105.3030014038086,-203.30499267578125 C-106.69100189208984,-211.4149932861328 -100.44400024414062,-218.82200622558594 -92.21600341796875,-218.82200622558594 C-92.21600341796875,-218.82200622558594 52.18600082397461,-218.82200622558594 52.18600082397461,-218.82200622558594 C60.41400146484375,-218.82200622558594 66.66100311279297,-211.4149932861328 65.27300262451172,-203.30499267578125 C65.27300262451172,-203.30499267578125 46.79800033569336,-95.38600158691406 46.79800033569336,-95.38600158691406 C44.4900016784668,-81.90299987792969 32.801998138427734,-72.0459976196289 19.12299919128418,-72.0459976196289z M15.01099967956543,-72.0459976196289 C15.01099967956543,-72.0459976196289 15.01099967956543,-44.9119987487793 15.01099967956543,-44.9119987487793 C15.01099967956543,-39.27199935913086 10.439000129699707,-34.70000076293945 4.798999786376953,-34.70000076293945 C4.798999786376953,-34.70000076293945 -44.82899856567383,-34.70000076293945 -44.82899856567383,-34.70000076293945 C-50.46900177001953,-34.70000076293945 -55.04100036621094,-39.27199935913086 -55.04100036621094,-44.9119987487793 C-55.04100036621094,-44.9119987487793 -55.04100036621094,-72.0459976196289 -55.04100036621094,-72.0459976196289 M-40.029998779296875,34.70000076293945 C-40.029998779296875,34.70000076293945 -40.029998779296875,-34.70000076293945 -40.029998779296875,-34.70000076293945 M0,-34.70000076293945 C0,-34.70000076293945 0,34.70000076293945 0,34.70000076293945"></path></g><g opacity="1" transform="matrix(1,0,0,1,0,0)"><g opacity="1" transform="matrix(1,0,0,1,250,278.6709899902344)"><path stroke-linecap="round" stroke-linejoin="round" fill-opacity="0" stroke="rgb(8,168,138)" stroke-opacity="1" stroke-width="21" d=" M0,0 C0,0 0,0 0,0"></path></g><g opacity="1" transform="matrix(1,0,0,1,263.3429870605469,227.29800415039062)"><path stroke-linecap="round" stroke-linejoin="round" fill-opacity="0" stroke="rgb(8,168,138)" stroke-opacity="1" stroke-width="12" d=" M-13.343000411987305,51.37200164794922 C-13.343000411987305,51.37200164794922 -13.343000411987305,-45.999000549316406 -13.343000411987305,-45.999000549316406 M-23.35099983215332,-30.95199966430664 C-23.35099983215332,-30.95199966430664 -13.343000411987305,-45.999000549316406 -13.343000411987305,-45.999000549316406 C-13.343000411987305,-45.999000549316406 -3.3359999656677246,-30.95199966430664 -3.3359999656677246,-30.95199966430664 M-13.343000411987305,32.29100036621094 C-13.343000411987305,32.29100036621094 -34.672000885009766,22.339000701904297 -34.672000885009766,22.339000701904297 C-37.939998626708984,20.81399917602539 -40.029998779296875,17.53499984741211 -40.029998779296875,13.928000450134277 C-40.029998779296875,13.928000450134277 -40.029998779296875,3.5409998893737793 -40.029998779296875,3.5409998893737793 M-13.343000411987305,14.375 C-13.343000411987305,14.375 7.986999988555908,4.422999858856201 7.986999988555908,4.422999858856201 C11.255000114440918,2.8980000019073486 13.343000411987305,-0.3799999952316284 13.343000411987305,-3.9860000610351562 C13.343000411987305,-3.9860000610351562 13.343000411987305,-14.375 13.343000411987305,-14.375"></path></g></g></g><g style="display: none;"><g><path stroke-linecap="round" stroke-linejoin="round" fill-opacity="0"></path></g></g></g></mask><clipPath id="__lottie_element_2680"><path d="M0,0 L500,0 L500,500 L0,500z"></path></clipPath><filter id="__lottie_element_2690" filterUnits="objectBoundingBox" x="0%" y="0%" width="100%" height="100%"><feComponentTransfer in="SourceGraphic"><feFuncA type="table" tableValues="1.0 0.0"></feFuncA></feComponentTransfer></filter><mask id="__lottie_element_2689" mask-type="alpha"><g filter="url(#__lottie_element_2690)"><rect width="500" height="500" x="0" y="0" fill="#ffffff" opacity="0"></rect><g style="display: none;"><g><path></path><path stroke-linecap="butt" stroke-linejoin="miter" fill-opacity="0" stroke-miterlimit="4"></path></g></g></g></mask><filter id="__lottie_element_2698" x="-100%" y="-100%" width="300%" height="300%"><feGaussianBlur result="filter_result_0" stdDeviation="52.5 52.5" edgeMode="wrap"></feGaussianBlur></filter></defs><g clip-path="url(#__lottie_element_2673)"><g mask="url(#__lottie_element_2679)" style="display: block;"><g filter="url(#__lottie_element_2698)" transform="matrix(-0.1674155443906784,-2.3941538333892822,2.3941538333892822,-0.1674155443906784,271.9410095214844,270.4599914550781)" opacity="1"><g class="design" opacity="1" transform="matrix(1,0,0,1,0,0)"><path fill="rgb(225,169,58)" fill-opacity="1" d=" M0,-250 C137.97500610351562,-250 250,-137.97500610351562 250,0 C250,137.97500610351562 137.97500610351562,250 0,250 C-137.97500610351562,250 -250,137.97500610351562 -250,0 C-250,-137.97500610351562 -137.97500610351562,-250 0,-250z"></path></g><g class="design" opacity="1" transform="matrix(1,0,0,1,113.24199676513672,-118.88400268554688)"><path fill="rgb(225,169,58)" fill-opacity="1" d=" M0,-176.5 C97.47799682617188,-176.5 176.5,-97.47799682617188 176.5,0 C176.5,97.47799682617188 97.47799682617188,176.5 0,176.5 C-43.948001861572266,176.5 -74.39600372314453,142.4429931640625 -105.29000091552734,115.86900329589844 C-142.92100524902344,83.5 -176.5,53.53099822998047 -176.5,0 C-176.5,-97.47799682617188 -97.47799682617188,-176.5 0,-176.5z"></path></g></g></g><g style="display: none;"><path></path></g></g></svg>