<svg xmlns="http://www.w3.org/2000/svg" viewBox="0 0 500 500" width="500" height="500" preserveAspectRatio="xMidYMid meet" style="width: 100%; height: 100%; transform: translate3d(0px, 0px, 0px); content-visibility: visible;"><defs><clipPath id="__lottie_element_2793"><rect width="500" height="500" x="0" y="0"></rect></clipPath><mask id="__lottie_element_2799" mask-type="alpha"><g clip-path="url(#__lottie_element_2800)" transform="matrix(1,0,0,1,0,0)" opacity="1" style="display: block;"><g mask="url(#__lottie_element_2809)" style="display: block;"><g clip-path="url(#__lottie_element_2821)" transform="matrix(1,0,0,1,0,0)" opacity="1"><g transform="matrix(0.7400000095367432,0,0,0.7400000095367432,-35.03848648071289,71.33758544921875)" opacity="1" style="display: block;"><g opacity="1" transform="matrix(1,0,0,1,249.43899536132812,220.58200073242188)"><path stroke-linecap="round" stroke-linejoin="round" fill-opacity="0" stroke="rgb(225,169,58)" stroke-opacity="1" stroke-width="16.2" d=" M61.965999603271484,-47.40399932861328 C61.965999603271484,-47.40399932861328 61.965999603271484,-44.26900100708008 61.965999603271484,-44.26900100708008 C61.965999603271484,-44.26900100708008 61.965999603271484,-13.8149995803833 61.965999603271484,-13.8149995803833 C61.965999603271484,19.990999221801758 34.553001403808594,47.40399932861328 0.746999979019165,47.40399932861328 C0.746999979019165,47.40399932861328 -0.746999979019165,47.40399932861328 -0.746999979019165,47.40399932861328 C-34.553001403808594,47.40399932861328 -61.965999603271484,19.990999221801758 -61.965999603271484,-13.8149995803833 C-61.965999603271484,-13.8149995803833 -61.965999603271484,-43.84299850463867 -61.965999603271484,-43.84299850463867"></path></g><g opacity="1" transform="matrix(1,0,0,1,245.9720001220703,128.26400756835938)"><path stroke-linecap="round" stroke-linejoin="round" fill-opacity="0" stroke="rgb(225,169,58)" stroke-opacity="1" stroke-width="16.2" d=" M65.43299865722656,48.04800033569336 C65.43299865722656,48.04800033569336 68.04900360107422,8.4399995803833 27.444000244140625,-12.734000205993652 C27.444000244140625,-12.734000205993652 15.050999641418457,33.28799819946289 -62.39899826049805,49.32699966430664 C-62.39899826049805,49.32699966430664 -88.9530029296875,-28.865999221801758 -55.792999267578125,-47.85499954223633 C-52.077999114990234,-49.981998443603516 -45.981998443603516,-49.76499938964844 -42.37699890136719,-47.457000732421875 C-37.31700134277344,-44.21799850463867 -32.24100112915039,-38.9379997253418 -29.041000366210938,-36.2130012512207 C-26.61199951171875,-34.14400100708008 -23.5,-33.04199981689453 -20.312999725341797,-33.198001861572266 C-15.920000076293945,-33.41299819946289 -9.836000442504883,-34.67300033569336 -3.8299999237060547,-37.89400100708008 C44.22200012207031,-56.99300003051758 72.99500274658203,-35.01300048828125 72.40899658203125,-6.506999969482422 C71.86399841308594,20.020000457763672 74.89900207519531,42.069000244140625 65.43299865722656,48.04800033569336z"></path></g></g><g transform="matrix(-0.7400000095367432,0,0,0.7400000095367432,335,71.33758544921875)" opacity="1" style="display: block;"><g opacity="1" transform="matrix(1,0,0,1,248.75399780273438,284.14599609375)"><path stroke-linecap="round" stroke-linejoin="round" fill-opacity="0" stroke="rgb(225,169,58)" stroke-opacity="1" stroke-width="16.2" d=" M-32.882999420166016,-25.68899917602539 C-32.882999420166016,-25.68899917602539 -32.882999420166016,-5.947000026702881 -32.882999420166016,-5.947000026702881 C-32.882999420166016,11.522000312805176 -18.71500015258789,25.68899917602539 -1.246000051498413,25.68899917602539 C-1.246000051498413,25.68899917602539 1.246000051498413,25.68899917602539 1.246000051498413,25.68899917602539 C18.71500015258789,25.68899917602539 32.882999420166016,11.522000312805176 32.882999420166016,-5.947000026702881 C32.882999420166016,-5.947000026702881 32.882999420166016,-24.849000930786133 32.882999420166016,-24.849000930786133"></path></g><g opacity="1" transform="matrix(1,0,0,1,250,349.6310119628906)"><path stroke-linecap="round" stroke-linejoin="round" fill-opacity="0" stroke="rgb(225,169,58)" stroke-opacity="1" stroke-width="16.2" d=" M34.12799835205078,-71.43199920654297 C34.12799835205078,-71.43199920654297 43.09600067138672,-70.93399810791016 43.09600067138672,-70.93399810791016 C86.57599639892578,-70.93399810791016 121.81500244140625,-35.69499969482422 121.81500244140625,7.784999847412109 C121.81500244140625,7.784999847412109 121.81500244140625,39.297000885009766 121.81500244140625,39.297000885009766 C121.81500244140625,47.75600051879883 114.9530029296875,54.617000579833984 106.49400329589844,54.617000579833984 C106.49400329589844,54.617000579833984 87.06400299072266,54.617000579833984 87.06400299072266,54.617000579833984 C48.57699966430664,57.60599899291992 49.06999969482422,71.43199920654297 16.898000717163086,71.43199920654297 C16.898000717163086,71.43199920654297 -16.898000717163086,71.43199920654297 -16.898000717163086,71.43199920654297 C-49.06999969482422,71.43199920654297 -48.57699966430664,57.60599899291992 -87.06400299072266,54.617000579833984 C-87.06400299072266,54.617000579833984 -106.49400329589844,54.617000579833984 -106.49400329589844,54.617000579833984 C-114.9530029296875,54.617000579833984 -121.81500244140625,47.75600051879883 -121.81500244140625,39.297000885009766 C-121.81500244140625,39.297000885009766 -121.81500244140625,7.784999847412109 -121.81500244140625,7.784999847412109 C-121.81500244140625,-35.69499969482422 -86.57599639892578,-70.93399810791016 -43.09600067138672,-70.93399810791016 C-43.09600067138672,-70.93399810791016 -34.12799835205078,-71.43199920654297 -34.12799835205078,-71.43199920654297"></path></g></g><g transform="matrix(0.7400000095367432,0,0,0.7400000095367432,166,71.33758544921875)" opacity="1" style="display: block;"><g opacity="1" transform="matrix(1,0,0,1,249.43899536132812,220.58200073242188)"><path stroke-linecap="round" stroke-linejoin="round" fill-opacity="0" stroke="rgb(225,169,58)" stroke-opacity="1" stroke-width="16.2" d=" M61.965999603271484,-47.40399932861328 C61.965999603271484,-47.40399932861328 61.965999603271484,-44.26900100708008 61.965999603271484,-44.26900100708008 C61.965999603271484,-44.26900100708008 61.965999603271484,-13.8149995803833 61.965999603271484,-13.8149995803833 C61.965999603271484,19.990999221801758 34.553001403808594,47.40399932861328 0.746999979019165,47.40399932861328 C0.746999979019165,47.40399932861328 -0.746999979019165,47.40399932861328 -0.746999979019165,47.40399932861328 C-34.553001403808594,47.40399932861328 -61.965999603271484,19.990999221801758 -61.965999603271484,-13.8149995803833 C-61.965999603271484,-13.8149995803833 -61.965999603271484,-43.84299850463867 -61.965999603271484,-43.84299850463867"></path></g><g opacity="1" transform="matrix(1,0,0,1,245.9720001220703,128.26400756835938)"><path stroke-linecap="round" stroke-linejoin="round" fill-opacity="0" stroke="rgb(225,169,58)" stroke-opacity="1" stroke-width="16.2" d=" M65.43299865722656,48.04800033569336 C65.43299865722656,48.04800033569336 68.04900360107422,8.4399995803833 27.444000244140625,-12.734000205993652 C27.444000244140625,-12.734000205993652 15.050999641418457,33.28799819946289 -62.39899826049805,49.32699966430664 C-62.39899826049805,49.32699966430664 -88.9530029296875,-28.865999221801758 -55.792999267578125,-47.85499954223633 C-52.077999114990234,-49.981998443603516 -45.981998443603516,-49.76499938964844 -42.37699890136719,-47.457000732421875 C-37.31700134277344,-44.21799850463867 -32.24100112915039,-38.9379997253418 -29.041000366210938,-36.2130012512207 C-26.61199951171875,-34.14400100708008 -23.5,-33.04199981689453 -20.312999725341797,-33.198001861572266 C-15.920000076293945,-33.41299819946289 -9.836000442504883,-34.67300033569336 -3.8299999237060547,-37.89400100708008 C44.22200012207031,-56.99300003051758 72.99500274658203,-35.01300048828125 72.40899658203125,-6.506999969482422 C71.86399841308594,20.020000457763672 74.89900207519531,42.069000244140625 65.43299865722656,48.04800033569336z"></path></g></g><g transform="matrix(0.7400000095367432,0,0,0.7400000095367432,166,71.33758544921875)" opacity="1" style="display: block;"><g opacity="1" transform="matrix(1,0,0,1,248.75399780273438,284.14599609375)"><path stroke-linecap="round" stroke-linejoin="round" fill-opacity="0" stroke="rgb(225,169,58)" stroke-opacity="1" stroke-width="16.2" d=" M-32.882999420166016,-25.68899917602539 C-32.882999420166016,-25.68899917602539 -32.882999420166016,-5.947000026702881 -32.882999420166016,-5.947000026702881 C-32.882999420166016,11.522000312805176 -18.71500015258789,25.68899917602539 -1.246000051498413,25.68899917602539 C-1.246000051498413,25.68899917602539 1.246000051498413,25.68899917602539 1.246000051498413,25.68899917602539 C18.71500015258789,25.68899917602539 32.882999420166016,11.522000312805176 32.882999420166016,-5.947000026702881 C32.882999420166016,-5.947000026702881 32.882999420166016,-24.849000930786133 32.882999420166016,-24.849000930786133"></path></g><g opacity="1" transform="matrix(1,0,0,1,250,349.6310119628906)"><path stroke-linecap="round" stroke-linejoin="round" fill-opacity="0" stroke="rgb(225,169,58)" stroke-opacity="1" stroke-width="16.2" d=" M34.12799835205078,-71.43199920654297 C34.12799835205078,-71.43199920654297 43.09600067138672,-70.93399810791016 43.09600067138672,-70.93399810791016 C86.57599639892578,-70.93399810791016 121.81500244140625,-35.69499969482422 121.81500244140625,7.784999847412109 C121.81500244140625,7.784999847412109 121.81500244140625,39.297000885009766 121.81500244140625,39.297000885009766 C121.81500244140625,47.75600051879883 114.9530029296875,54.617000579833984 106.49400329589844,54.617000579833984 C106.49400329589844,54.617000579833984 87.06400299072266,54.617000579833984 87.06400299072266,54.617000579833984 C48.57699966430664,57.60599899291992 49.06999969482422,71.43199920654297 16.898000717163086,71.43199920654297 C16.898000717163086,71.43199920654297 -16.898000717163086,71.43199920654297 -16.898000717163086,71.43199920654297 C-49.06999969482422,71.43199920654297 -48.57699966430664,57.60599899291992 -87.06400299072266,54.617000579833984 C-87.06400299072266,54.617000579833984 -106.49400329589844,54.617000579833984 -106.49400329589844,54.617000579833984 C-114.9530029296875,54.617000579833984 -121.81500244140625,47.75600051879883 -121.81500244140625,39.297000885009766 C-121.81500244140625,39.297000885009766 -121.81500244140625,7.784999847412109 -121.81500244140625,7.784999847412109 C-121.81500244140625,-35.69499969482422 -86.57599639892578,-70.93399810791016 -43.09600067138672,-70.93399810791016 C-43.09600067138672,-70.93399810791016 -34.12799835205078,-71.43199920654297 -34.12799835205078,-71.43199920654297"></path></g></g></g></g><g transform="matrix(0.8899999856948853,0,0,0.8899999856948853,27.5,33.87359619140625)" opacity="1" style="display: block;"><g opacity="1" transform="matrix(1,0,0,1,249.43899536132812,220.58200073242188)"><path stroke-linecap="round" stroke-linejoin="round" fill-opacity="0" stroke="rgb(225,169,58)" stroke-opacity="1" stroke-width="13.5" d=" M61.965999603271484,-47.40399932861328 C61.965999603271484,-47.40399932861328 61.965999603271484,-44.26900100708008 61.965999603271484,-44.26900100708008 C61.965999603271484,-44.26900100708008 61.965999603271484,-13.8149995803833 61.965999603271484,-13.8149995803833 C61.965999603271484,19.990999221801758 34.553001403808594,47.40399932861328 0.746999979019165,47.40399932861328 C0.746999979019165,47.40399932861328 -0.746999979019165,47.40399932861328 -0.746999979019165,47.40399932861328 C-34.553001403808594,47.40399932861328 -61.965999603271484,19.990999221801758 -61.965999603271484,-13.8149995803833 C-61.965999603271484,-13.8149995803833 -61.965999603271484,-43.84299850463867 -61.965999603271484,-43.84299850463867"></path></g><g opacity="1" transform="matrix(1,0,0,1,245.9720001220703,128.26400756835938)"><path stroke-linecap="round" stroke-linejoin="round" fill-opacity="0" stroke="rgb(225,169,58)" stroke-opacity="1" stroke-width="13.5" d=" M65.43299865722656,48.04800033569336 C65.43299865722656,48.04800033569336 68.04900360107422,8.4399995803833 27.444000244140625,-12.734000205993652 C27.444000244140625,-12.734000205993652 15.050999641418457,33.28799819946289 -62.39899826049805,49.32699966430664 C-62.39899826049805,49.32699966430664 -88.9530029296875,-28.865999221801758 -55.792999267578125,-47.85499954223633 C-52.077999114990234,-49.981998443603516 -45.981998443603516,-49.76499938964844 -42.37699890136719,-47.457000732421875 C-37.31700134277344,-44.21799850463867 -32.24100112915039,-38.9379997253418 -29.041000366210938,-36.2130012512207 C-26.61199951171875,-34.14400100708008 -23.5,-33.04199981689453 -20.312999725341797,-33.198001861572266 C-15.920000076293945,-33.41299819946289 -9.836000442504883,-34.67300033569336 -3.8299999237060547,-37.89400100708008 C44.22200012207031,-56.99300003051758 72.99500274658203,-35.01300048828125 72.40899658203125,-6.506999969482422 C71.86399841308594,20.020000457763672 74.89900207519531,42.069000244140625 65.43299865722656,48.04800033569336z"></path></g></g><g transform="matrix(0.8899999856948853,0,0,0.8899999856948853,27.5,33.87359619140625)" opacity="1" style="display: block;"><g opacity="1" transform="matrix(1,0,0,1,248.75399780273438,284.14599609375)"><path stroke-linecap="round" stroke-linejoin="round" fill-opacity="0" stroke="rgb(225,169,58)" stroke-opacity="1" stroke-width="13.5" d=" M-32.882999420166016,-25.68899917602539 C-32.882999420166016,-25.68899917602539 -32.882999420166016,-5.947000026702881 -32.882999420166016,-5.947000026702881 C-32.882999420166016,11.522000312805176 -18.71500015258789,25.68899917602539 -1.246000051498413,25.68899917602539 C-1.246000051498413,25.68899917602539 1.246000051498413,25.68899917602539 1.246000051498413,25.68899917602539 C18.71500015258789,25.68899917602539 32.882999420166016,11.522000312805176 32.882999420166016,-5.947000026702881 C32.882999420166016,-5.947000026702881 32.882999420166016,-24.849000930786133 32.882999420166016,-24.849000930786133"></path></g><g opacity="1" transform="matrix(1,0,0,1,300.9429931640625,362.25299072265625)"><path stroke-linecap="round" stroke-linejoin="round" fill-opacity="0" stroke="rgb(225,169,58)" stroke-opacity="1" stroke-width="13.5" d=" M-18.309999465942383,0.5090000033378601 C-18.309999465942383,0.5090000033378601 -18.309999465942383,0.5090000033378601 -18.309999465942383,0.5090000033378601 C-18.309999465942383,-9.619999885559082 -17.27400016784668,-17.832000732421875 -15.996999740600586,-17.832000732421875 C-15.996999740600586,-17.832000732421875 -15.753000259399414,-17.832000732421875 -15.753000259399414,-17.832000732421875 C-15.206999778747559,-17.815000534057617 -13.373000144958496,-16.492000579833984 -9.746000289916992,-12.746000289916992 C-3.246999979019165,-19.097999572753906 3.25,-19.097999572753906 9.746000289916992,-12.746000289916992 C13.373000144958496,-16.492000579833984 15.206999778747559,-17.815000534057617 15.753000259399414,-17.832000732421875 C15.753000259399414,-17.832000732421875 15.996999740600586,-17.832000732421875 15.996999740600586,-17.832000732421875 C17.27400016784668,-17.832000732421875 18.309999465942383,-9.619999885559082 18.309999465942383,0.5090000033378601 C18.309999465942383,0.5090000033378601 18.309999465942383,0.5090000033378601 18.309999465942383,0.5090000033378601 C18.309999465942383,0.5090000033378601 18.309999465942383,-0.6019999980926514 18.309999465942383,-0.6019999980926514 C18.309999465942383,-0.6019999980926514 18.309999465942383,1.6399999856948853 18.309999465942383,1.6399999856948853 C18.309999465942383,10.583000183105469 11.060999870300293,17.832000732421875 2.118000030517578,17.832000732421875 C2.118000030517578,17.832000732421875 -2.117000102996826,17.832000732421875 -2.117000102996826,17.832000732421875 C-11.0600004196167,17.832000732421875 -18.30900001525879,10.583000183105469 -18.30900001525879,1.6399999856948853 C-18.30900001525879,1.6399999856948853 -18.30900001525879,-0.6019999980926514 -18.30900001525879,-0.6019999980926514"></path><path fill="rgb(225,169,58)" fill-opacity="1" d=" M-18.309999465942383,0.5090000033378601 C-18.309999465942383,0.5090000033378601 -18.309999465942383,0.5090000033378601 -18.309999465942383,0.5090000033378601 C-18.309999465942383,-9.619999885559082 -17.27400016784668,-17.832000732421875 -15.996999740600586,-17.832000732421875 C-15.996999740600586,-17.832000732421875 -15.753000259399414,-17.832000732421875 -15.753000259399414,-17.832000732421875 C-15.206999778747559,-17.815000534057617 -13.373000144958496,-16.492000579833984 -9.746000289916992,-12.746000289916992 C-3.246999979019165,-19.097999572753906 3.25,-19.097999572753906 9.746000289916992,-12.746000289916992 C13.373000144958496,-16.492000579833984 15.206999778747559,-17.815000534057617 15.753000259399414,-17.832000732421875 C15.753000259399414,-17.832000732421875 15.996999740600586,-17.832000732421875 15.996999740600586,-17.832000732421875 C17.27400016784668,-17.832000732421875 18.309999465942383,-9.619999885559082 18.309999465942383,0.5090000033378601 C18.309999465942383,0.5090000033378601 18.309999465942383,0.5090000033378601 18.309999465942383,0.5090000033378601 C18.309999465942383,0.5090000033378601 18.309999465942383,-0.6019999980926514 18.309999465942383,-0.6019999980926514 C18.309999465942383,-0.6019999980926514 18.309999465942383,1.6399999856948853 18.309999465942383,1.6399999856948853 C18.309999465942383,10.583000183105469 11.060999870300293,17.832000732421875 2.118000030517578,17.832000732421875 C2.118000030517578,17.832000732421875 -2.117000102996826,17.832000732421875 -2.117000102996826,17.832000732421875 C-11.0600004196167,17.832000732421875 -18.30900001525879,10.583000183105469 -18.30900001525879,1.6399999856948853 C-18.30900001525879,1.6399999856948853 -18.30900001525879,-0.6019999980926514 -18.30900001525879,-0.6019999980926514"></path></g><g opacity="1" transform="matrix(1,0,0,1,250,349.6310119628906)"><path stroke-linecap="round" stroke-linejoin="round" fill-opacity="0" stroke="rgb(225,169,58)" stroke-opacity="1" stroke-width="13.5" d=" M34.12799835205078,-71.43199920654297 C34.12799835205078,-71.43199920654297 43.09600067138672,-70.93399810791016 43.09600067138672,-70.93399810791016 C86.57599639892578,-70.93399810791016 121.81500244140625,-35.69499969482422 121.81500244140625,7.784999847412109 C121.81500244140625,7.784999847412109 121.81500244140625,39.297000885009766 121.81500244140625,39.297000885009766 C121.81500244140625,47.75600051879883 114.9530029296875,54.617000579833984 106.49400329589844,54.617000579833984 C106.49400329589844,54.617000579833984 87.06400299072266,54.617000579833984 87.06400299072266,54.617000579833984 C48.57699966430664,57.60599899291992 49.06999969482422,71.43199920654297 16.898000717163086,71.43199920654297 C16.898000717163086,71.43199920654297 -16.898000717163086,71.43199920654297 -16.898000717163086,71.43199920654297 C-49.06999969482422,71.43199920654297 -48.57699966430664,57.60599899291992 -87.06400299072266,54.617000579833984 C-87.06400299072266,54.617000579833984 -106.49400329589844,54.617000579833984 -106.49400329589844,54.617000579833984 C-114.9530029296875,54.617000579833984 -121.81500244140625,47.75600051879883 -121.81500244140625,39.297000885009766 C-121.81500244140625,39.297000885009766 -121.81500244140625,7.784999847412109 -121.81500244140625,7.784999847412109 C-121.81500244140625,-35.69499969482422 -86.57599639892578,-70.93399810791016 -43.09600067138672,-70.93399810791016 C-43.09600067138672,-70.93399810791016 -34.12799835205078,-71.43199920654297 -34.12799835205078,-71.43199920654297"></path></g></g></g></mask><clipPath id="__lottie_element_2800"><path d="M0,0 L500,0 L500,500 L0,500z"></path></clipPath><filter id="__lottie_element_2810" filterUnits="objectBoundingBox" x="0%" y="0%" width="100%" height="100%"><feComponentTransfer in="SourceGraphic"><feFuncA type="table" tableValues="1.0 0.0"></feFuncA></feComponentTransfer></filter><mask id="__lottie_element_2809" mask-type="alpha"><g filter="url(#__lottie_element_2810)"><rect width="500" height="500" x="0" y="0" fill="#ffffff" opacity="0"></rect><g clip-path="url(#__lottie_element_2811)" transform="matrix(1,0,0,1,0,0)" opacity="1" style="display: block;"><g transform="matrix(0.8899999856948853,0,0,0.8899999856948853,27.5,33.87359619140625)" opacity="1" style="display: block;"><g opacity="1" transform="matrix(1,0,0,1,249.43899536132812,220.58200073242188)"><path fill="rgb(255,0,0)" fill-opacity="1" d=" M61.573001861572266,-113.69599914550781 C61.573001861572266,-113.69599914550781 61.965999603271484,-44.26900100708008 61.965999603271484,-44.26900100708008 C61.965999603271484,-44.26900100708008 61.965999603271484,-13.8149995803833 61.965999603271484,-13.8149995803833 C61.965999603271484,19.990999221801758 34.553001403808594,47.40399932861328 0.746999979019165,47.40399932861328 C0.746999979019165,47.40399932861328 -0.746999979019165,47.40399932861328 -0.746999979019165,47.40399932861328 C-34.553001403808594,47.40399932861328 -61.965999603271484,19.990999221801758 -61.965999603271484,-13.8149995803833 C-61.965999603271484,-13.8149995803833 -61.573001861572266,-89.91100311279297 -61.573001861572266,-89.91100311279297"></path></g><g opacity="1" transform="matrix(1,0,0,1,245.9720001220703,128.26400756835938)"><path fill="rgb(255,0,0)" fill-opacity="1" d=" M65.43299865722656,48.04800033569336 C65.43299865722656,48.04800033569336 68.04900360107422,8.4399995803833 27.444000244140625,-12.734000205993652 C27.444000244140625,-12.734000205993652 15.050999641418457,33.28799819946289 -62.39899826049805,49.32699966430664 C-62.39899826049805,49.32699966430664 -88.9530029296875,-28.865999221801758 -55.792999267578125,-47.85499954223633 C-52.077999114990234,-49.981998443603516 -45.981998443603516,-49.76499938964844 -42.37699890136719,-47.457000732421875 C-37.31700134277344,-44.21799850463867 -32.24100112915039,-38.9379997253418 -29.041000366210938,-36.2130012512207 C-26.61199951171875,-34.14400100708008 -23.5,-33.04199981689453 -20.312999725341797,-33.198001861572266 C-15.920000076293945,-33.41299819946289 -9.836000442504883,-34.67300033569336 -3.8299999237060547,-37.89400100708008 C44.22200012207031,-56.99300003051758 72.99500274658203,-35.01300048828125 72.40899658203125,-6.506999969482422 C71.86399841308594,20.020000457763672 74.89900207519531,42.069000244140625 65.43299865722656,48.04800033569336z"></path></g></g><g transform="matrix(0.8899999856948853,0,0,0.8899999856948853,27.5,33.87359619140625)" opacity="1" style="display: block;"><g opacity="1" transform="matrix(1,0,0,1,248.75399780273438,284.14599609375)"><path stroke-linecap="round" stroke-linejoin="round" fill-opacity="0" stroke="rgb(0,0,0)" stroke-opacity="1" stroke-width="0" d=" M-32.882999420166016,-25.68899917602539 C-32.882999420166016,-25.68899917602539 -32.882999420166016,-5.947000026702881 -32.882999420166016,-5.947000026702881 C-32.882999420166016,11.522000312805176 -18.71500015258789,25.68899917602539 -1.246000051498413,25.68899917602539 C-1.246000051498413,25.68899917602539 1.246000051498413,25.68899917602539 1.246000051498413,25.68899917602539 C18.71500015258789,25.68899917602539 32.882999420166016,11.522000312805176 32.882999420166016,-5.947000026702881 C32.882999420166016,-5.947000026702881 32.882999420166016,-24.849000930786133 32.882999420166016,-24.849000930786133"></path><path fill="rgb(255,0,0)" fill-opacity="1" d=" M-32.882999420166016,-25.68899917602539 C-32.882999420166016,-25.68899917602539 -32.882999420166016,-5.947000026702881 -32.882999420166016,-5.947000026702881 C-32.882999420166016,11.522000312805176 -18.71500015258789,25.68899917602539 -1.246000051498413,25.68899917602539 C-1.246000051498413,25.68899917602539 1.246000051498413,25.68899917602539 1.246000051498413,25.68899917602539 C18.71500015258789,25.68899917602539 32.882999420166016,11.522000312805176 32.882999420166016,-5.947000026702881 C32.882999420166016,-5.947000026702881 32.882999420166016,-24.849000930786133 32.882999420166016,-24.849000930786133"></path></g><g opacity="1" transform="matrix(1,0,0,1,250,349.6310119628906)"><path stroke-linecap="round" stroke-linejoin="round" fill-opacity="0" stroke="rgb(0,0,0)" stroke-opacity="1" stroke-width="0" d=" M34.12799835205078,-71.43199920654297 C34.12799835205078,-71.43199920654297 43.09600067138672,-70.93399810791016 43.09600067138672,-70.93399810791016 C86.57599639892578,-70.93399810791016 121.81500244140625,-35.69499969482422 121.81500244140625,7.784999847412109 C121.81500244140625,7.784999847412109 121.81500244140625,39.297000885009766 121.81500244140625,39.297000885009766 C121.81500244140625,47.75600051879883 114.9530029296875,54.617000579833984 106.49400329589844,54.617000579833984 C106.49400329589844,54.617000579833984 87.06400299072266,54.617000579833984 87.06400299072266,54.617000579833984 C48.57699966430664,57.60599899291992 49.06999969482422,71.43199920654297 16.898000717163086,71.43199920654297 C16.898000717163086,71.43199920654297 -16.898000717163086,71.43199920654297 -16.898000717163086,71.43199920654297 C-49.06999969482422,71.43199920654297 -48.57699966430664,57.60599899291992 -87.06400299072266,54.617000579833984 C-87.06400299072266,54.617000579833984 -106.49400329589844,54.617000579833984 -106.49400329589844,54.617000579833984 C-114.9530029296875,54.617000579833984 -121.81500244140625,47.75600051879883 -121.81500244140625,39.297000885009766 C-121.81500244140625,39.297000885009766 -121.81500244140625,7.784999847412109 -121.81500244140625,7.784999847412109 C-121.81500244140625,-35.69499969482422 -86.57599639892578,-70.93399810791016 -43.09600067138672,-70.93399810791016 C-43.09600067138672,-70.93399810791016 -34.12799835205078,-71.43199920654297 -34.12799835205078,-71.43199920654297"></path><path fill="rgb(255,0,0)" fill-opacity="1" d=" M34.12799835205078,-71.43199920654297 C34.12799835205078,-71.43199920654297 43.09600067138672,-70.93399810791016 43.09600067138672,-70.93399810791016 C86.57599639892578,-70.93399810791016 121.81500244140625,-35.69499969482422 121.81500244140625,7.784999847412109 C121.81500244140625,7.784999847412109 121.81500244140625,39.297000885009766 121.81500244140625,39.297000885009766 C121.81500244140625,47.75600051879883 114.9530029296875,54.617000579833984 106.49400329589844,54.617000579833984 C106.49400329589844,54.617000579833984 87.06400299072266,54.617000579833984 87.06400299072266,54.617000579833984 C48.57699966430664,57.60599899291992 49.06999969482422,71.43199920654297 16.898000717163086,71.43199920654297 C16.898000717163086,71.43199920654297 -16.898000717163086,71.43199920654297 -16.898000717163086,71.43199920654297 C-49.06999969482422,71.43199920654297 -48.57699966430664,57.60599899291992 -87.06400299072266,54.617000579833984 C-87.06400299072266,54.617000579833984 -106.49400329589844,54.617000579833984 -106.49400329589844,54.617000579833984 C-114.9530029296875,54.617000579833984 -121.81500244140625,47.75600051879883 -121.81500244140625,39.297000885009766 C-121.81500244140625,39.297000885009766 -121.81500244140625,7.784999847412109 -121.81500244140625,7.784999847412109 C-121.81500244140625,-35.69499969482422 -86.57599639892578,-70.93399810791016 -43.09600067138672,-70.93399810791016 C-43.09600067138672,-70.93399810791016 -34.12799835205078,-71.43199920654297 -34.12799835205078,-71.43199920654297"></path></g></g></g></g></mask><clipPath id="__lottie_element_2811"><path d="M0,0 L500,0 L500,500 L0,500z"></path></clipPath><clipPath id="__lottie_element_2821"><path d="M0,0 L500,0 L500,500 L0,500z"></path></clipPath><filter id="__lottie_element_2838" x="-100%" y="-100%" width="300%" height="300%"><feGaussianBlur result="filter_result_0" stdDeviation="52.5 52.5" edgeMode="wrap"></feGaussianBlur></filter></defs><g clip-path="url(#__lottie_element_2793)"><g mask="url(#__lottie_element_2799)" style="display: block;"><g filter="url(#__lottie_element_2838)" transform="matrix(-0.1674155443906784,-2.3941538333892822,2.3941538333892822,-0.1674155443906784,271.9410095214844,270.4599914550781)" opacity="1"><g class="design" opacity="1" transform="matrix(1,0,0,1,0,0)"><path fill="rgb(225,169,58)" fill-opacity="1" d=" M0,-250 C137.97500610351562,-250 250,-137.97500610351562 250,0 C250,137.97500610351562 137.97500610351562,250 0,250 C-137.97500610351562,250 -250,137.97500610351562 -250,0 C-250,-137.97500610351562 -137.97500610351562,-250 0,-250z"></path></g><g class="design" opacity="1" transform="matrix(1,0,0,1,113.24199676513672,-118.88400268554688)"><path fill="rgb(225,169,58)" fill-opacity="1" d=" M0,-176.5 C97.47799682617188,-176.5 176.5,-97.47799682617188 176.5,0 C176.5,97.47799682617188 97.47799682617188,176.5 0,176.5 C-43.948001861572266,176.5 -74.39600372314453,142.4429931640625 -105.29000091552734,115.86900329589844 C-142.92100524902344,83.5 -176.5,53.53099822998047 -176.5,0 C-176.5,-97.47799682617188 -97.47799682617188,-176.5 0,-176.5z"></path></g></g></g><g style="display: none;"><path></path></g></g></svg>