<svg xmlns="http://www.w3.org/2000/svg" viewBox="0 0 500 500" width="500" height="500" preserveAspectRatio="xMidYMid meet" style="width: 100%; height: 100%; transform: translate3d(0px, 0px, 0px); content-visibility: visible;"><defs><clipPath id="__lottie_element_2929"><rect width="500" height="500" x="0" y="0"></rect></clipPath><mask id="__lottie_element_2935" mask-type="alpha"><g clip-path="url(#__lottie_element_2936)" transform="matrix(1,0,0,1,0,0)" opacity="1" style="display: block;"><g transform="matrix(3.740000009536743,0,0,3.740000009536743,250,220.0800018310547)" opacity="1" style="display: block;"><g opacity="1" transform="matrix(1,0,0,1,0,0)"><path stroke-linecap="butt" stroke-linejoin="miter" fill-opacity="0" stroke-miterlimit="4" stroke="rgb(8,168,138)" stroke-opacity="1" stroke-width="3.5" d=" M42.470001220703125,16.975000381469727 C36.21200180053711,1.6679999828338623 29.131999969482422,-15.64900016784668 29.131999969482422,-15.64900016784668 C28.71415901184082,-16.670454025268555 27.478809356689453,-17.503965377807617 26.375019073486328,-17.50885009765625 C26.375019073486328,-17.50885009765625 -26.125019073486328,-17.74114990234375 -26.125019073486328,-17.74114990234375 C-26.125019073486328,-17.74114990234375 -26.125019073486328,-17.74114990234375 -26.125019073486328,-17.74114990234375 C-27.228809356689453,-17.746034622192383 -28.46782112121582,-16.921960830688477 -28.89005470275879,-15.902112007141113 C-28.889999389648438,-15.902000427246094 -36.255001068115234,1.8869999647140503 -42.48099899291992,16.923999786376953"></path></g></g><g transform="matrix(3.740000009536743,0,0,3.740000009536743,250,220.0800018310547)" opacity="1" style="display: block;"><g opacity="1" transform="matrix(1,0,0,1,0.25,23.5)"><path stroke-linecap="butt" stroke-linejoin="miter" fill-opacity="0" stroke-miterlimit="4" stroke="rgb(8,168,138)" stroke-opacity="1" stroke-width="3.5" d=" M42.25,-4.982999801635742 C42.25,-7.1905999183654785 40.45759963989258,-8.982999801635742 38.25,-8.982999801635742 C38.25,-8.982999801635742 -38.71099853515625,-8.982999801635742 -38.71099853515625,-8.982999801635742 C-40.91859817504883,-8.982999801635742 -42.71099853515625,-7.1905999183654785 -42.71099853515625,-4.982999801635742 C-42.71099853515625,-4.982999801635742 -42.71099853515625,7.996000289916992 -42.71099853515625,7.996000289916992 C-42.71099853515625,10.20359992980957 -40.91859817504883,11.996000289916992 -38.71099853515625,11.996000289916992 C-38.71099853515625,11.996000289916992 38.25,11.996000289916992 38.25,11.996000289916992 C40.45759963989258,11.996000289916992 42.25,10.20359992980957 42.25,7.996000289916992 C42.25,7.996000289916992 42.25,-4.982999801635742 42.25,-4.982999801635742z"></path></g></g><g transform="matrix(3.740000009536743,0,0,3.740000009536743,250,220.0800018310547)" opacity="1" style="display: block;"><g opacity="1" transform="matrix(1,0,0,1,0,0)"><g opacity="1" transform="matrix(1,0,0,1,-2.25,22.437999725341797)"><path fill="rgb(8,168,138)" fill-opacity="1" d=" M0,-1.9285000562667847 C1.1038000583648682,-1.9285000562667847 2,-1.0643391609191895 2,0 C2,1.0643391609191895 1.1038000583648682,1.9285000562667847 0,1.9285000562667847 C-1.1038000583648682,1.9285000562667847 -2,1.0643391609191895 -2,0 C-2,-1.0643391609191895 -1.1038000583648682,-1.9285000562667847 0,-1.9285000562667847z"></path><path stroke-linecap="butt" stroke-linejoin="miter" fill-opacity="0" stroke-miterlimit="4" stroke="rgb(8,168,138)" stroke-opacity="1" stroke-width="0" d=" M0,-1.9285000562667847 C1.1038000583648682,-1.9285000562667847 2,-1.0643391609191895 2,0 C2,1.0643391609191895 1.1038000583648682,1.9285000562667847 0,1.9285000562667847 C-1.1038000583648682,1.9285000562667847 -2,1.0643391609191895 -2,0 C-2,-1.0643391609191895 -1.1038000583648682,-1.9285000562667847 0,-1.9285000562667847z"></path></g><g opacity="1" transform="matrix(1,0,0,1,4,22.437999725341797)"><path fill="rgb(8,168,138)" fill-opacity="1" d=" M0,-1.9285000562667847 C1.1038000583648682,-1.9285000562667847 2,-1.0643391609191895 2,0 C2,1.0643391609191895 1.1038000583648682,1.9285000562667847 0,1.9285000562667847 C-1.1038000583648682,1.9285000562667847 -2,1.0643391609191895 -2,0 C-2,-1.0643391609191895 -1.1038000583648682,-1.9285000562667847 0,-1.9285000562667847z"></path><path stroke-linecap="butt" stroke-linejoin="miter" fill-opacity="0" stroke-miterlimit="4" stroke="rgb(8,168,138)" stroke-opacity="1" stroke-width="0" d=" M0,-1.9285000562667847 C1.1038000583648682,-1.9285000562667847 2,-1.0643391609191895 2,0 C2,1.0643391609191895 1.1038000583648682,1.9285000562667847 0,1.9285000562667847 C-1.1038000583648682,1.9285000562667847 -2,1.0643391609191895 -2,0 C-2,-1.0643391609191895 -1.1038000583648682,-1.9285000562667847 0,-1.9285000562667847z"></path></g><g opacity="1" transform="matrix(1,0,0,1,10.25,22.437999725341797)"><path fill="rgb(8,168,138)" fill-opacity="1" d=" M0,-1.9285000562667847 C1.1038000583648682,-1.9285000562667847 2,-1.0643391609191895 2,0 C2,1.0643391609191895 1.1038000583648682,1.9285000562667847 0,1.9285000562667847 C-1.1038000583648682,1.9285000562667847 -2,1.0643391609191895 -2,0 C-2,-1.0643391609191895 -1.1038000583648682,-1.9285000562667847 0,-1.9285000562667847z"></path><path stroke-linecap="butt" stroke-linejoin="miter" fill-opacity="0" stroke-miterlimit="4" stroke="rgb(8,168,138)" stroke-opacity="1" stroke-width="0" d=" M0,-1.9285000562667847 C1.1038000583648682,-1.9285000562667847 2,-1.0643391609191895 2,0 C2,1.0643391609191895 1.1038000583648682,1.9285000562667847 0,1.9285000562667847 C-1.1038000583648682,1.9285000562667847 -2,1.0643391609191895 -2,0 C-2,-1.0643391609191895 -1.1038000583648682,-1.9285000562667847 0,-1.9285000562667847z"></path></g><g opacity="1" transform="matrix(1,0,0,1,16.5,22.437999725341797)"><path fill="rgb(8,168,138)" fill-opacity="1" d=" M0,-1.9285000562667847 C1.1038000583648682,-1.9285000562667847 2,-1.0643391609191895 2,0 C2,1.0643391609191895 1.1038000583648682,1.9285000562667847 0,1.9285000562667847 C-1.1038000583648682,1.9285000562667847 -2,1.0643391609191895 -2,0 C-2,-1.0643391609191895 -1.1038000583648682,-1.9285000562667847 0,-1.9285000562667847z"></path><path stroke-linecap="butt" stroke-linejoin="miter" fill-opacity="0" stroke-miterlimit="4" stroke="rgb(8,168,138)" stroke-opacity="1" stroke-width="0" d=" M0,-1.9285000562667847 C1.1038000583648682,-1.9285000562667847 2,-1.0643391609191895 2,0 C2,1.0643391609191895 1.1038000583648682,1.9285000562667847 0,1.9285000562667847 C-1.1038000583648682,1.9285000562667847 -2,1.0643391609191895 -2,0 C-2,-1.0643391609191895 -1.1038000583648682,-1.9285000562667847 0,-1.9285000562667847z"></path></g><g opacity="1" transform="matrix(1,0,0,1,22.75,22.437999725341797)"><path fill="rgb(8,168,138)" fill-opacity="1" d=" M0,-1.9285000562667847 C1.1038000583648682,-1.9285000562667847 2,-1.0643391609191895 2,0 C2,1.0643391609191895 1.1038000583648682,1.9285000562667847 0,1.9285000562667847 C-1.1038000583648682,1.9285000562667847 -2,1.0643391609191895 -2,0 C-2,-1.0643391609191895 -1.1038000583648682,-1.9285000562667847 0,-1.9285000562667847z"></path><path stroke-linecap="butt" stroke-linejoin="miter" fill-opacity="0" stroke-miterlimit="4" stroke="rgb(8,168,138)" stroke-opacity="1" stroke-width="0" d=" M0,-1.9285000562667847 C1.1038000583648682,-1.9285000562667847 2,-1.0643391609191895 2,0 C2,1.0643391609191895 1.1038000583648682,1.9285000562667847 0,1.9285000562667847 C-1.1038000583648682,1.9285000562667847 -2,1.0643391609191895 -2,0 C-2,-1.0643391609191895 -1.1038000583648682,-1.9285000562667847 0,-1.9285000562667847z"></path></g><g opacity="1" transform="matrix(1,0,0,1,29,22.437999725341797)"><path fill="rgb(8,168,138)" fill-opacity="1" d=" M0,-1.9285000562667847 C1.1038000583648682,-1.9285000562667847 2,-1.0643391609191895 2,0 C2,1.0643391609191895 1.1038000583648682,1.9285000562667847 0,1.9285000562667847 C-1.1038000583648682,1.9285000562667847 -2,1.0643391609191895 -2,0 C-2,-1.0643391609191895 -1.1038000583648682,-1.9285000562667847 0,-1.9285000562667847z"></path><path stroke-linecap="butt" stroke-linejoin="miter" fill-opacity="0" stroke-miterlimit="4" stroke="rgb(8,168,138)" stroke-opacity="1" stroke-width="0" d=" M0,-1.9285000562667847 C1.1038000583648682,-1.9285000562667847 2,-1.0643391609191895 2,0 C2,1.0643391609191895 1.1038000583648682,1.9285000562667847 0,1.9285000562667847 C-1.1038000583648682,1.9285000562667847 -2,1.0643391609191895 -2,0 C-2,-1.0643391609191895 -1.1038000583648682,-1.9285000562667847 0,-1.9285000562667847z"></path></g><g opacity="1" transform="matrix(1,0,0,1,35.25,22.437999725341797)"><path fill="rgb(8,168,138)" fill-opacity="1" d=" M0,-1.9285000562667847 C1.1038000583648682,-1.9285000562667847 2,-1.0643391609191895 2,0 C2,1.0643391609191895 1.1038000583648682,1.9285000562667847 0,1.9285000562667847 C-1.1038000583648682,1.9285000562667847 -2,1.0643391609191895 -2,0 C-2,-1.0643391609191895 -1.1038000583648682,-1.9285000562667847 0,-1.9285000562667847z"></path><path stroke-linecap="butt" stroke-linejoin="miter" fill-opacity="0" stroke-miterlimit="4" stroke="rgb(8,168,138)" stroke-opacity="1" stroke-width="0" d=" M0,-1.9285000562667847 C1.1038000583648682,-1.9285000562667847 2,-1.0643391609191895 2,0 C2,1.0643391609191895 1.1038000583648682,1.9285000562667847 0,1.9285000562667847 C-1.1038000583648682,1.9285000562667847 -2,1.0643391609191895 -2,0 C-2,-1.0643391609191895 -1.1038000583648682,-1.9285000562667847 0,-1.9285000562667847z"></path></g></g><g opacity="1" transform="matrix(1,0,0,1,0,6.25)"><g opacity="1" transform="matrix(1,0,0,1,-2.25,22.437999725341797)"><path fill="rgb(8,168,138)" fill-opacity="1" d=" M0,-1.9285000562667847 C1.1038000583648682,-1.9285000562667847 2,-1.0643391609191895 2,0 C2,1.0643391609191895 1.1038000583648682,1.9285000562667847 0,1.9285000562667847 C-1.1038000583648682,1.9285000562667847 -2,1.0643391609191895 -2,0 C-2,-1.0643391609191895 -1.1038000583648682,-1.9285000562667847 0,-1.9285000562667847z"></path><path stroke-linecap="butt" stroke-linejoin="miter" fill-opacity="0" stroke-miterlimit="4" stroke="rgb(8,168,138)" stroke-opacity="1" stroke-width="0" d=" M0,-1.9285000562667847 C1.1038000583648682,-1.9285000562667847 2,-1.0643391609191895 2,0 C2,1.0643391609191895 1.1038000583648682,1.9285000562667847 0,1.9285000562667847 C-1.1038000583648682,1.9285000562667847 -2,1.0643391609191895 -2,0 C-2,-1.0643391609191895 -1.1038000583648682,-1.9285000562667847 0,-1.9285000562667847z"></path></g><g opacity="1" transform="matrix(1,0,0,1,4,22.437999725341797)"><path fill="rgb(8,168,138)" fill-opacity="1" d=" M0,-1.9285000562667847 C1.1038000583648682,-1.9285000562667847 2,-1.0643391609191895 2,0 C2,1.0643391609191895 1.1038000583648682,1.9285000562667847 0,1.9285000562667847 C-1.1038000583648682,1.9285000562667847 -2,1.0643391609191895 -2,0 C-2,-1.0643391609191895 -1.1038000583648682,-1.9285000562667847 0,-1.9285000562667847z"></path><path stroke-linecap="butt" stroke-linejoin="miter" fill-opacity="0" stroke-miterlimit="4" stroke="rgb(8,168,138)" stroke-opacity="1" stroke-width="0" d=" M0,-1.9285000562667847 C1.1038000583648682,-1.9285000562667847 2,-1.0643391609191895 2,0 C2,1.0643391609191895 1.1038000583648682,1.9285000562667847 0,1.9285000562667847 C-1.1038000583648682,1.9285000562667847 -2,1.0643391609191895 -2,0 C-2,-1.0643391609191895 -1.1038000583648682,-1.9285000562667847 0,-1.9285000562667847z"></path></g><g opacity="1" transform="matrix(1,0,0,1,10.25,22.437999725341797)"><path fill="rgb(8,168,138)" fill-opacity="1" d=" M0,-1.9285000562667847 C1.1038000583648682,-1.9285000562667847 2,-1.0643391609191895 2,0 C2,1.0643391609191895 1.1038000583648682,1.9285000562667847 0,1.9285000562667847 C-1.1038000583648682,1.9285000562667847 -2,1.0643391609191895 -2,0 C-2,-1.0643391609191895 -1.1038000583648682,-1.9285000562667847 0,-1.9285000562667847z"></path><path stroke-linecap="butt" stroke-linejoin="miter" fill-opacity="0" stroke-miterlimit="4" stroke="rgb(8,168,138)" stroke-opacity="1" stroke-width="0" d=" M0,-1.9285000562667847 C1.1038000583648682,-1.9285000562667847 2,-1.0643391609191895 2,0 C2,1.0643391609191895 1.1038000583648682,1.9285000562667847 0,1.9285000562667847 C-1.1038000583648682,1.9285000562667847 -2,1.0643391609191895 -2,0 C-2,-1.0643391609191895 -1.1038000583648682,-1.9285000562667847 0,-1.9285000562667847z"></path></g><g opacity="1" transform="matrix(1,0,0,1,16.5,22.437999725341797)"><path fill="rgb(8,168,138)" fill-opacity="1" d=" M0,-1.9285000562667847 C1.1038000583648682,-1.9285000562667847 2,-1.0643391609191895 2,0 C2,1.0643391609191895 1.1038000583648682,1.9285000562667847 0,1.9285000562667847 C-1.1038000583648682,1.9285000562667847 -2,1.0643391609191895 -2,0 C-2,-1.0643391609191895 -1.1038000583648682,-1.9285000562667847 0,-1.9285000562667847z"></path><path stroke-linecap="butt" stroke-linejoin="miter" fill-opacity="0" stroke-miterlimit="4" stroke="rgb(8,168,138)" stroke-opacity="1" stroke-width="0" d=" M0,-1.9285000562667847 C1.1038000583648682,-1.9285000562667847 2,-1.0643391609191895 2,0 C2,1.0643391609191895 1.1038000583648682,1.9285000562667847 0,1.9285000562667847 C-1.1038000583648682,1.9285000562667847 -2,1.0643391609191895 -2,0 C-2,-1.0643391609191895 -1.1038000583648682,-1.9285000562667847 0,-1.9285000562667847z"></path></g><g opacity="1" transform="matrix(1,0,0,1,22.75,22.437999725341797)"><path fill="rgb(8,168,138)" fill-opacity="1" d=" M0,-1.9285000562667847 C1.1038000583648682,-1.9285000562667847 2,-1.0643391609191895 2,0 C2,1.0643391609191895 1.1038000583648682,1.9285000562667847 0,1.9285000562667847 C-1.1038000583648682,1.9285000562667847 -2,1.0643391609191895 -2,0 C-2,-1.0643391609191895 -1.1038000583648682,-1.9285000562667847 0,-1.9285000562667847z"></path><path stroke-linecap="butt" stroke-linejoin="miter" fill-opacity="0" stroke-miterlimit="4" stroke="rgb(8,168,138)" stroke-opacity="1" stroke-width="0" d=" M0,-1.9285000562667847 C1.1038000583648682,-1.9285000562667847 2,-1.0643391609191895 2,0 C2,1.0643391609191895 1.1038000583648682,1.9285000562667847 0,1.9285000562667847 C-1.1038000583648682,1.9285000562667847 -2,1.0643391609191895 -2,0 C-2,-1.0643391609191895 -1.1038000583648682,-1.9285000562667847 0,-1.9285000562667847z"></path></g><g opacity="1" transform="matrix(1,0,0,1,29,22.437999725341797)"><path fill="rgb(8,168,138)" fill-opacity="1" d=" M0,-1.9285000562667847 C1.1038000583648682,-1.9285000562667847 2,-1.0643391609191895 2,0 C2,1.0643391609191895 1.1038000583648682,1.9285000562667847 0,1.9285000562667847 C-1.1038000583648682,1.9285000562667847 -2,1.0643391609191895 -2,0 C-2,-1.0643391609191895 -1.1038000583648682,-1.9285000562667847 0,-1.9285000562667847z"></path><path stroke-linecap="butt" stroke-linejoin="miter" fill-opacity="0" stroke-miterlimit="4" stroke="rgb(8,168,138)" stroke-opacity="1" stroke-width="0" d=" M0,-1.9285000562667847 C1.1038000583648682,-1.9285000562667847 2,-1.0643391609191895 2,0 C2,1.0643391609191895 1.1038000583648682,1.9285000562667847 0,1.9285000562667847 C-1.1038000583648682,1.9285000562667847 -2,1.0643391609191895 -2,0 C-2,-1.0643391609191895 -1.1038000583648682,-1.9285000562667847 0,-1.9285000562667847z"></path></g><g opacity="1" transform="matrix(1,0,0,1,35.25,22.437999725341797)"><path fill="rgb(8,168,138)" fill-opacity="1" d=" M0,-1.9285000562667847 C1.1038000583648682,-1.9285000562667847 2,-1.0643391609191895 2,0 C2,1.0643391609191895 1.1038000583648682,1.9285000562667847 0,1.9285000562667847 C-1.1038000583648682,1.9285000562667847 -2,1.0643391609191895 -2,0 C-2,-1.0643391609191895 -1.1038000583648682,-1.9285000562667847 0,-1.9285000562667847z"></path><path stroke-linecap="butt" stroke-linejoin="miter" fill-opacity="0" stroke-miterlimit="4" stroke="rgb(8,168,138)" stroke-opacity="1" stroke-width="0" d=" M0,-1.9285000562667847 C1.1038000583648682,-1.9285000562667847 2,-1.0643391609191895 2,0 C2,1.0643391609191895 1.1038000583648682,1.9285000562667847 0,1.9285000562667847 C-1.1038000583648682,1.9285000562667847 -2,1.0643391609191895 -2,0 C-2,-1.0643391609191895 -1.1038000583648682,-1.9285000562667847 0,-1.9285000562667847z"></path></g></g><g opacity="1" transform="matrix(1,0,0,1,-22.25,26)"><path stroke-linecap="butt" stroke-linejoin="miter" fill-opacity="0" stroke-miterlimit="4" stroke="rgb(8,168,138)" stroke-opacity="1" stroke-width="3.5" d=" M-8,-4.5 C-5.792399883270264,-4.5 -4,-2.7076001167297363 -4,-0.5 C-4,-0.5 -4,-0.5 -4,-0.5 C-4,1.7075999975204468 -5.792399883270264,3.5 -8,3.5 C-8,3.5 -8,3.5 -8,3.5 C-10.207599639892578,3.5 -12,1.7075999975204468 -12,-0.5 C-12,-0.5 -12,-0.5 -12,-0.5 C-12,-2.7076001167297363 -10.207599639892578,-4.5 -8,-4.5 C-8,-4.5 -8,-4.5 -8,-4.5z"></path><path fill="rgb(255,0,0)" fill-opacity="1" d=" M-8,-4.5 C-5.792399883270264,-4.5 -4,-2.7076001167297363 -4,-0.5 C-4,-0.5 -4,-0.5 -4,-0.5 C-4,1.7075999975204468 -5.792399883270264,3.5 -8,3.5 C-8,3.5 -8,3.5 -8,3.5 C-10.207599639892578,3.5 -12,1.7075999975204468 -12,-0.5 C-12,-0.5 -12,-0.5 -12,-0.5 C-12,-2.7076001167297363 -10.207599639892578,-4.5 -8,-4.5 C-8,-4.5 -8,-4.5 -8,-4.5z"></path></g></g></g></mask><clipPath id="__lottie_element_2936"><path d="M0,0 L500,0 L500,500 L0,500z"></path></clipPath><filter id="__lottie_element_2951" x="-100%" y="-100%" width="300%" height="300%"><feGaussianBlur result="filter_result_0" stdDeviation="52.5 52.5" edgeMode="wrap"></feGaussianBlur></filter></defs><g clip-path="url(#__lottie_element_2929)"><g mask="url(#__lottie_element_2935)" style="display: block;"><g filter="url(#__lottie_element_2951)" transform="matrix(-0.1674155443906784,-2.3941538333892822,2.3941538333892822,-0.1674155443906784,271.9410095214844,270.4599914550781)" opacity="1"><g class="design" opacity="1" transform="matrix(1,0,0,1,0,0)"><path fill="rgb(225,169,58)" fill-opacity="1" d=" M0,-250 C137.97500610351562,-250 250,-137.97500610351562 250,0 C250,137.97500610351562 137.97500610351562,250 0,250 C-137.97500610351562,250 -250,137.97500610351562 -250,0 C-250,-137.97500610351562 -137.97500610351562,-250 0,-250z"></path></g><g class="design" opacity="1" transform="matrix(1,0,0,1,113.24199676513672,-118.88400268554688)"><path fill="rgb(225,169,58)" fill-opacity="1" d=" M0,-176.5 C97.47799682617188,-176.5 176.5,-97.47799682617188 176.5,0 C176.5,97.47799682617188 97.47799682617188,176.5 0,176.5 C-43.948001861572266,176.5 -74.39600372314453,142.4429931640625 -105.29000091552734,115.86900329589844 C-142.92100524902344,83.5 -176.5,53.53099822998047 -176.5,0 C-176.5,-97.47799682617188 -97.47799682617188,-176.5 0,-176.5z"></path></g></g></g><g style="display: none;"><path></path></g></g></svg>