<svg xmlns="http://www.w3.org/2000/svg" viewBox="0 0 500 500" width="500" height="500" preserveAspectRatio="xMidYMid meet" style="width: 100%; height: 100%; transform: translate3d(0px, 0px, 0px); content-visibility: visible;"><defs><clipPath id="__lottie_element_3162"><rect width="500" height="500" x="0" y="0"></rect></clipPath><mask id="__lottie_element_3168" mask-type="alpha"><g clip-path="url(#__lottie_element_3169)" transform="matrix(1,0,0,1,0,0)" opacity="1" style="display: block;"><g transform="matrix(1,0,0,1,0,0)" opacity="1" style="display: block;"><g opacity="1" transform="matrix(1,0,0,1,159.98399353027344,293.2510070800781)"><path stroke-linecap="round" stroke-linejoin="round" fill-opacity="0" stroke="rgb(18,19,49)" stroke-opacity="1" stroke-width="12" d=" M-17.840999603271484,57.590999603271484 C-17.840999603271484,57.590999603271484 17.840999603271484,57.590999603271484 17.840999603271484,57.590999603271484 C37.54800033569336,57.590999603271484 53.52299880981445,73.56600189208984 53.52299880981445,93.27300262451172 C53.52299880981445,93.27300262451172 53.52299880981445,105.20999908447266 53.52299880981445,105.20999908447266 C53.52299880981445,108.48500061035156 51.069000244140625,111.23999786376953 47.816001892089844,111.61599731445312 C47.816001892089844,111.61599731445312 35.33000183105469,113.05999755859375 35.33000183105469,113.05999755859375 C31.917999267578125,113.45500183105469 28.57900047302246,114.3270034790039 25.40999984741211,115.6520004272461 C25.40999984741211,115.6520004272461 25.40999984741211,115.6520004272461 25.40999984741211,115.6520004272461 C9.112000465393066,122.46600341796875 -9.234000205993652,122.48400115966797 -25.54599952697754,115.7040023803711 C-25.54599952697754,115.7040023803711 -25.631999969482422,115.66899871826172 -25.631999969482422,115.66899871826172 C-28.93899917602539,114.29399871826172 -32.42100143432617,113.38899993896484 -35.979000091552734,112.97899627685547 C-35.979000091552734,112.97899627685547 -47.8129997253418,111.61399841308594 -47.8129997253418,111.61399841308594 C-51.06700134277344,111.23899841308594 -53.52299880981445,108.48400115966797 -53.52299880981445,105.20800018310547 C-53.52299880981445,105.20800018310547 -53.52299880981445,93.27300262451172 -53.52299880981445,93.27300262451172 C-53.52299880981445,73.56600189208984 -37.54800033569336,57.590999603271484 -17.840999603271484,57.590999603271484z M-0.8339999914169312,-37.617000579833984 C-0.8339999914169312,-37.617000579833984 0.8339999914169312,-37.617000579833984 0.8339999914169312,-37.617000579833984 C15.336000442504883,-37.617000579833984 26.948999404907227,-25.593000411987305 26.44499969482422,-11.098999977111816 C26.44499969482422,-11.098999977111816 25.611000061035156,12.880999565124512 25.611000061035156,12.880999565124512 C25.131000518798828,26.679000854492188 13.805999755859375,37.617000579833984 0,37.617000579833984 C0,37.617000579833984 0,37.617000579833984 0,37.617000579833984 C-13.805999755859375,37.617000579833984 -25.131000518798828,26.679000854492188 -25.611000061035156,12.880999565124512 C-25.611000061035156,12.880999565124512 -26.44499969482422,-11.098999977111816 -26.44499969482422,-11.098999977111816 C-26.948999404907227,-25.593000411987305 -15.336000442504883,-37.617000579833984 -0.8339999914169312,-37.617000579833984z"></path></g></g><g transform="matrix(1,0,0,1,0,0)" opacity="1" style="display: block;"><g opacity="1" transform="matrix(1,0,0,1,339.12200927734375,289.8340148925781)"><path stroke-linecap="round" stroke-linejoin="round" fill-opacity="0" stroke="rgb(18,19,49)" stroke-opacity="1" stroke-width="12" d=" M-17.840999603271484,57.590999603271484 C-17.840999603271484,57.590999603271484 17.840999603271484,57.590999603271484 17.840999603271484,57.590999603271484 C37.54800033569336,57.590999603271484 53.52299880981445,73.56600189208984 53.52299880981445,93.27300262451172 C53.52299880981445,93.27300262451172 53.52299880981445,105.20999908447266 53.52299880981445,105.20999908447266 C53.52299880981445,108.48500061035156 51.069000244140625,111.23999786376953 47.816001892089844,111.61599731445312 C47.816001892089844,111.61599731445312 35.33000183105469,113.05999755859375 35.33000183105469,113.05999755859375 C31.917999267578125,113.45500183105469 28.57900047302246,114.3270034790039 25.40999984741211,115.6520004272461 C25.40999984741211,115.6520004272461 25.40999984741211,115.6520004272461 25.40999984741211,115.6520004272461 C9.112000465393066,122.46600341796875 -9.234000205993652,122.48400115966797 -25.54599952697754,115.7040023803711 C-25.54599952697754,115.7040023803711 -25.631999969482422,115.66899871826172 -25.631999969482422,115.66899871826172 C-28.93899917602539,114.29399871826172 -32.42100143432617,113.38899993896484 -35.979000091552734,112.97899627685547 C-35.979000091552734,112.97899627685547 -47.8129997253418,111.61399841308594 -47.8129997253418,111.61399841308594 C-51.06700134277344,111.23899841308594 -53.52299880981445,108.48400115966797 -53.52299880981445,105.20800018310547 C-53.52299880981445,105.20800018310547 -53.52299880981445,93.27300262451172 -53.52299880981445,93.27300262451172 C-53.52299880981445,73.56600189208984 -37.54800033569336,57.590999603271484 -17.840999603271484,57.590999603271484z M-0.8339999914169312,-37.617000579833984 C-0.8339999914169312,-37.617000579833984 0.8339999914169312,-37.617000579833984 0.8339999914169312,-37.617000579833984 C15.336000442504883,-37.617000579833984 26.948999404907227,-25.593000411987305 26.44499969482422,-11.098999977111816 C26.44499969482422,-11.098999977111816 25.611000061035156,12.880999565124512 25.611000061035156,12.880999565124512 C25.131000518798828,26.679000854492188 13.805999755859375,37.617000579833984 0,37.617000579833984 C0,37.617000579833984 0,37.617000579833984 0,37.617000579833984 C-13.805999755859375,37.617000579833984 -25.131000518798828,26.679000854492188 -25.611000061035156,12.880999565124512 C-25.611000061035156,12.880999565124512 -26.44499969482422,-11.098999977111816 -26.44499969482422,-11.098999977111816 C-26.948999404907227,-25.593000411987305 -15.336000442504883,-37.617000579833984 -0.8339999914169312,-37.617000579833984z"></path></g></g><g mask="url(#__lottie_element_3175)" style="display: block;"><g transform="matrix(1,0,0,1,211.98699951171875,186.71099853515625)" opacity="1"><g opacity="1" transform="matrix(1,0,0,1,0,0)"><path stroke-linecap="round" stroke-linejoin="round" fill-opacity="0" stroke="rgb(8,167,137)" stroke-opacity="1" stroke-width="12" d=" M34.36899948120117,28.937999725341797 C34.36899948120117,28.937999725341797 -0.7519999742507935,63.58700180053711 -0.7519999742507935,63.58700180053711 C-0.7519999742507935,63.58700180053711 -34.93899917602539,28.937999725341797 -34.93899917602539,28.937999725341797 C-34.93899917602539,28.937999725341797 -79.60700225830078,28.937999725341797 -79.60700225830078,28.937999725341797 C-85.25599670410156,28.937999725341797 -89.83599853515625,24.357999801635742 -89.83599853515625,18.708999633789062 C-89.83599853515625,18.708999633789062 -89.83599853515625,-53.358001708984375 -89.83599853515625,-53.358001708984375 C-89.83599853515625,-59.00699996948242 -85.25599670410156,-63.58700180053711 -79.60700225830078,-63.58700180053711 C-79.60700225830078,-63.58700180053711 79.60700225830078,-63.58700180053711 79.60700225830078,-63.58700180053711 C85.25599670410156,-63.58700180053711 89.83599853515625,-59.00699996948242 89.83599853515625,-53.358001708984375 C89.83599853515625,-53.358001708984375 89.83599853515625,18.708999633789062 89.83599853515625,18.708999633789062 C89.83599853515625,24.357999801635742 85.25599670410156,28.937999725341797 79.60700225830078,28.937999725341797 C79.60700225830078,28.937999725341797 34.36899948120117,28.937999725341797 34.36899948120117,28.937999725341797z"></path></g></g></g><g transform="matrix(1,0,0,1,289.8630065917969,155.66400146484375)" opacity="1" style="display: block;"><g opacity="1" transform="matrix(1,0,0,1,0,0)"><path stroke-linecap="round" stroke-linejoin="round" fill-opacity="0" stroke="rgb(18,19,49)" stroke-opacity="1" stroke-width="12" d=" M35.55699920654297,29.937000274658203 C35.55699920654297,29.937000274658203 35.90999984741211,65.78299713134766 35.90999984741211,65.78299713134766 C35.90999984741211,65.78299713134766 -36.145999908447266,29.937000274658203 -36.145999908447266,29.937000274658203 C-36.145999908447266,29.937000274658203 -82.35700225830078,29.937000274658203 -82.35700225830078,29.937000274658203 C-88.2020034790039,29.937000274658203 -92.94000244140625,25.200000762939453 -92.94000244140625,19.354999542236328 C-92.94000244140625,19.354999542236328 -92.94000244140625,-55.20100021362305 -92.94000244140625,-55.20100021362305 C-92.94000244140625,-61.04600143432617 -88.2020034790039,-65.78299713134766 -82.35700225830078,-65.78299713134766 C-82.35700225830078,-65.78299713134766 82.35700225830078,-65.78299713134766 82.35700225830078,-65.78299713134766 C88.2020034790039,-65.78299713134766 92.94000244140625,-61.04600143432617 92.94000244140625,-55.20100021362305 C92.94000244140625,-55.20100021362305 92.94000244140625,19.354999542236328 92.94000244140625,19.354999542236328 C92.94000244140625,25.200000762939453 88.2020034790039,29.937000274658203 82.35700225830078,29.937000274658203 C82.35700225830078,29.937000274658203 35.55699920654297,29.937000274658203 35.55699920654297,29.937000274658203z"></path></g></g></g></mask><clipPath id="__lottie_element_3169"><path d="M0,0 L500,0 L500,500 L0,500z"></path></clipPath><filter id="__lottie_element_3176" filterUnits="objectBoundingBox" x="0%" y="0%" width="100%" height="100%"><feComponentTransfer in="SourceGraphic"><feFuncA type="table" tableValues="1.0 0.0"></feFuncA></feComponentTransfer></filter><mask id="__lottie_element_3175" mask-type="alpha"><g filter="url(#__lottie_element_3176)"><rect width="500" height="500" x="0" y="0" fill="#ffffff" opacity="0"></rect><g transform="matrix(1,0,0,1,289.8630065917969,155.66400146484375)" opacity="1" style="display: block;"><g opacity="1" transform="matrix(1,0,0,1,0,0)"><path stroke-linecap="round" stroke-linejoin="round" fill-opacity="0" stroke="rgb(18,19,49)" stroke-opacity="1" stroke-width="0" d=" M35.55699920654297,29.937000274658203 C35.55699920654297,29.937000274658203 35.90999984741211,65.78299713134766 35.90999984741211,65.78299713134766 C35.90999984741211,65.78299713134766 -36.145999908447266,29.937000274658203 -36.145999908447266,29.937000274658203 C-36.145999908447266,29.937000274658203 -82.35700225830078,29.937000274658203 -82.35700225830078,29.937000274658203 C-88.2020034790039,29.937000274658203 -92.94000244140625,25.200000762939453 -92.94000244140625,19.354999542236328 C-92.94000244140625,19.354999542236328 -92.94000244140625,-55.20100021362305 -92.94000244140625,-55.20100021362305 C-92.94000244140625,-61.04600143432617 -88.2020034790039,-65.78299713134766 -82.35700225830078,-65.78299713134766 C-82.35700225830078,-65.78299713134766 82.35700225830078,-65.78299713134766 82.35700225830078,-65.78299713134766 C88.2020034790039,-65.78299713134766 92.94000244140625,-61.04600143432617 92.94000244140625,-55.20100021362305 C92.94000244140625,-55.20100021362305 92.94000244140625,19.354999542236328 92.94000244140625,19.354999542236328 C92.94000244140625,25.200000762939453 88.2020034790039,29.937000274658203 82.35700225830078,29.937000274658203 C82.35700225830078,29.937000274658203 35.55699920654297,29.937000274658203 35.55699920654297,29.937000274658203z"></path><path fill="rgb(255,0,0)" fill-opacity="1" d=" M35.55699920654297,29.937000274658203 C35.55699920654297,29.937000274658203 35.90999984741211,65.78299713134766 35.90999984741211,65.78299713134766 C35.90999984741211,65.78299713134766 -36.145999908447266,29.937000274658203 -36.145999908447266,29.937000274658203 C-36.145999908447266,29.937000274658203 -82.35700225830078,29.937000274658203 -82.35700225830078,29.937000274658203 C-88.2020034790039,29.937000274658203 -92.94000244140625,25.200000762939453 -92.94000244140625,19.354999542236328 C-92.94000244140625,19.354999542236328 -92.94000244140625,-55.20100021362305 -92.94000244140625,-55.20100021362305 C-92.94000244140625,-61.04600143432617 -88.2020034790039,-65.78299713134766 -82.35700225830078,-65.78299713134766 C-82.35700225830078,-65.78299713134766 82.35700225830078,-65.78299713134766 82.35700225830078,-65.78299713134766 C88.2020034790039,-65.78299713134766 92.94000244140625,-61.04600143432617 92.94000244140625,-55.20100021362305 C92.94000244140625,-55.20100021362305 92.94000244140625,19.354999542236328 92.94000244140625,19.354999542236328 C92.94000244140625,25.200000762939453 88.2020034790039,29.937000274658203 82.35700225830078,29.937000274658203 C82.35700225830078,29.937000274658203 35.55699920654297,29.937000274658203 35.55699920654297,29.937000274658203z"></path></g></g></g></mask><filter id="__lottie_element_3190" x="-100%" y="-100%" width="300%" height="300%"><feGaussianBlur result="filter_result_0" stdDeviation="52.5 52.5" edgeMode="wrap"></feGaussianBlur></filter></defs><g clip-path="url(#__lottie_element_3162)"><g mask="url(#__lottie_element_3168)" style="display: block;"><g filter="url(#__lottie_element_3190)" transform="matrix(-0.1674155443906784,-2.3941538333892822,2.3941538333892822,-0.1674155443906784,271.9410095214844,270.4599914550781)" opacity="1"><g class="design" opacity="1" transform="matrix(1,0,0,1,0,0)"><path fill="rgb(225,169,58)" fill-opacity="1" d=" M0,-250 C137.97500610351562,-250 250,-137.97500610351562 250,0 C250,137.97500610351562 137.97500610351562,250 0,250 C-137.97500610351562,250 -250,137.97500610351562 -250,0 C-250,-137.97500610351562 -137.97500610351562,-250 0,-250z"></path></g><g class="design" opacity="1" transform="matrix(1,0,0,1,113.24199676513672,-118.88400268554688)"><path fill="rgb(225,169,58)" fill-opacity="1" d=" M0,-176.5 C97.47799682617188,-176.5 176.5,-97.47799682617188 176.5,0 C176.5,97.47799682617188 97.47799682617188,176.5 0,176.5 C-43.948001861572266,176.5 -74.39600372314453,142.4429931640625 -105.29000091552734,115.86900329589844 C-142.92100524902344,83.5 -176.5,53.53099822998047 -176.5,0 C-176.5,-97.47799682617188 -97.47799682617188,-176.5 0,-176.5z"></path></g></g></g><g style="display: none;"><path></path></g></g></svg>