<svg xmlns="http://www.w3.org/2000/svg" viewBox="0 0 500 500" width="500" height="500" preserveAspectRatio="xMidYMid meet" style="width: 100%; height: 100%; transform: translate3d(0px, 0px, 0px); content-visibility: visible;"><defs><clipPath id="__lottie_element_2026"><rect width="500" height="500" x="0" y="0"></rect></clipPath><mask id="__lottie_element_2032" mask-type="alpha"><g clip-path="url(#__lottie_element_2033)" transform="matrix(1,0,0,1,0,0)" opacity="1" style="display: block;"><g transform="matrix(1,0,0,1,0,0)" opacity="1" style="display: block;"><g opacity="1" transform="matrix(1,0,0,1,250,164.56100463867188)"><path stroke-linecap="round" stroke-linejoin="round" fill-opacity="0" stroke="rgb(18,19,49)" stroke-opacity="1" stroke-width="12" d=" M56.5369987487793,-21.839000701904297 C56.5369987487793,-21.839000701904297 56.5369987487793,-59.5629997253418 56.5369987487793,-59.5629997253418 C56.5369987487793,-59.5629997253418 103.3479995727539,-59.5629997253418 103.3479995727539,-59.5629997253418 C103.3479995727539,-59.5629997253418 103.3479995727539,22.19499969482422 103.3479995727539,22.19499969482422 M132.66200256347656,49.78099822998047 C132.66200256347656,49.78099822998047 132.66200256347656,245.55799865722656 132.66200256347656,245.55799865722656 C132.66200256347656,245.55799865722656 -132.71400451660156,245.55799865722656 -132.71400451660156,245.55799865722656 C-132.71400451660156,245.55799865722656 -132.71400451660156,49.827999114990234 -132.71400451660156,49.827999114990234 M159.46200561523438,74.99700164794922 C159.46200561523438,74.99700164794922 0.03099999949336052,-74.99700164794922 0.03099999949336052,-74.99700164794922 C0.03099999949336052,-74.99700164794922 -159.46200561523438,74.99700164794922 -159.46200561523438,74.99700164794922"></path></g></g><g mask="url(#__lottie_element_2036)" style="display: block;"><g transform="matrix(1,0,0,1,0,0)" opacity="1"><path fill="rgb(255,0,0)" fill-opacity="1" d=" M324.08,230.41 C324.08,230.41 313.32,297.19 313.32,297.19 C308.94,315.52 298.54,331.86 283.8,343.6 C283.8,343.6 250,370.09 250,370.09 C250,370.09 216.2,343.6 216.2,343.6 C201.46,331.86 191.06,315.52 186.68,297.19 C186.68,297.19 175.92,230.41 175.92,230.41 C175.92,230.41 238.59,217.18 250,204.45 C261.41,217.18 324.08,230.41 324.08,230.41z"></path><g opacity="1" transform="matrix(1,0,0,1,250,287.27099609375)"><path stroke-linecap="round" stroke-linejoin="round" fill-opacity="0" stroke="rgb(8,168,138)" stroke-opacity="1" stroke-width="6" d=" M74.08000183105469,-56.8650016784668 C74.08000183105469,-56.8650016784668 63.32099914550781,9.920000076293945 63.32099914550781,9.920000076293945 C58.9379997253418,28.253000259399414 48.54399871826172,44.59000015258789 33.79600143432617,56.32899856567383 C33.79600143432617,56.32899856567383 0,82.81900024414062 0,82.81900024414062 C0,82.81900024414062 -33.79600143432617,56.32899856567383 -33.79600143432617,56.32899856567383 C-48.54399871826172,44.59000015258789 -58.9379997253418,28.253000259399414 -63.32099914550781,9.920000076293945 C-63.32099914550781,9.920000076293945 -74.08000183105469,-56.8650016784668 -74.08000183105469,-56.8650016784668 C-74.08000183105469,-56.8650016784668 -11.413000106811523,-70.09300231933594 0,-82.81900024414062 C11.413999557495117,-70.09300231933594 74.08000183105469,-56.8650016784668 74.08000183105469,-56.8650016784668z"></path></g></g></g></g></mask><clipPath id="__lottie_element_2033"><path d="M0,0 L500,0 L500,500 L0,500z"></path></clipPath><filter id="__lottie_element_2037" filterUnits="objectBoundingBox" x="0%" y="0%" width="100%" height="100%"><feComponentTransfer in="SourceGraphic"><feFuncA type="table" tableValues="1.0 0.0"></feFuncA></feComponentTransfer></filter><mask id="__lottie_element_2036" mask-type="alpha"><g filter="url(#__lottie_element_2037)"><rect width="500" height="500" x="0" y="0" fill="#ffffff" opacity="0"></rect><g transform="matrix(1,0,0,1,0,0)" opacity="1" style="display: block;"><g opacity="1" transform="matrix(1,0,0,1,252.781005859375,286.343994140625)"><path stroke-linecap="round" stroke-linejoin="round" fill-opacity="0" stroke="rgb(18,19,49)" stroke-opacity="1" stroke-width="12" d=" M-30.78499984741211,7.828999996185303 C-22.018999099731445,16.43899917602539 -15.333000183105469,23.006999969482422 -15.333000183105469,23.006999969482422 C-15.333000183105469,23.006999969482422 9.682999610900879,-1.8509999513626099 31.652000427246094,-23.68199920654297"></path></g><g opacity="1" transform="matrix(1,0,0,1,250,287.27099609375)"><path stroke-linecap="round" stroke-linejoin="round" fill-opacity="0" stroke="rgb(8,168,138)" stroke-opacity="1" stroke-width="12" d="M0 0"></path></g></g></g></mask><filter id="__lottie_element_2048" x="-100%" y="-100%" width="300%" height="300%"><feGaussianBlur result="filter_result_0" stdDeviation="52.5 52.5" edgeMode="wrap"></feGaussianBlur></filter></defs><g clip-path="url(#__lottie_element_2026)"><g mask="url(#__lottie_element_2032)" style="display: block;"><g filter="url(#__lottie_element_2048)" transform="matrix(-0.1674155443906784,-2.3941538333892822,2.3941538333892822,-0.1674155443906784,271.9410095214844,270.4599914550781)" opacity="1"><g class="design" opacity="1" transform="matrix(1,0,0,1,0,0)"><path fill="rgb(227,227,227)" fill-opacity="1" d=" M0,-250 C137.97500610351562,-250 250,-137.97500610351562 250,0 C250,137.97500610351562 137.97500610351562,250 0,250 C-137.97500610351562,250 -250,137.97500610351562 -250,0 C-250,-137.97500610351562 -137.97500610351562,-250 0,-250z"></path></g><g class="design" opacity="1" transform="matrix(1,0,0,1,113.24199676513672,-118.88400268554688)"><path fill="rgb(225,169,58)" fill-opacity="1" d=" M0,-176.5 C97.47799682617188,-176.5 176.5,-97.47799682617188 176.5,0 C176.5,97.47799682617188 97.47799682617188,176.5 0,176.5 C-43.948001861572266,176.5 -74.39600372314453,142.4429931640625 -105.29000091552734,115.86900329589844 C-142.92100524902344,83.5 -176.5,53.53099822998047 -176.5,0 C-176.5,-97.47799682617188 -97.47799682617188,-176.5 0,-176.5z"></path></g></g></g><g style="display: none;"><path></path></g></g></svg>