<svg xmlns="http://www.w3.org/2000/svg" viewBox="0 0 500 500" width="500" height="500" preserveAspectRatio="xMidYMid meet" style="width: 100%; height: 100%; transform: translate3d(0px, 0px, 0px); content-visibility: visible;"><defs><clipPath id="__lottie_element_2304"><rect width="500" height="500" x="0" y="0"></rect></clipPath><mask id="__lottie_element_2310" mask-type="alpha"><g clip-path="url(#__lottie_element_2311)" transform="matrix(1,0,0,1,0,0)" opacity="1" style="display: block;"><g mask="url(#__lottie_element_2317)" style="display: block;"><g transform="matrix(1,0,0,1,250,250)" opacity="1"><g opacity="1" transform="matrix(1,0,0,1,0,0)"><path stroke-linecap="round" stroke-linejoin="round" fill-opacity="0" stroke="rgb(18,19,49)" stroke-opacity="1" stroke-width="12" d=" M-50.52000045776367,-118.84400177001953 C-50.52000045776367,-118.54399871826172 -50.5099983215332,-118.24400329589844 -50.5,-117.93399810791016 C-50.5,-117.93399810791016 -48.900001525878906,-72.13400268554688 -48.900001525878906,-72.13400268554688 C-48.439998626708984,-58.9640007019043 -42.810001373291016,-47.15399932861328 -33.9900016784668,-38.64400100708008 C-25.18000030517578,-30.124000549316406 -13.180000305175781,-24.90399932861328 0,-24.90399932861328 C26.360000610351562,-24.90399932861328 47.9900016784668,-45.79399871826172 48.900001525878906,-72.13400268554688 C48.900001525878906,-72.13400268554688 50.43000030517578,-115.93399810791016 50.43000030517578,-115.93399810791016 M27.799999237060547,-17.77400016784668 C27.799999237060547,-17.77400016784668 34.06999969482422,-17.77400016784668 34.06999969482422,-17.77400016784668 C71.69999694824219,-17.77400016784668 102.19999694824219,12.72599983215332 102.19999694824219,50.35599899291992 C102.19999694824219,50.35599899291992 102.19999694824219,73.15599822998047 102.19999694824219,73.15599822998047 C102.19999694824219,79.40599822998047 97.5199966430664,84.66600036621094 91.30000305175781,85.38600158691406 C91.30000305175781,85.38600158691406 67.45999908447266,88.14600372314453 67.45999908447266,88.14600372314453 C60.95000076293945,88.89600372314453 54.56999969482422,90.56600189208984 48.52000045776367,93.09600067138672 C32.91999816894531,99.61599731445312 16.34000015258789,102.8759994506836 -0.23999999463558197,102.8759994506836 C-16.739999771118164,102.8759994506836 -33.2400016784668,99.64600372314453 -48.779998779296875,93.19599914550781 C-48.779998779296875,93.19599914550781 -48.939998626708984,93.1259994506836 -48.939998626708984,93.1259994506836 C-55.2599983215332,90.49600219726562 -61.90999984741211,88.76599884033203 -68.69999694824219,87.98600006103516 C-68.69999694824219,87.98600006103516 -91.30000305175781,85.38600158691406 -91.30000305175781,85.38600158691406 C-97.51000213623047,84.66600036621094 -102.19999694824219,79.40599822998047 -102.19999694824219,73.14600372314453 C-102.19999694824219,73.14600372314453 -102.19999694824219,50.35599899291992 -102.19999694824219,50.35599899291992 C-102.19999694824219,12.72599983215332 -71.69999694824219,-17.77400016784668 -34.06999969482422,-17.77400016784668 C-34.06999969482422,-17.77400016784668 -27.799999237060547,-17.77400016784668 -27.799999237060547,-17.77400016784668 M27.808000564575195,-33.57500076293945 C27.808000564575195,-33.57500076293945 27.808000564575195,-18.027000427246094 27.808000564575195,-18.027000427246094 C27.808000564575195,-2.7330000400543213 -0.004000000189989805,11.777000427246094 -0.004000000189989805,11.777000427246094 C-0.004000000189989805,11.777000427246094 -27.808000564575195,-2.7330000400543213 -27.808000564575195,-18.027000427246094 C-27.808000564575195,-18.027000427246094 -27.808000564575195,-33.56700134277344 -27.808000564575195,-33.56700134277344"></path></g><g opacity="1" transform="matrix(1,0,0,1,0,0)"><path stroke-linecap="round" stroke-linejoin="round" fill-opacity="0" stroke="rgb(8,168,138)" stroke-opacity="1" stroke-width="12" d=" M50.428001403808594,-115.93199920654297 C50.428001403808594,-115.93199920654297 51.974998474121094,-127.28500366210938 51.974998474121094,-127.28500366210938 C53.56700134277344,-146.49099731445312 38.51599884033203,-173.93600463867188 -0.06700000166893005,-173.93600463867188 C-38.23899841308594,-173.93600463867188 -53.64099884033203,-146.47000122070312 -51.965999603271484,-127.2490005493164 C-51.965999603271484,-127.2490005493164 -50.52000045776367,-118.84100341796875 -50.52000045776367,-118.84100341796875 C-50.52000045776367,-118.84100341796875 -26.687000274658203,-138.67100524902344 -26.687000274658203,-138.67100524902344 C-26.687000274658203,-138.67100524902344 -26.687000274658203,-138.67100524902344 -26.687000274658203,-138.67100524902344 C-9.114999771118164,-134.72000122070312 9.114999771118164,-134.72000122070312 26.687000274658203,-138.67100524902344 C26.687000274658203,-138.67100524902344 26.687000274658203,-138.67100524902344 26.687000274658203,-138.67100524902344 C26.687000274658203,-138.67100524902344 50.428001403808594,-115.93199920654297 50.428001403808594,-115.93199920654297z"></path></g></g></g><g transform="matrix(1,0,0,1,250,250.00001525878906)" opacity="1" style="display: block;"><g opacity="1" transform="matrix(1,0,0,1,0,0)"><path stroke-linecap="round" stroke-linejoin="round" fill-opacity="0" stroke="rgb(18,19,49)" stroke-opacity="1" stroke-width="12" d=" M133.43299865722656,107.41300201416016 C133.43299865722656,107.41300201416016 117.4209976196289,160.11900329589844 117.4209976196289,160.11900329589844 C117.4209976196289,160.11900329589844 -117.4209976196289,160.11900329589844 -117.4209976196289,160.11900329589844 C-117.4209976196289,160.11900329589844 -133.43299865722656,107.41300201416016 -133.43299865722656,107.41300201416016"></path></g><g opacity="1" transform="matrix(1,0,0,1,0,0)"><path stroke-linecap="round" stroke-linejoin="round" fill-opacity="0" stroke="rgb(18,19,49)" stroke-opacity="1" stroke-width="12" d=" M160.11900329589844,107.21900177001953 C160.11900329589844,107.21900177001953 -160.11900329589844,107.21900177001953 -160.11900329589844,107.21900177001953 C-160.11900329589844,107.21900177001953 -160.11900329589844,59.04100036621094 -160.11900329589844,59.04100036621094 C-160.11900329589844,59.04100036621094 160.11900329589844,59.04100036621094 160.11900329589844,59.04100036621094 C160.11900329589844,59.04100036621094 160.11900329589844,107.21900177001953 160.11900329589844,107.21900177001953z"></path></g><g opacity="1" transform="matrix(1,0,0,1,0,0)"><g opacity="1" transform="matrix(1,0,0,1,0,0)"><path stroke-linecap="round" stroke-linejoin="round" fill-opacity="0" stroke="rgb(18,19,49)" stroke-opacity="1" stroke-width="12" d=" M117.33999633789062,-43.40399932861328 C117.33999633789062,-43.40399932861328 160.1199951171875,-26.27400016784668 160.1199951171875,-26.27400016784668 C160.1199951171875,-26.27400016784668 160.1199951171875,58.84600067138672 160.1199951171875,58.84600067138672"></path></g><g opacity="1" transform="matrix(1,0,0,1,0,0)"><path stroke-linecap="round" stroke-linejoin="round" fill-opacity="0" stroke="rgb(18,19,49)" stroke-opacity="1" stroke-width="12" d=" M80.83300018310547,-43.042999267578125 C80.83300018310547,-43.042999267578125 99.90899658203125,-35.875 99.90899658203125,-35.875 C106.95800018310547,-33.22600173950195 114.89299774169922,-36.82600021362305 117.54199981689453,-43.875 C117.54199981689453,-43.875 117.54199981689453,-43.875999450683594 117.54199981689453,-43.875999450683594 C120.19100189208984,-50.92499923706055 116.58999633789062,-58.86000061035156 109.54100036621094,-61.50899887084961 C109.54100036621094,-61.50899887084961 90.46499633789062,-68.677001953125 90.46499633789062,-68.677001953125 C83.41600036621094,-71.32599639892578 75.48100280761719,-67.7249984741211 72.83200073242188,-60.67599868774414 C72.83200073242188,-60.67599868774414 72.83200073242188,-60.67599868774414 72.83200073242188,-60.67599868774414 C70.18299865722656,-53.62699890136719 73.78399658203125,-45.69200134277344 80.83300018310547,-43.042999267578125z"></path><path fill="rgb(255,0,0)" fill-opacity="1" d=" M80.83300018310547,-43.042999267578125 C80.83300018310547,-43.042999267578125 99.90899658203125,-35.875 99.90899658203125,-35.875 C106.95800018310547,-33.22600173950195 114.89299774169922,-36.82600021362305 117.54199981689453,-43.875 C117.54199981689453,-43.875 117.54199981689453,-43.875999450683594 117.54199981689453,-43.875999450683594 C120.19100189208984,-50.92499923706055 116.58999633789062,-58.86000061035156 109.54100036621094,-61.50899887084961 C109.54100036621094,-61.50899887084961 90.46499633789062,-68.677001953125 90.46499633789062,-68.677001953125 C83.41600036621094,-71.32599639892578 75.48100280761719,-67.7249984741211 72.83200073242188,-60.67599868774414 C72.83200073242188,-60.67599868774414 72.83200073242188,-60.67599868774414 72.83200073242188,-60.67599868774414 C70.18299865722656,-53.62699890136719 73.78399658203125,-45.69200134277344 80.83300018310547,-43.042999267578125z"></path></g></g><g opacity="1" transform="matrix(1,0,0,1,0,0)"><g opacity="1" transform="matrix(1,0,0,1,0,0)"><path stroke-linecap="round" stroke-linejoin="round" fill-opacity="0" stroke="rgb(18,19,49)" stroke-opacity="1" stroke-width="12" d=" M-160.1199951171875,58.84600067138672 C-160.1199951171875,58.84600067138672 -160.1199951171875,-26.27400016784668 -160.1199951171875,-26.27400016784668 C-160.1199951171875,-26.27400016784668 -117.33999633789062,-43.40399932861328 -117.33999633789062,-43.40399932861328"></path></g><g opacity="1" transform="matrix(1,0,0,1,0,0)"><path stroke-linecap="round" stroke-linejoin="round" fill-opacity="0" stroke="rgb(18,19,49)" stroke-opacity="1" stroke-width="12" d=" M-80.83300018310547,-43.042999267578125 C-80.83300018310547,-43.042999267578125 -99.90899658203125,-35.875 -99.90899658203125,-35.875 C-106.95800018310547,-33.22600173950195 -114.89299774169922,-36.82600021362305 -117.54199981689453,-43.875 C-117.54199981689453,-43.875 -117.54199981689453,-43.875999450683594 -117.54199981689453,-43.875999450683594 C-120.19100189208984,-50.92499923706055 -116.58999633789062,-58.86000061035156 -109.54100036621094,-61.50899887084961 C-109.54100036621094,-61.50899887084961 -90.46499633789062,-68.677001953125 -90.46499633789062,-68.677001953125 C-83.41600036621094,-71.32599639892578 -75.48100280761719,-67.7249984741211 -72.83200073242188,-60.67599868774414 C-72.83200073242188,-60.67599868774414 -72.83200073242188,-60.67599868774414 -72.83200073242188,-60.67599868774414 C-70.18299865722656,-53.62699890136719 -73.78399658203125,-45.69200134277344 -80.83300018310547,-43.042999267578125z"></path><path fill="rgb(255,0,0)" fill-opacity="1" d=" M-80.83300018310547,-43.042999267578125 C-80.83300018310547,-43.042999267578125 -99.90899658203125,-35.875 -99.90899658203125,-35.875 C-106.95800018310547,-33.22600173950195 -114.89299774169922,-36.82600021362305 -117.54199981689453,-43.875 C-117.54199981689453,-43.875 -117.54199981689453,-43.875999450683594 -117.54199981689453,-43.875999450683594 C-120.19100189208984,-50.92499923706055 -116.58999633789062,-58.86000061035156 -109.54100036621094,-61.50899887084961 C-109.54100036621094,-61.50899887084961 -90.46499633789062,-68.677001953125 -90.46499633789062,-68.677001953125 C-83.41600036621094,-71.32599639892578 -75.48100280761719,-67.7249984741211 -72.83200073242188,-60.67599868774414 C-72.83200073242188,-60.67599868774414 -72.83200073242188,-60.67599868774414 -72.83200073242188,-60.67599868774414 C-70.18299865722656,-53.62699890136719 -73.78399658203125,-45.69200134277344 -80.83300018310547,-43.042999267578125z"></path></g></g></g></g></mask><clipPath id="__lottie_element_2311"><path d="M0,0 L500,0 L500,500 L0,500z"></path></clipPath><filter id="__lottie_element_2318" filterUnits="objectBoundingBox" x="0%" y="0%" width="100%" height="100%"><feComponentTransfer in="SourceGraphic"><feFuncA type="table" tableValues="1.0 0.0"></feFuncA></feComponentTransfer></filter><mask id="__lottie_element_2317" mask-type="alpha"><g filter="url(#__lottie_element_2318)"><rect width="500" height="500" x="0" y="0" fill="#ffffff" opacity="0"></rect><g transform="matrix(1,0,0,1,250,250.00001525878906)" opacity="1" style="display: block;"><path fill="rgb(255,0,0)" fill-opacity="1" d=" M133.43299865722656,107.41300201416016 C133.43299865722656,107.41300201416016 117.4209976196289,160.11900329589844 117.4209976196289,160.11900329589844 C117.4209976196289,160.11900329589844 -117.4209976196289,160.11900329589844 -117.4209976196289,160.11900329589844 C-117.4209976196289,160.11900329589844 -133.43299865722656,107.41300201416016 -133.43299865722656,107.41300201416016 M160.11900329589844,107.21900177001953 C160.11900329589844,107.21900177001953 -160.11900329589844,107.21900177001953 -160.11900329589844,107.21900177001953 C-160.11900329589844,107.21900177001953 -160.11900329589844,59.04100036621094 -160.11900329589844,59.04100036621094 C-160.11900329589844,59.04100036621094 160.11900329589844,59.04100036621094 160.11900329589844,59.04100036621094 C160.11900329589844,59.04100036621094 160.11900329589844,107.21900177001953 160.11900329589844,107.21900177001953z M117.33999633789062,-43.40399932861328 C117.33999633789062,-43.40399932861328 160.1199951171875,-26.27400016784668 160.1199951171875,-26.27400016784668 C160.1199951171875,-26.27400016784668 160.1199951171875,58.84600067138672 160.1199951171875,58.84600067138672 M80.83300018310547,-43.042999267578125 C80.83300018310547,-43.042999267578125 99.90899658203125,-35.875 99.90899658203125,-35.875 C106.95800018310547,-33.22600173950195 114.89299774169922,-36.82600021362305 117.54199981689453,-43.875 C117.54199981689453,-43.875 117.54199981689453,-43.875999450683594 117.54199981689453,-43.875999450683594 C120.19100189208984,-50.92499923706055 116.58999633789062,-58.86000061035156 109.54100036621094,-61.50899887084961 C109.54100036621094,-61.50899887084961 90.46499633789062,-68.677001953125 90.46499633789062,-68.677001953125 C83.41600036621094,-71.32599639892578 75.48100280761719,-67.7249984741211 72.83200073242188,-60.67599868774414 C72.83200073242188,-60.67599868774414 72.83200073242188,-60.67599868774414 72.83200073242188,-60.67599868774414 C70.18299865722656,-53.62699890136719 73.78399658203125,-45.69200134277344 80.83300018310547,-43.042999267578125z M-160.1199951171875,58.84600067138672 C-160.1199951171875,58.84600067138672 -160.1199951171875,-26.27400016784668 -160.1199951171875,-26.27400016784668 C-160.1199951171875,-26.27400016784668 -117.33999633789062,-43.40399932861328 -117.33999633789062,-43.40399932861328 M-80.83300018310547,-43.042999267578125 C-80.83300018310547,-43.042999267578125 -99.90899658203125,-35.875 -99.90899658203125,-35.875 C-106.95800018310547,-33.22600173950195 -114.89299774169922,-36.82600021362305 -117.54199981689453,-43.875 C-117.54199981689453,-43.875 -117.54199981689453,-43.875999450683594 -117.54199981689453,-43.875999450683594 C-120.19100189208984,-50.92499923706055 -116.58999633789062,-58.86000061035156 -109.54100036621094,-61.50899887084961 C-109.54100036621094,-61.50899887084961 -90.46499633789062,-68.677001953125 -90.46499633789062,-68.677001953125 C-83.41600036621094,-71.32599639892578 -75.48100280761719,-67.7249984741211 -72.83200073242188,-60.67599868774414 C-72.83200073242188,-60.67599868774414 -72.83200073242188,-60.67599868774414 -72.83200073242188,-60.67599868774414 C-70.18299865722656,-53.62699890136719 -73.78399658203125,-45.69200134277344 -80.83300018310547,-43.042999267578125z"></path><g opacity="1" transform="matrix(1,0,0,1,0,0)"><path stroke-linecap="round" stroke-linejoin="round" fill-opacity="0" stroke="rgb(18,19,49)" stroke-opacity="1" stroke-width="0" d=" M133.43299865722656,107.41300201416016 C133.43299865722656,107.41300201416016 117.4209976196289,160.11900329589844 117.4209976196289,160.11900329589844 C117.4209976196289,160.11900329589844 -117.4209976196289,160.11900329589844 -117.4209976196289,160.11900329589844 C-117.4209976196289,160.11900329589844 -133.43299865722656,107.41300201416016 -133.43299865722656,107.41300201416016"></path></g><g opacity="1" transform="matrix(1,0,0,1,0,0)"><path stroke-linecap="round" stroke-linejoin="round" fill-opacity="0" stroke="rgb(18,19,49)" stroke-opacity="1" stroke-width="0" d=" M160.11900329589844,107.21900177001953 C160.11900329589844,107.21900177001953 -160.11900329589844,107.21900177001953 -160.11900329589844,107.21900177001953 C-160.11900329589844,107.21900177001953 -160.11900329589844,59.04100036621094 -160.11900329589844,59.04100036621094 C-160.11900329589844,59.04100036621094 160.11900329589844,59.04100036621094 160.11900329589844,59.04100036621094 C160.11900329589844,59.04100036621094 160.11900329589844,107.21900177001953 160.11900329589844,107.21900177001953z"></path></g><g opacity="1" transform="matrix(1,0,0,1,0,0)"><g opacity="1" transform="matrix(1,0,0,1,0,0)"><path stroke-linecap="round" stroke-linejoin="round" fill-opacity="0" stroke="rgb(18,19,49)" stroke-opacity="1" stroke-width="0" d=" M117.33999633789062,-43.40399932861328 C117.33999633789062,-43.40399932861328 160.1199951171875,-26.27400016784668 160.1199951171875,-26.27400016784668 C160.1199951171875,-26.27400016784668 160.1199951171875,58.84600067138672 160.1199951171875,58.84600067138672"></path></g><g opacity="1" transform="matrix(1,0,0,1,0,0)"><path stroke-linecap="round" stroke-linejoin="round" fill-opacity="0" stroke="rgb(18,19,49)" stroke-opacity="1" stroke-width="0" d=" M80.83300018310547,-43.042999267578125 C80.83300018310547,-43.042999267578125 99.90899658203125,-35.875 99.90899658203125,-35.875 C106.95800018310547,-33.22600173950195 114.89299774169922,-36.82600021362305 117.54199981689453,-43.875 C117.54199981689453,-43.875 117.54199981689453,-43.875999450683594 117.54199981689453,-43.875999450683594 C120.19100189208984,-50.92499923706055 116.58999633789062,-58.86000061035156 109.54100036621094,-61.50899887084961 C109.54100036621094,-61.50899887084961 90.46499633789062,-68.677001953125 90.46499633789062,-68.677001953125 C83.41600036621094,-71.32599639892578 75.48100280761719,-67.7249984741211 72.83200073242188,-60.67599868774414 C72.83200073242188,-60.67599868774414 72.83200073242188,-60.67599868774414 72.83200073242188,-60.67599868774414 C70.18299865722656,-53.62699890136719 73.78399658203125,-45.69200134277344 80.83300018310547,-43.042999267578125z"></path></g></g><g opacity="1" transform="matrix(1,0,0,1,0,0)"><g opacity="1" transform="matrix(1,0,0,1,0,0)"><path stroke-linecap="round" stroke-linejoin="round" fill-opacity="0" stroke="rgb(18,19,49)" stroke-opacity="1" stroke-width="0" d=" M-160.1199951171875,58.84600067138672 C-160.1199951171875,58.84600067138672 -160.1199951171875,-26.27400016784668 -160.1199951171875,-26.27400016784668 C-160.1199951171875,-26.27400016784668 -117.33999633789062,-43.40399932861328 -117.33999633789062,-43.40399932861328"></path></g><g opacity="1" transform="matrix(1,0,0,1,0,0)"><path stroke-linecap="round" stroke-linejoin="round" fill-opacity="0" stroke="rgb(18,19,49)" stroke-opacity="1" stroke-width="0" d=" M-80.83300018310547,-43.042999267578125 C-80.83300018310547,-43.042999267578125 -99.90899658203125,-35.875 -99.90899658203125,-35.875 C-106.95800018310547,-33.22600173950195 -114.89299774169922,-36.82600021362305 -117.54199981689453,-43.875 C-117.54199981689453,-43.875 -117.54199981689453,-43.875999450683594 -117.54199981689453,-43.875999450683594 C-120.19100189208984,-50.92499923706055 -116.58999633789062,-58.86000061035156 -109.54100036621094,-61.50899887084961 C-109.54100036621094,-61.50899887084961 -90.46499633789062,-68.677001953125 -90.46499633789062,-68.677001953125 C-83.41600036621094,-71.32599639892578 -75.48100280761719,-67.7249984741211 -72.83200073242188,-60.67599868774414 C-72.83200073242188,-60.67599868774414 -72.83200073242188,-60.67599868774414 -72.83200073242188,-60.67599868774414 C-70.18299865722656,-53.62699890136719 -73.78399658203125,-45.69200134277344 -80.83300018310547,-43.042999267578125z"></path></g></g></g></g></mask><filter id="__lottie_element_2326" x="-100%" y="-100%" width="300%" height="300%"><feGaussianBlur result="filter_result_0" stdDeviation="52.5 52.5" edgeMode="wrap"></feGaussianBlur></filter></defs><g clip-path="url(#__lottie_element_2304)"><g mask="url(#__lottie_element_2310)" style="display: block;"><g filter="url(#__lottie_element_2326)" transform="matrix(-0.1674155443906784,-2.3941538333892822,2.3941538333892822,-0.1674155443906784,271.9410095214844,270.4599914550781)" opacity="1"><g class="design" opacity="1" transform="matrix(1,0,0,1,0,0)"><path fill="rgb(227,227,227)" fill-opacity="1" d=" M0,-250 C137.97500610351562,-250 250,-137.97500610351562 250,0 C250,137.97500610351562 137.97500610351562,250 0,250 C-137.97500610351562,250 -250,137.97500610351562 -250,0 C-250,-137.97500610351562 -137.97500610351562,-250 0,-250z"></path></g><g class="design" opacity="1" transform="matrix(1,0,0,1,113.24199676513672,-118.88400268554688)"><path fill="rgb(225,169,58)" fill-opacity="1" d=" M0,-176.5 C97.47799682617188,-176.5 176.5,-97.47799682617188 176.5,0 C176.5,97.47799682617188 97.47799682617188,176.5 0,176.5 C-43.948001861572266,176.5 -74.39600372314453,142.4429931640625 -105.29000091552734,115.86900329589844 C-142.92100524902344,83.5 -176.5,53.53099822998047 -176.5,0 C-176.5,-97.47799682617188 -97.47799682617188,-176.5 0,-176.5z"></path></g></g></g><g style="display: none;"><path></path></g></g></svg>